<svg width="453" height="453" viewBox="0 0 453 453" fill="none" xmlns="http://www.w3.org/2000/svg">
<path fill-rule="evenodd" clip-rule="evenodd" d="M447.081 278.166C450.953 261.571 453 244.274 453 226.5C453 215.818 452.26 205.308 450.83 195.02L448.532 193.859L416.923 213.134L415.693 213.885L414.427 213.196L378.772 193.795L336.37 213.272L333.973 214.373L333.002 211.92L325.885 193.939L284.456 203.93L283.747 204.101L283.057 203.864L253.794 193.801L228.849 212.982L226.99 214.411L225.445 212.648L208.992 193.876L147.217 213.384L146.074 213.745L145.077 213.079L116.482 193.997L87.3303 213.091L85.6687 214.18L84.233 212.807L64.7469 194.18L35.8738 213.091L34.317 214.111L32.8936 212.912L10.4502 194.012L1.67868 198.785C0.570491 207.868 0 217.117 0 226.5C0 246.652 2.6318 266.19 7.57045 284.788L7.69088 284.889L36.6688 265.909L38.3304 264.82L39.7661 266.193L59.2522 284.82L88.1253 265.909L89.508 265.003L90.8829 265.921L119.855 285.255L182.043 265.616L183.599 265.124L184.676 266.352L200.659 284.589L224.812 266.018L225.877 265.199L227.149 265.636L256.993 275.899L299.824 265.57L301.936 265.061L302.735 267.08L309.68 284.627L350.823 265.728L351.962 265.205L353.062 265.804L388.551 285.115L420.117 265.866L421.304 265.141L422.546 265.769L447.081 278.166ZM445.858 283.15L421.532 270.859L389.923 290.134L388.693 290.885L387.427 290.196L351.772 270.795L309.37 290.272L306.973 291.373L306.002 288.92L298.885 270.939L257.456 280.93L256.747 281.101L256.057 280.864L226.794 270.801L201.849 289.982L199.99 291.411L198.445 289.648L181.992 270.876L120.217 290.384L119.074 290.745L118.077 290.079L89.4823 270.997L60.3303 290.091L58.6688 291.18L57.233 289.807L37.7469 271.18L9.02056 289.995C15.349 311.708 24.8408 332.072 36.9635 350.556L58.5598 338.804L60.0594 337.988L61.3651 339.088L83.6909 357.889L112.669 338.909L114.33 337.82L115.766 339.193L135.252 357.82L164.125 338.909L165.508 338.003L166.883 338.921L195.855 358.255L258.043 338.616L259.599 338.124L260.676 339.352L276.659 357.589L300.812 339.018L301.877 338.199L303.149 338.636L332.993 348.899L375.824 338.57L377.936 338.061L378.735 340.08L385.68 357.627L422.004 340.942C432.474 323.095 440.57 303.686 445.858 283.15ZM417.302 348.604L385.37 363.272L382.973 364.373L382.002 361.92L374.885 343.939L333.456 353.93L332.747 354.101L332.057 353.864L302.794 343.801L277.849 362.982L275.99 364.411L274.445 362.648L257.992 343.876L196.217 363.384L195.074 363.745L194.077 363.079L165.482 343.997L136.33 363.091L134.669 364.18L133.233 362.807L113.747 344.18L84.8737 363.091L83.317 364.111L81.8936 362.912L59.4502 344.012L39.7638 354.724C55.2522 377.237 74.7064 396.81 97.1181 412.434L106.043 409.616L107.599 409.124L108.676 410.352L124.659 428.589L148.812 410.018L149.877 409.199L151.149 409.636L180.993 419.899L223.824 409.57L225.936 409.061L226.735 411.08L233.68 428.627L274.823 409.728L275.962 409.205L277.062 409.804L312.551 429.115L344.117 409.866L345.304 409.141L346.546 409.769L354.166 413.619C379.322 396.422 400.834 374.285 417.302 348.604ZM349.38 416.803L345.532 414.859L313.923 434.134L312.693 434.885L311.427 434.196L275.772 414.795L233.37 434.272L230.973 435.373L230.002 432.92L222.885 414.939L181.456 424.93L180.747 425.101L180.057 424.864L150.794 414.801L129.449 431.213C158.865 445.183 191.77 453 226.5 453C271.795 453 313.985 439.704 349.38 416.803ZM112.43 422.222L105.992 414.876L102.402 416.009C105.687 418.164 109.03 420.236 112.43 422.222ZM2.51419 192.638L9.55985 188.804L11.0594 187.988L12.3651 189.088L34.6909 207.889L63.6688 188.909L65.3304 187.82L66.7661 189.193L86.2522 207.82L115.125 188.909L116.508 188.003L117.883 188.921L146.855 208.255L209.043 188.616L210.599 188.124L211.676 189.352L227.659 207.589L251.812 189.018L252.877 188.199L254.149 188.636L283.993 198.899L326.824 188.57L328.936 188.061L329.735 190.08L336.68 207.627L377.823 188.728L378.962 188.205L380.062 188.804L415.551 208.115L447.117 188.866L448.304 188.141L449.546 188.769L449.902 188.949C445.686 163.682 437.288 139.832 425.443 118.133L395.923 136.134L394.693 136.885L393.427 136.196L357.772 116.795L315.37 136.272L312.973 137.373L312.002 134.92L304.885 116.939L263.456 126.93L262.747 127.101L262.057 126.864L232.794 116.801L207.849 135.982L205.99 137.411L204.445 135.648L187.992 116.876L126.217 136.384L125.074 136.745L124.077 136.079L95.4823 116.997L66.3303 136.091L64.6687 137.18L63.233 135.807L43.7469 117.18L20.3698 132.491C11.7776 151.301 5.68421 171.491 2.51419 192.638ZM24.5939 123.748L42.6688 111.909L44.3304 110.82L45.7661 112.193L65.2522 130.82L94.1253 111.909L95.508 111.003L96.8829 111.921L125.855 131.255L188.043 111.616L189.599 111.124L190.676 112.352L206.659 130.589L230.812 112.018L231.877 111.199L233.149 111.636L262.993 121.899L305.824 111.57L307.936 111.061L308.735 113.08L315.68 130.627L356.823 111.728L357.962 111.205L359.062 111.804L394.551 131.115L422.997 113.768C411.751 94.2084 397.669 76.4868 381.312 61.1645L372.37 65.2718L369.973 66.3729L369.002 63.9201L361.885 45.9395L320.456 55.9303L319.747 56.1014L319.057 55.8641L289.794 45.8013L264.849 64.9819L262.99 66.411L261.445 64.6478L244.992 45.8756L183.217 65.3839L182.074 65.745L181.077 65.0795L152.482 45.997L123.33 65.0913L121.669 66.1796L120.233 64.8071L100.747 46.1796L71.8737 65.0913L70.317 66.111L68.8936 64.9122L68.2955 64.4086C50.6925 81.5921 35.8778 101.619 24.5939 123.748ZM79.7933 53.927L99.6688 40.9087L101.33 39.8204L102.766 41.1929L122.252 59.8204L151.125 40.9087L152.508 40.003L153.883 40.9205L182.855 60.255L245.043 40.6161L246.599 40.1244L247.676 41.3522L263.659 59.589L287.812 41.0181L288.877 40.1987L290.149 40.6359L319.993 50.8986L357.657 41.8158C320.646 15.4844 275.381 0 226.5 0C170.538 0 119.316 20.2953 79.7933 53.927ZM369.061 50.4831L372.68 59.6271L377.307 57.5017C374.616 55.0981 371.866 52.7577 369.061 50.4831Z" fill="#F3F3F3"/>
<g clip-path="url(#clip0_709_7461)">
<path d="M349.682 307.069C346.452 311.196 342.706 314.42 343.481 315.839C343.481 315.839 345.16 317.129 349.94 317.129C358.079 317.129 366.089 316.484 364.797 315.71C362.989 314.549 357.692 314.162 352.653 312.357C351.362 311.97 355.366 309.519 354.333 309.132C352.008 308.229 350.199 307.585 349.682 307.069Z" fill="black"/>
<path d="M433.526 315.581C433.526 315.581 434.559 317.129 438.693 317.129C445.799 317.129 453.033 316.226 452 315.452C450.45 314.42 438.047 311.841 438.047 311.841L435.334 308.358L430.684 310.938L433.526 315.581Z" fill="black"/>
<path d="M411.176 212.01C406.138 212.01 402.262 210.978 402.004 210.978C399.42 210.205 397.87 207.496 398.516 204.916C399.291 202.337 402.004 200.789 404.587 201.434C404.717 201.434 415.827 204.271 422.416 198.725C426.808 194.985 428.358 188.02 427.325 177.831L426.937 174.606L436.885 168.931C439.21 167.641 442.311 168.415 443.603 170.737C444.895 173.058 444.119 176.154 441.794 177.444L437.402 179.894C438.047 191.76 435.205 200.531 428.746 206.077C423.32 210.849 416.602 212.01 411.176 212.01Z" fill="#F6E098"/>
<path d="M428.358 184.538C428.229 191.76 426.291 196.92 422.674 200.015C415.569 206.077 403.425 202.982 403.166 202.982C400.324 202.208 397.353 203.885 396.578 206.851C395.803 209.689 397.482 212.655 400.324 213.558C400.712 213.687 404.846 215.751 410.401 215.493C431.459 214.719 444.119 196.662 444.378 186.085L428.358 184.538Z" fill="#DBC92A"/>
<path d="M399.421 159.386C397.483 158.483 395.674 157.581 393.865 156.678C376.425 166.609 354.204 179.249 353.688 179.765C353.688 179.765 364.798 197.306 365.444 198.08C365.96 198.596 393.349 178.862 413.115 164.674C408.593 162.869 403.813 161.45 399.421 159.386Z" fill="#9B3211"/>
<path d="M399.678 158.87C404.2 160.934 408.98 162.353 413.631 164.159C424.483 156.291 432.88 150.229 432.88 150.229L414.406 145.07C414.406 145.07 405.492 150.1 394.511 156.42C396.19 157.323 397.87 158.097 399.678 158.87Z" fill="#9B3211"/>
<path d="M367.64 135.783L378.621 165.448L399.937 173.187L372.936 123.788L367.64 135.783Z" fill="#7D1700"/>
<path d="M401.1 180.539H385.339L399.42 205.045L420.866 214.203L401.1 180.539Z" fill="#7D1700"/>
<path d="M420.866 214.203L408.205 192.663L354.204 224.263L343.61 206.206L350.328 98.7657L374.616 84.5779L418.282 158.87L433.009 150.229L445.282 170.994L430.555 179.636L443.215 201.176L420.866 214.203ZM371.903 130.753L370.482 131.527L366.864 188.923L396.061 171.768L371.903 130.753Z" fill="#F2707B"/>
<path d="M325.782 201.305L343.74 206.206L354.333 224.263L335.342 219.491L325.782 201.305Z" fill="#9B3211"/>
<path d="M325.782 201.305L343.74 206.206L350.328 98.7657L333.921 94.7673L325.782 201.305Z" fill="#9B3211"/>
<path d="M333.921 94.7674L350.328 98.7658L374.616 84.578L357.95 79.6768L333.921 94.7674Z" fill="#9B3211"/>
<path d="M369.965 244.126C369.965 244.126 372.549 272.502 372.549 282.433C372.549 282.433 351.879 298.556 346.711 306.939C348.907 308.616 353.17 310.809 356.013 310.68C369.836 297.524 384.951 288.108 384.951 288.108C384.951 288.108 391.54 269.148 393.477 253.155L369.965 244.126Z" fill="black"/>
<path d="M384.822 245.416C389.472 245.416 394.252 244.642 398.257 242.45C396.965 236.775 399.808 220.007 403.425 211.108C403.425 211.108 406.267 204.916 404.329 202.982C396.965 195.888 390.635 196.533 388.697 196.404C381.979 202.079 369.319 218.975 369.836 241.16C373.195 244.771 380.3 245.416 384.822 245.416Z" fill="#DBC92A"/>
<path d="M430.426 311.712C433.139 310.938 435.723 309.777 437.402 307.455C429.393 294.557 400.067 246.964 398.516 243.223C398.516 243.094 398.387 242.965 398.387 242.965C394.124 245.287 388.956 246.061 383.918 245.932C379.525 245.803 373.324 245.158 369.707 241.934C369.707 242.192 369.707 242.45 369.707 242.578C370.353 254.961 411.564 296.363 427.842 312.228C428.747 312.228 429.651 311.97 430.426 311.712Z" fill="#2C2C2C"/>
<path d="M345.29 232.518C344.127 232.518 343.094 232.389 341.931 232.002C339.735 231.228 336.893 229.423 335.472 224.908C334.697 222.329 336.247 219.491 338.831 218.717C341.414 217.943 344.257 219.491 345.032 222.071C345.161 222.329 345.161 222.587 345.29 222.716C345.807 222.716 347.745 222.587 352.525 219.749C356.788 217.298 361.826 213.558 366.736 209.947C375.004 203.885 382.755 198.08 389.215 196.146C391.798 195.372 394.64 196.791 395.416 199.37C396.191 201.95 394.77 204.787 392.186 205.561C387.277 207.109 379.913 212.655 372.678 217.943C362.085 225.682 352.654 232.518 345.29 232.518Z" fill="#F6E098"/>
<path d="M354.592 228.907C353.946 225.94 353.3 222.845 351.491 220.394C347.486 222.587 345.807 222.716 345.29 222.716C345.29 222.587 345.161 222.458 345.032 222.071C344.257 219.491 341.544 217.943 338.831 218.717C336.247 219.491 334.697 222.2 335.472 224.908C336.893 229.552 339.735 231.357 341.931 232.002C342.965 232.389 344.127 232.518 345.29 232.518C348.132 232.518 351.362 231.486 354.721 229.809C354.721 229.423 354.592 229.165 354.592 228.907Z" fill="#F6E098"/>
<path d="M395.287 199.241C394.511 196.662 391.669 195.243 389.085 196.017C382.626 198.08 374.875 203.756 366.606 209.818C361.697 213.429 356.659 217.17 352.396 219.62C352.137 219.749 352.008 219.878 351.879 219.878C353.688 222.329 356.917 234.324 357.046 234.582C362.343 231.873 387.406 212.784 392.832 206.98C394.77 205.174 396.191 201.821 395.287 199.241Z" fill="#DBC92A"/>
<path d="M338.313 228.52C338.055 228.52 337.668 228.391 337.409 228.262C333.533 225.553 331.466 220.136 331.466 219.878C331.208 219.104 331.596 218.33 332.371 218.072C333.146 217.814 333.921 218.201 334.179 218.975C334.179 218.975 335.988 223.747 339.089 225.94C339.735 226.456 339.864 227.359 339.476 228.004C339.218 228.391 338.701 228.52 338.313 228.52Z" fill="#F6E098"/>
<path d="M338.314 225.037C337.797 225.037 337.41 224.779 337.151 224.392C335.343 221.813 333.792 215.493 333.663 214.848C333.534 214.074 333.922 213.3 334.697 213.042C335.472 212.913 336.247 213.3 336.505 214.074C336.893 215.88 338.314 220.781 339.606 222.587C340.123 223.231 339.864 224.134 339.218 224.65C338.96 224.908 338.572 225.037 338.314 225.037Z" fill="#F6E098"/>
<path d="M340.38 224.134C339.863 224.134 339.217 223.748 339.088 223.232C337.796 220.007 337.28 213.171 337.15 212.784C337.15 212.01 337.667 211.236 338.442 211.236C339.217 211.108 339.993 211.752 339.993 212.526C340.122 214.332 340.639 219.62 341.672 222.071C341.93 222.845 341.672 223.619 340.897 224.005C340.639 224.134 340.509 224.134 340.38 224.134Z" fill="#F6E098"/>
<path d="M342.448 223.489C341.802 223.489 341.156 223.103 341.027 222.458C340.123 218.846 340.898 215.235 341.027 215.106C341.156 214.332 342.06 213.816 342.836 214.074C343.611 214.203 344.127 214.977 343.869 215.88C343.869 216.009 343.223 218.975 343.869 221.813C344.127 222.587 343.611 223.361 342.836 223.618C342.706 223.489 342.577 223.489 342.448 223.489Z" fill="#F6E098"/>
<path d="M400.97 207.109C400.325 207.109 399.679 206.98 399.033 206.722C396.707 205.69 395.674 202.853 396.836 200.531C397.999 198.08 400.066 195.63 400.325 195.372C402.004 193.437 404.975 193.179 406.913 194.856C408.851 196.533 409.109 199.499 407.43 201.434C406.784 202.079 405.75 203.627 405.234 204.658C404.329 206.206 402.65 207.109 400.97 207.109Z" fill="#F6E098"/>
<path d="M401.616 204.787C402.133 205.432 402.779 205.948 403.296 206.464C404.071 205.948 404.717 205.303 405.105 204.529C405.621 203.497 406.655 202.079 407.301 201.305C408.98 199.37 408.722 196.404 406.784 194.727C404.846 193.05 401.875 193.308 400.195 195.243C400.066 195.372 399.679 195.759 399.291 196.404C399.291 199.499 399.549 202.595 401.616 204.787Z" fill="#EEC647"/>
<path d="M416.861 199.628C415.052 204.142 409.885 206.206 405.363 204.4C400.841 202.595 398.774 197.435 400.583 192.921L402.908 187.246C404.717 182.732 409.885 180.668 414.406 182.474C418.928 184.28 420.995 189.439 419.186 193.953L416.861 199.628Z" fill="#F6E098"/>
<path d="M401.617 192.276C400.842 195.243 396.578 194.34 394.899 192.792C392.703 190.6 391.282 184.538 396.32 184.795C392.703 179.378 404.847 173.574 406.138 179.765C407.043 178.217 408.076 176.67 410.143 176.541C411.694 176.412 414.277 177.573 414.148 179.507C416.474 177.702 419.703 177.831 421.899 179.636C422.675 180.152 423.967 181.442 423.321 182.474C422.933 182.99 421.124 183.119 420.478 183.377C421.512 182.861 425.904 183.893 425 185.698C424.612 186.601 422.545 185.827 421.899 185.569C421.899 185.569 421.899 185.827 421.899 185.698C424.225 186.988 425.129 188.278 424.871 191.115C424.742 192.405 424.096 194.985 422.545 195.114C421.77 195.243 420.866 194.727 420.866 193.824C422.804 195.759 420.091 200.918 417.636 198.338C416.732 197.307 417.119 195.63 418.024 194.856C416.603 194.082 413.502 189.697 415.698 188.407C414.665 188.407 409.885 186.859 411.306 185.44C411.694 186.988 409.756 189.181 408.076 188.278C409.11 190.471 406.138 192.018 404.33 192.147C405.363 193.566 402.004 195.114 400.971 193.179L401.617 192.276Z" fill="#2C2C2C"/>
<path d="M236.383 174.735C236.383 174.735 233.54 163.901 247.622 161.321L246.459 174.348L236.383 174.735Z" fill="#EEC647"/>
<path d="M180.185 202.079C177.084 202.079 174.242 201.434 171.658 200.273C158.998 194.211 157.577 176.283 157.448 175.509C157.318 172.8 159.256 170.479 161.969 170.221C164.682 170.092 167.008 172.026 167.266 174.735C167.524 178.346 169.591 188.407 175.792 191.373C180.96 193.824 188.841 191.373 198.788 184.28C200.984 182.732 204.085 183.248 205.635 185.44C207.185 187.633 206.669 190.729 204.472 192.276C195.429 198.725 187.29 202.079 180.185 202.079Z" fill="#DBC92A"/>
<path d="M206.54 211.236C207.961 207.625 209.253 204.013 210.674 200.402C209.64 200.273 208.607 200.144 207.702 200.015C202.922 199.112 198.788 197.177 195.558 194.211C192.2 191.244 189.616 187.504 187.807 182.861C185.998 178.346 184.965 173.058 184.707 167.254C184.448 161.45 184.836 155.259 186.128 148.81C187.42 142.232 189.228 136.299 191.683 131.011C194.137 125.722 196.98 121.337 200.338 117.726C203.697 114.114 207.444 111.535 211.707 109.987C215.841 108.439 220.363 108.181 225.143 109.084C228.889 109.858 232.248 111.277 235.22 113.34C236.641 110.503 238.191 107.794 239.612 105.086C241.291 101.861 242.842 98.5077 244.392 95.2832C245.038 93.8644 245.555 92.4456 246.201 90.8979C241.291 88.1893 235.866 86.1256 229.794 84.9648C221.267 83.2881 213.128 83.675 205.635 85.8677C198.142 88.0603 191.295 91.9297 185.223 97.2179C179.151 102.506 173.984 109.084 169.85 117.081C165.587 125.078 162.615 133.977 160.677 143.78C158.739 153.582 158.352 162.998 159.256 172.026C160.29 181.055 162.486 189.052 166.232 196.146C169.85 203.239 174.888 209.302 181.089 214.203C186.903 218.717 193.621 221.813 201.501 223.618C203.181 219.62 204.86 215.493 206.54 211.236Z" fill="#9B3211"/>
<path d="M273.459 137.073C272.426 128.044 270.23 120.047 266.483 112.954C262.866 105.86 257.828 99.7976 251.756 94.8964C250.076 93.6066 248.397 92.4457 246.459 91.2849C245.942 92.7037 245.296 94.2515 244.65 95.6702C243.1 99.0237 241.55 102.248 239.87 105.473C238.449 108.181 236.899 111.019 235.478 113.856C235.995 114.243 236.511 114.63 236.899 115.017C240.258 117.984 242.842 121.724 244.65 126.367C246.588 131.011 247.622 136.17 247.88 141.845C248.138 147.649 247.751 153.84 246.459 160.418C245.167 166.867 243.358 172.8 240.904 178.088C238.449 183.377 235.607 187.891 232.119 191.373C228.631 194.985 224.884 197.564 220.621 199.112C217.52 200.273 214.291 200.789 210.932 200.531C209.252 204.4 207.96 208.399 206.41 212.397C204.989 216.267 203.31 220.136 201.501 223.876C201.889 224.005 202.276 224.005 202.664 224.134C211.19 225.811 219.329 225.424 226.822 223.231C234.315 221.039 241.162 217.169 247.234 211.881C253.306 206.593 258.473 200.015 262.608 192.018C266.871 184.022 269.842 175.122 271.78 165.319C273.976 155.388 274.493 146.101 273.459 137.073Z" fill="#7D1700"/>
<path d="M218.166 229.293C209.64 227.617 202.276 224.392 196.075 219.491C189.874 214.59 184.965 208.657 181.347 201.434C177.73 194.34 175.405 186.214 174.371 177.314C173.338 168.286 173.855 158.999 175.792 149.068C177.73 139.265 180.702 130.366 184.965 122.369C189.228 114.372 194.266 107.794 200.338 102.506C206.41 97.2178 213.128 93.4774 220.75 91.1557C228.243 88.9631 236.382 88.5761 244.909 90.2529C253.435 91.9296 260.799 95.1541 267 100.055C273.201 104.957 278.11 110.89 281.857 118.113C285.474 125.206 287.799 133.332 288.833 142.232C289.867 151.26 289.35 160.547 287.412 170.478C285.474 180.281 282.503 189.181 278.239 197.177C273.976 205.174 268.938 211.752 262.866 217.04C256.794 222.328 250.076 226.069 242.454 228.391C234.703 230.583 226.693 230.841 218.166 229.293ZM222.688 205.174C227.339 206.077 231.731 205.69 235.995 204.142C240.129 202.595 244.004 200.015 247.492 196.403C250.981 192.792 253.823 188.407 256.277 183.119C258.732 177.83 260.541 171.897 261.832 165.448C263.124 158.87 263.512 152.679 263.254 146.875C262.995 141.071 261.832 135.912 260.024 131.398C258.086 126.754 255.502 123.014 252.272 120.047C248.914 117.081 244.909 115.146 240.258 114.243C235.478 113.34 230.956 113.598 226.822 115.146C222.688 116.694 218.812 119.273 215.453 122.885C212.095 126.496 209.252 130.882 206.798 136.17C204.343 141.458 202.535 147.391 201.243 153.969C199.951 160.418 199.563 166.609 199.822 172.413C200.08 178.217 201.113 183.376 202.922 188.02C204.731 192.534 207.315 196.403 210.673 199.37C213.903 202.337 217.908 204.271 222.688 205.174Z" fill="#F2707B"/>
<path d="M305.37 156.807L305.758 174.993C305.758 174.993 300.59 179.636 295.939 174.993L297.619 154.614L305.37 156.807Z" fill="#2C2C2C"/>
<path d="M283.924 301.522C283.666 301.264 281.599 300.361 281.34 300.104C280.307 301.78 279.532 302.683 278.24 303.973C281.47 306.81 280.565 310.164 280.565 310.164C280.565 310.164 278.24 312.099 277.465 312.486C274.623 313.904 269.455 315.839 269.455 315.839L282.632 316.871L292.322 306.939C288.833 305.005 286.121 303.328 283.924 301.522Z" fill="black"/>
<path d="M232.507 302.296C230.44 301.909 227.727 303.586 226.048 302.296C225.66 305.908 225.79 307.971 225.79 307.971L206.411 315.968H231.215C231.474 313.389 230.957 310.809 231.345 308.358C231.345 306.94 232.249 303.457 232.507 302.296Z" fill="black"/>
<path d="M255.116 214.203L233.153 255.863C233.153 255.863 242.067 263.344 250.852 265.924L267.259 216.782L255.116 214.203Z" fill="#DBC92A"/>
<path d="M279.145 305.005C280.436 303.715 281.599 302.038 282.633 300.362C276.948 295.46 274.235 290.43 266.484 281.917C263.254 278.306 271.781 257.927 273.848 254.445C277.594 248.254 278.111 243.868 280.953 233.292L259.508 241.289C254.34 259.604 248.398 277.79 254.469 286.561C260.8 295.718 271.91 303.199 277.336 306.94C277.465 307.069 279.015 304.876 279.145 305.005Z" fill="black"/>
<path d="M242.972 172.671C242.713 172.671 242.326 172.542 242.067 172.413C241.422 171.897 241.292 170.994 241.68 170.35C243.359 167.899 243.747 165.964 243.747 165.964C243.876 165.19 244.651 164.674 245.426 164.803C246.202 164.932 246.718 165.706 246.589 166.48C246.589 166.609 246.072 169.06 244.005 172.026C243.876 172.413 243.489 172.671 242.972 172.671Z" fill="#F6E098"/>
<path d="M279.403 237.806C285.734 220.265 291.289 192.792 293.227 181.829C292.064 181.313 291.03 181.055 290.126 180.797C288.188 180.281 285.992 179.636 284.054 180.281C283.021 180.539 282.245 181.055 281.341 181.571C280.566 183.893 280.178 185.956 280.178 185.956C280.178 185.956 266.484 212.139 257.57 229.939C265.063 231.744 272.556 234.195 279.403 237.806Z" fill="#F6EE9E"/>
<path d="M257.312 230.583C256.537 232.131 255.761 233.679 255.116 235.098C253.307 238.193 251.498 241.031 249.69 243.868C231.991 270.438 225.402 291.591 224.239 301.651C225.919 302.941 232.249 303.715 234.445 304.102C237.675 287.463 246.201 276.887 261.317 264.376C266.355 260.249 270.231 254.831 273.59 250.446C275.527 247.867 277.594 243.61 279.403 238.451C272.298 234.711 264.805 232.26 257.312 230.583Z" fill="#2C2C2C"/>
<path d="M240.13 237.935C238.063 237.935 236.125 236.645 235.479 234.582C234.575 232.002 235.996 229.165 238.58 228.262C244.522 226.198 253.824 217.943 260.025 209.173C272.556 191.373 281.47 181.442 281.858 181.055C283.667 178.991 286.767 178.862 288.834 180.668C290.901 182.474 291.03 185.569 289.222 187.633C289.093 187.762 280.308 197.564 268.164 214.848C262.092 223.489 251.24 234.324 241.939 237.548C241.163 237.806 240.647 237.935 240.13 237.935Z" fill="#F6E098"/>
<path d="M289.738 183.506C289.609 183.506 289.48 183.506 289.351 183.506C286.767 183.377 284.829 181.055 285.088 178.475C285.346 175.767 286.379 172.8 286.379 172.413C287.155 169.963 289.868 168.673 292.322 169.576C294.777 170.35 296.069 173.058 295.164 175.509C294.906 176.412 294.389 178.088 294.26 179.249C294.26 181.7 292.193 183.506 289.738 183.506Z" fill="#F6E098"/>
<path d="M291.159 178.604C291.934 179.507 292.838 180.41 293.872 181.184C294.259 180.539 294.389 179.894 294.518 179.249C294.647 178.088 295.035 176.412 295.422 175.509C296.197 173.058 294.905 170.479 292.58 169.576C290.513 168.931 288.446 169.705 287.283 171.252C287.542 173.961 289.609 176.928 291.159 178.604Z" fill="#EEC647"/>
<path d="M303.174 168.544C303.044 173.445 299.039 177.186 294.13 177.186C289.221 177.057 285.475 173.058 285.475 168.157L285.604 162.095C285.733 157.194 289.738 153.453 294.647 153.453C299.556 153.582 303.303 157.581 303.303 162.482L303.174 168.544Z" fill="#F6E098"/>
<path d="M233.153 236.516C231.086 236.516 228.761 236.001 226.177 234.84C225.402 234.582 225.143 233.679 225.402 232.905C225.66 232.131 226.564 231.873 227.339 232.131C231.215 233.679 234.186 233.937 236.124 232.776C236.77 232.389 237.675 232.518 238.062 233.292C238.45 233.937 238.321 234.84 237.545 235.227C236.383 236.13 234.832 236.516 233.153 236.516Z" fill="#F6E098"/>
<path d="M234.962 238.58C232.636 238.58 230.828 238.193 228.631 237.677L227.985 237.548C227.21 237.419 226.694 236.516 226.952 235.742C227.081 234.969 227.986 234.453 228.761 234.711L229.407 234.84C232.895 235.742 235.22 236.258 240.388 234.969C241.163 234.711 241.938 235.227 242.196 236C242.455 236.774 241.938 237.548 241.163 237.806C238.579 238.322 236.641 238.58 234.962 238.58Z" fill="#F6E098"/>
<path d="M233.024 233.679C228.502 233.679 225.273 230.841 225.144 230.712C224.498 230.196 224.498 229.294 225.014 228.649C225.531 228.004 226.435 228.004 227.081 228.52C227.211 228.649 230.57 231.615 235.091 230.454C235.866 230.196 236.641 230.712 236.9 231.486C237.158 232.26 236.641 233.034 235.866 233.292C234.962 233.55 233.928 233.679 233.024 233.679Z" fill="#F6E098"/>
<path d="M236.125 232.131H235.996C231.086 231.615 229.019 228.004 228.89 227.875C228.503 227.23 228.761 226.327 229.407 225.94C230.053 225.553 230.957 225.811 231.345 226.456C231.474 226.585 232.766 228.907 236.125 229.294C236.9 229.423 237.546 230.067 237.417 230.841C237.417 231.486 236.9 232.131 236.125 232.131Z" fill="#F6E098"/>
<path d="M253.436 174.735C253.307 174.735 253.307 174.735 253.177 174.735C250.723 174.348 244.134 173.316 242.713 173.316C241.938 173.316 241.292 172.671 241.292 171.897C241.292 171.123 241.938 170.479 242.713 170.479C244.78 170.479 252.79 171.768 253.694 171.897C254.469 172.026 254.986 172.8 254.857 173.574C254.857 174.219 254.211 174.735 253.436 174.735Z" fill="#F6E098"/>
<path d="M252.532 177.831C252.403 177.831 252.274 177.831 252.145 177.831C252.015 177.831 245.168 175.896 241.939 175.767C241.164 175.767 240.518 174.993 240.518 174.219C240.518 173.445 241.293 172.8 242.068 172.8C245.556 173.058 252.532 174.864 252.92 174.993C253.695 175.251 254.212 176.025 253.953 176.799C253.824 177.315 253.178 177.831 252.532 177.831Z" fill="#F6E098"/>
<path d="M251.886 180.926C251.756 180.926 251.627 180.926 251.498 180.797C244.909 178.733 243.359 178.604 242.455 178.475C242.067 178.475 241.68 178.475 241.292 178.346C240.517 178.088 240 177.314 240.259 176.541C240.517 175.767 241.292 175.251 242.067 175.509C242.326 175.509 242.455 175.638 242.713 175.638C243.747 175.767 245.555 175.896 252.402 178.088C253.178 178.346 253.565 179.12 253.307 179.894C253.048 180.539 252.532 180.926 251.886 180.926Z" fill="#F6E098"/>
<path d="M248.915 183.248C242.197 182.732 241.938 179.249 241.938 178.862L244.91 178.733C244.91 178.733 244.91 178.733 244.91 178.604C244.91 178.604 245.168 180.023 249.044 180.281C249.819 180.281 250.465 181.055 250.336 181.829C250.336 182.732 249.69 183.248 248.915 183.248Z" fill="#F6E098"/>
<path d="M243.488 181.571C243.488 181.571 242.196 180.926 240.258 180.926C238.579 180.926 236.383 178.088 236.383 175.251C236.383 175.251 235.608 166.738 244.651 170.608L243.488 181.571Z" fill="#F6E098"/>
<path d="M272.039 206.98L259.379 269.406C259.379 269.406 279.016 274.179 291.159 267.214L294.26 180.41C294.131 180.539 280.566 175.767 272.039 206.98Z" fill="#DBC92A"/>
<path d="M275.01 241.418L287.154 240.773C287.154 240.773 287.412 259.346 280.178 258.572C280.178 258.572 270.23 260.765 275.01 241.418Z" fill="#DBC92A"/>
<path d="M290.255 178.991C288.963 177.83 287.155 177.186 285.346 177.186C283.279 177.186 281.341 178.088 279.92 179.636C279.533 180.023 270.619 189.955 257.958 208.012C257.183 209.173 256.149 210.333 255.245 211.623L253.953 213.171L255.374 214.59C256.924 216.138 258.475 217.685 260.025 219.233C260.8 220.007 261.704 220.91 262.48 221.684L264.288 223.489L265.968 221.555C267.389 219.878 268.81 218.072 269.973 216.395C282.116 199.241 290.772 189.439 290.901 189.439C293.485 186.343 293.227 181.7 290.255 178.991Z" fill="#DBC92A"/>
<path d="M256.924 207.419L252.003 212.888L264.785 224.352L269.706 218.883L256.924 207.419Z" fill="#F8FDFF"/>
<path d="M276.69 172.026L287.93 176.412C287.93 176.412 292.71 153.324 289.222 149.842C289.222 149.842 276.69 148.681 276.69 172.026Z" fill="#2C2C2C"/>
<path d="M289.868 153.84C290.255 154.485 298.911 160.16 305.758 158.612C305.758 158.612 304.595 148.423 288.705 149.842L289.868 153.84Z" fill="#2C2C2C"/>
<path d="M296.585 164.804C296.585 167.512 294.389 169.705 291.676 169.705C288.963 169.705 286.767 167.512 286.767 164.804C286.767 162.095 288.963 159.902 291.676 159.902C294.389 159.902 296.585 162.095 296.585 164.804Z" stroke="#DDDD67" stroke-width="0.8679" stroke-miterlimit="10"/>
<path d="M307.567 165.706C307.567 168.028 305.629 169.963 303.303 169.963C300.978 169.963 299.04 168.028 299.04 165.706C299.04 163.385 300.978 161.45 303.303 161.45C305.629 161.45 307.567 163.385 307.567 165.706Z" stroke="#DDDD67" stroke-width="0.755" stroke-miterlimit="10"/>
<path d="M296.585 164.804C296.585 164.804 298.135 164.159 299.169 165.19" stroke="#DDDD67" stroke-width="0.8679" stroke-miterlimit="10"/>
<path d="M155.122 173.316C154.993 173.316 154.864 173.316 154.735 173.316C152.151 173.187 150.213 170.865 150.471 168.286C150.73 165.577 151.763 162.611 151.763 162.224C152.538 159.773 155.251 158.483 157.706 159.386C160.161 160.16 161.452 162.869 160.548 165.319C160.29 166.222 159.773 167.899 159.644 169.06C159.515 171.381 157.448 173.316 155.122 173.316Z" fill="#EEC647"/>
<path d="M152.28 302.167C160.032 305.779 166.362 305.65 166.879 305.779C171.917 296.879 187.032 272.631 173.209 252.897L153.701 242.45C153.831 242.321 173.209 262.699 152.28 302.167Z" fill="black"/>
<path d="M162.357 310.164C162.357 310.164 164.165 306.553 165.586 304.102C164.553 303.973 159.773 303.844 157.835 303.07C156.026 306.81 152.022 312.228 149.309 315.968H175.534L162.357 310.164Z" fill="black"/>
<path d="M194.783 253.929C191.554 247.609 167.912 228.649 165.716 217.685C165.587 216.782 165.328 215.751 165.199 214.719C161.453 216.782 156.414 217.298 152.539 217.427C148.146 217.685 145.433 217.943 141.17 215.88C141.557 222.587 140.395 229.165 144.4 236C152.28 249.672 178.376 261.281 181.219 265.795C186.903 274.694 188.97 293.912 190.908 305.65C194.008 305.65 201.243 305.521 204.214 304.489C203.31 298.556 204.989 273.792 194.783 253.929Z" fill="#2C2C2C"/>
<path d="M202.922 309.003C202.922 309.003 202.018 305.521 201.759 303.973C198.788 305.005 196.979 303.973 193.879 303.973C194.396 306.939 194.008 312.357 194.266 315.581H219.071L202.922 309.003Z" fill="black"/>
<path d="M152.797 221.168C156.544 221.039 164.553 220.007 167.654 216.783C167.008 211.623 164.683 203.24 165.458 196.533C168.171 173.832 157.06 166.996 157.06 166.996C157.06 166.996 151.893 163.385 147.759 167.641C141.558 174.09 135.357 192.276 136.003 219.104C140.524 221.426 148.275 221.297 152.797 221.168Z" fill="#DBC92A"/>
<path d="M209.77 228.262C209.382 228.262 208.995 228.262 208.607 228.133C190.65 224.005 175.535 213.3 164.683 197.177C156.544 185.053 153.831 174.219 153.702 173.832C153.056 171.252 154.606 168.544 157.319 167.899C159.903 167.254 162.616 168.802 163.262 171.51C163.262 171.768 165.845 181.442 173.08 192.147C182.511 206.206 195.301 215.106 210.803 218.717C213.516 219.362 215.067 221.942 214.55 224.65C214.162 226.714 212.095 228.262 209.77 228.262Z" fill="#F6E098"/>
<path d="M198.918 213.429C189.099 208.786 180.702 201.305 173.984 191.373C166.879 180.797 164.295 171.123 164.295 170.994C163.649 168.415 161.323 166.609 158.61 166.609C158.094 166.609 157.706 166.609 157.189 166.738C155.639 167.125 154.476 168.028 153.572 169.447C152.797 170.736 152.539 172.284 152.926 173.832V173.961C153.701 177.314 156.802 188.923 164.036 199.886C172.692 212.913 184.578 222.586 198.142 228.004C198.272 228.004 198.401 228.004 198.401 228.004C198.53 228.004 198.788 228.004 198.918 227.875C199.176 227.746 199.305 227.488 199.305 227.101V214.074C199.434 213.945 199.176 213.558 198.918 213.429Z" fill="#DBC92A"/>
<path d="M213.516 228.648C211.966 228.648 210.286 228.52 208.477 228.133C207.702 228.004 207.186 227.23 207.315 226.456C207.444 225.682 208.219 225.166 208.994 225.295C213.387 226.198 216.875 225.811 219.717 224.392C220.363 224.005 221.267 224.263 221.655 225.037C222.042 225.682 221.784 226.585 221.009 226.972C218.942 228.004 216.358 228.648 213.516 228.648Z" fill="#F6E098"/>
<path d="M213.645 225.424C212.999 225.424 212.224 225.424 211.578 225.295C210.803 225.166 210.286 224.392 210.286 223.618C210.415 222.845 211.19 222.329 211.966 222.329C216.616 222.973 220.88 220.652 221.009 220.523C221.655 220.136 222.559 220.394 222.947 221.039C223.334 221.684 223.076 222.587 222.43 222.973C222.301 223.231 218.425 225.424 213.645 225.424Z" fill="#F6E098"/>
<path d="M212.353 222.586C212.095 222.586 211.836 222.586 211.707 222.586C210.932 222.586 210.286 221.813 210.286 221.039C210.286 220.265 211.061 219.62 211.836 219.62C215.325 219.878 217.133 217.685 217.133 217.685C217.65 217.04 218.554 216.911 219.2 217.427C219.846 217.943 219.975 218.846 219.459 219.491C219.329 219.62 217.004 222.586 212.353 222.586Z" fill="#F6E098"/>
<path d="M207.445 220.136C206.669 220.136 206.023 219.491 206.023 218.717C206.023 217.943 206.669 217.298 207.445 217.298C207.574 217.298 210.416 217.169 212.095 214.848C212.612 214.203 213.516 214.074 214.162 214.461C214.808 214.977 214.938 215.88 214.55 216.524C211.837 220.007 207.574 220.136 207.445 220.136Z" fill="#F6E098"/>
<path d="M202.664 187.375C202.147 187.375 201.759 187.117 201.501 186.73C199.305 183.763 198.917 181.184 198.917 181.184C198.788 180.41 199.305 179.636 200.08 179.507C200.855 179.378 201.63 179.894 201.759 180.668C201.759 180.668 202.147 182.603 203.826 185.053C204.343 185.698 204.085 186.601 203.439 187.117C203.18 187.246 202.922 187.375 202.664 187.375Z" fill="#F6E098"/>
<path d="M202.923 188.02C202.794 188.02 202.794 188.02 202.665 188.02C199.435 187.375 193.234 187.375 193.105 187.375C192.33 187.375 191.684 186.73 191.684 185.956C191.684 185.182 192.33 184.537 193.105 184.537C193.363 184.537 199.693 184.537 203.181 185.182C203.957 185.311 204.473 186.085 204.344 186.859C204.215 187.504 203.569 188.02 202.923 188.02Z" fill="#F6E098"/>
<path d="M192.329 190.986C191.554 190.986 191.037 190.47 190.908 189.697C190.779 188.923 191.425 188.149 192.2 188.02C193.104 187.891 201.243 186.859 203.956 187.375C204.731 187.504 205.248 188.278 205.119 189.052C204.99 189.826 204.215 190.341 203.439 190.212C201.76 189.954 195.947 190.47 192.588 190.857C192.458 190.986 192.329 190.986 192.329 190.986Z" fill="#F6E098"/>
<path d="M194.138 194.211C193.492 194.211 192.846 193.695 192.717 193.05C192.588 192.276 193.105 191.502 193.88 191.373C197.368 190.728 198.401 190.341 200.081 189.825C200.856 189.568 201.89 189.31 203.311 188.794C204.086 188.536 204.861 189.052 205.119 189.825C205.378 190.599 204.861 191.373 204.086 191.631C202.665 192.018 201.76 192.405 200.856 192.663C199.047 193.179 198.014 193.566 194.397 194.34C194.397 194.211 194.267 194.211 194.138 194.211Z" fill="#F6E098"/>
<path d="M197.368 196.533C196.722 196.533 196.076 196.017 195.947 195.372C195.817 194.598 196.334 193.824 197.109 193.695C201.76 192.921 202.794 191.116 202.794 191.116C203.052 190.342 203.827 189.955 204.602 190.213C205.377 190.471 205.765 191.244 205.507 192.018C205.377 192.534 204.085 195.501 197.626 196.533C197.497 196.533 197.368 196.533 197.368 196.533Z" fill="#F6E098"/>
<path d="M202.922 194.856L201.76 182.99C201.76 182.99 206.927 183.377 206.927 188.794C207.057 190.6 206.54 192.663 202.922 194.856Z" fill="#F6E098"/>
<path d="M170.238 156.291C171.53 161.192 168.558 166.351 163.649 167.641C158.74 168.931 153.572 165.964 152.281 161.063L150.601 154.872C149.309 149.971 152.281 144.812 157.19 143.522C162.099 142.232 167.267 145.198 168.558 150.1L170.238 156.291Z" fill="#F6E098"/>
<path d="M169.333 152.937C168.687 154.872 167.653 156.807 166.103 158.225C162.357 161.45 156.672 162.353 152.021 160.418L152.151 161.063C153.443 165.964 158.61 168.931 163.519 167.641C168.429 166.351 171.4 161.192 170.108 156.291L169.333 152.937Z" fill="#2C2C2C"/>
<path d="M152.151 160.676C148.663 158.484 144.916 149.971 150.342 148.036C153.701 146.875 152.409 157.323 152.409 160.289L152.151 160.676Z" fill="#2C2C2C"/>
<path d="M149.438 148.81C145.174 145.714 150.471 137.073 160.936 137.073C167.395 137.073 167.395 141.974 162.873 144.683C159.127 146.875 153.443 145.585 150.6 149.326L149.438 148.81Z" fill="#2C2C2C"/>
<path d="M169.333 154.872C167.912 152.679 164.94 148.165 163.778 145.586C163.003 143.909 162.098 141.2 165.328 143.135C168.041 144.812 169.462 150.616 169.333 153.453V154.872Z" fill="#2C2C2C"/>
<path d="M95.696 175.509C94.1457 176.928 92.3371 178.346 90.916 180.023L69.9873 223.747L85.6192 203.627L102.155 169.318C99.9592 171.511 97.8922 173.574 95.696 175.509Z" fill="#7D1700"/>
<path d="M83.1639 168.286C84.7142 166.222 86.1353 163.772 87.9439 161.579L51.2542 143.78L16.373 147.262L77.4796 175.38C79.4174 173.058 81.4845 170.737 83.1639 168.286Z" fill="#7D1700"/>
<path d="M88.4614 161.966C86.5236 164.417 84.9733 167.254 83.0355 169.576C81.356 171.64 79.6765 173.703 77.9971 175.638L105.773 188.407L115.85 175.251L88.4614 161.966Z" fill="#9B3211"/>
<path d="M46.6038 212.784L57.4557 190.213L1 163.256L10.0433 144.425L102.93 89.7373L128.252 101.861L91.045 179.636L106.419 186.988L95.9542 208.786L80.5806 201.434L69.8579 223.877L46.6038 212.784ZM88.4612 125.594L87.0401 124.949L37.3022 153.969L67.7909 168.544L88.4612 125.594Z" fill="#F2707B"/>
<path d="M106.418 186.988L115.849 175.251L108.485 191.502L95.6953 209.431L106.418 186.988Z" fill="#7D1700"/>
<path d="M102.801 168.802L139.491 88.5764L128.381 101.861L91.0449 179.636C92.0784 178.604 102.284 169.318 102.801 168.802Z" fill="#7D1700"/>
<path d="M10.043 144.425L26.5792 129.979L117.399 78L102.93 89.7372L10.043 144.425Z" fill="#7D1700"/>
<path d="M102.931 89.7372L128.381 101.861L139.491 88.5764L117.4 78L102.931 89.7372Z" fill="#9B3211"/>
<path d="M71.796 148.294C68.6955 146.101 66.4993 147.004 65.0782 147.262C63.3987 147.52 62.236 146.617 62.236 146.617C61.5901 146.23 60.6857 146.359 60.169 147.004C59.7814 147.649 59.9106 148.552 60.5565 149.068C60.6857 149.068 61.8484 149.971 64.1739 150.487C61.8484 152.808 59.2647 155.388 59.1355 155.517C58.6187 156.162 58.6187 157.065 59.2647 157.581C59.523 157.839 59.9106 157.968 60.2982 157.968C60.6857 157.968 61.0733 157.839 61.3317 157.452C61.3317 157.452 63.1403 155.517 64.949 153.711C63.1403 155.904 61.4609 158.226 61.2025 158.741C60.6857 159.386 60.9441 160.289 61.5901 160.805C61.8484 160.934 62.1068 161.063 62.4944 161.063C62.882 161.063 63.3987 160.805 63.6571 160.418C64.5614 159.128 65.9825 157.323 67.2744 155.646C66.7576 156.549 66.2409 157.71 64.949 159.644C64.5614 160.289 64.6906 161.192 65.4657 161.708C65.7241 161.837 65.9825 161.966 66.2409 161.966C66.7576 161.966 67.1452 161.708 67.5328 161.321C68.0495 160.547 68.4371 159.902 68.8247 159.257C68.5663 159.902 68.8247 160.676 69.3414 161.063C69.5998 161.192 69.8582 161.321 70.1166 161.321C70.6333 161.321 71.0209 161.063 71.2793 160.676C72.7003 158.612 73.3463 156.936 73.6047 155.517C74.3798 151.39 73.3463 149.455 71.796 148.294ZM68.9539 158.612C69.4706 157.71 69.729 157.194 70.1166 156.549C69.8582 157.065 69.4706 157.71 68.9539 158.612Z" fill="#F6E098"/>
<path d="M27.3547 164.804C22.7038 164.546 16.1152 173.574 22.9622 176.025C16.7611 175.896 15.2109 184.666 20.8952 186.988C10.9476 185.053 12.1103 197.951 16.7611 202.595C13.5314 202.079 10.3017 205.174 10.8184 208.399C11.3352 211.752 12.6271 216.396 20.8952 218.846C29.1633 221.297 34.2017 216.653 38.3358 212.268C40.9195 217.685 53.9677 210.333 52.5466 204.013C57.4558 205.69 61.8482 200.144 61.9774 195.759C62.1066 191.373 59.0061 188.149 56.1639 185.311C58.2309 183.506 58.6185 180.023 58.1017 177.315C57.1974 172.929 51.7715 172.542 51.7715 169.06C51.7715 167.899 52.0298 164.03 50.9963 162.353C49.3169 159.644 46.4747 157.065 42.8574 158.354C27.3547 151.132 27.3547 164.804 27.3547 164.804Z" fill="#2C2C2C"/>
<path d="M36.2683 305.779C32.1342 305.005 31.3591 305.263 27.225 304.231L17.665 315.968H54.8716L33.1678 310.164L36.2683 305.779Z" fill="black"/>
<path d="M105.514 309.132L103.318 306.295C101.38 307.584 99.3127 308.616 96.9873 309.39L102.801 315.968H124.634L105.514 309.132Z" fill="black"/>
<path d="M23.2207 305.779C27.3548 306.811 31.618 307.842 35.7521 308.616L66.4991 270.825L61.2024 255.864L39.7569 231.099L45.958 266.182L23.2207 305.779Z" fill="black"/>
<path d="M65.078 220.652C56.6807 218.459 45.1829 221.297 37.0439 224.392C37.0439 224.392 42.0823 244.384 45.4413 250.317C55.0013 267.73 96.7294 311.067 96.7294 311.067C99.0548 310.293 103.447 307.069 105.385 305.779L65.078 220.652Z" fill="#2C2C2C"/>
<path d="M35.8807 232.131C44.0197 229.036 60.2975 223.876 68.6948 226.069C68.6948 226.069 57.5846 200.015 52.5462 194.34C49.1873 190.471 30.584 179.507 30.584 193.824C30.584 213.3 35.8807 232.131 35.8807 232.131Z" fill="#DBC92A"/>
<path d="M43.1156 192.534C42.9864 192.534 42.8572 192.663 42.728 192.663C40.2734 193.308 37.6896 191.889 37.0437 189.439C36.3977 186.859 36.2686 183.635 36.2686 183.248C36.2686 180.668 38.3356 178.604 40.9194 178.604C43.5032 178.604 45.5702 180.668 45.5702 183.248C45.5702 184.151 45.6994 185.956 45.9578 187.117C46.7329 189.31 45.441 191.76 43.1156 192.534Z" fill="#F6E098"/>
<path d="M46.2159 187.891C46.2159 187.504 46.2159 187.246 46.0867 186.859C45.8283 185.827 45.6991 184.022 45.6991 182.99C45.6991 180.41 43.6321 178.346 41.0483 178.346C38.4645 178.346 36.3975 180.41 36.3975 182.99C36.3975 182.99 36.3975 183.248 36.3975 183.377C38.5937 186.214 42.4694 187.375 46.2159 187.891Z" fill="#EEC647"/>
<path d="M50.7378 174.09C52.2881 178.733 49.7043 183.635 45.0535 185.182C40.4027 186.73 35.4935 184.151 33.9432 179.507L32.0054 173.703C30.4551 169.06 33.0389 164.159 37.6897 162.611C42.3405 161.063 47.2497 163.643 48.8 168.286L50.7378 174.09Z" fill="#F6E098"/>
<path d="M102.543 169.318C102.414 169.189 102.156 169.06 101.897 169.06C102.156 168.802 102.285 168.544 102.543 168.286C103.06 167.641 103.06 166.738 102.414 166.222C102.285 166.093 102.285 166.093 102.156 166.093C102.543 165.448 102.543 164.675 101.897 164.159C101.51 163.772 100.864 163.643 100.347 163.901C100.993 163.256 101.381 162.74 101.51 162.74C102.027 162.095 102.027 161.192 101.381 160.676C100.735 160.16 99.8303 160.16 99.3135 160.805C99.3135 160.805 96.0838 164.417 92.8541 166.222C91.433 164.03 89.4951 163.385 89.4951 163.256C88.72 162.998 87.9449 163.385 87.6865 164.03C87.4281 164.803 87.8157 165.577 88.4616 165.964C88.4616 165.964 89.6243 166.48 90.5287 167.77C90.3995 168.157 90.2703 168.544 90.1411 169.06C68.954 198.08 40.6616 187.891 39.3697 187.375C36.7859 186.343 33.9437 187.633 33.0394 190.213C32.0059 192.792 33.2978 195.63 35.8816 196.662C36.2691 196.791 43.1162 199.37 53.0637 199.37C55.0016 199.37 57.1978 199.241 59.394 198.983C70.1167 197.693 85.8778 191.631 98.5384 175.38C98.7968 175.251 99.0552 175.122 99.4427 174.735C99.7011 174.606 99.9595 174.348 100.218 174.219C100.993 173.574 101.897 172.671 102.931 171.51C103.318 170.737 103.189 169.834 102.543 169.318Z" fill="#F6E098"/>
<path d="M63.1402 187.375L61.9774 187.633C59.0061 188.278 56.0347 188.536 52.9342 188.536C45.4412 188.536 40.2736 186.601 39.6277 186.472C38.9817 186.214 38.2066 186.085 37.5607 186.085C35.1061 186.085 33.039 187.504 32.1347 189.826C31.618 191.244 31.4888 192.921 32.2639 194.211C35.1061 199.241 42.8574 201.305 52.9342 201.305C55.1304 201.305 57.1974 201.176 59.3937 200.918C60.6856 200.789 61.9774 200.531 63.3985 200.273L64.3029 200.015C64.3029 200.015 63.1402 196.404 62.8818 192.663C62.7526 191.373 63.1402 187.375 63.1402 187.375Z" fill="#DBC92A"/>
<path d="M32.0053 178.346C35.1059 176.412 36.1394 172.8 35.7518 169.189C38.4648 170.995 40.5318 169.834 42.2113 166.738C47.2497 173.832 55.001 163.256 44.5367 159.515C36.1394 156.42 27.8713 164.804 29.9383 173.187L32.0053 178.346Z" fill="#2C2C2C"/>
</g>
<path d="M187.697 386.396C185.201 386.396 183.005 385.856 181.109 384.776C179.237 383.672 177.773 382.148 176.717 380.204C175.685 378.236 175.169 375.932 175.169 373.292C175.169 370.652 175.685 368.36 176.717 366.416C177.773 364.448 179.237 362.924 181.109 361.844C182.981 360.764 185.177 360.224 187.697 360.224C190.217 360.224 192.413 360.764 194.285 361.844C196.181 362.924 197.645 364.448 198.677 366.416C199.733 368.36 200.261 370.64 200.261 373.256C200.261 375.896 199.733 378.2 198.677 380.168C197.645 382.136 196.181 383.672 194.285 384.776C192.413 385.856 190.217 386.396 187.697 386.396ZM187.697 381.644C189.809 381.644 191.453 380.912 192.629 379.448C193.829 377.96 194.429 375.908 194.429 373.292C194.429 370.652 193.841 368.612 192.665 367.172C191.489 365.708 189.833 364.976 187.697 364.976C185.609 364.976 183.965 365.708 182.765 367.172C181.589 368.612 181.001 370.652 181.001 373.292C181.001 375.908 181.589 377.96 182.765 379.448C183.965 380.912 185.609 381.644 187.697 381.644ZM212.605 386.396C210.709 386.396 209.053 386.024 207.637 385.28C206.245 384.512 205.165 383.444 204.397 382.076C203.629 380.684 203.245 379.04 203.245 377.144C203.245 375.272 203.629 373.652 204.397 372.284C205.165 370.892 206.245 369.824 207.637 369.08C209.053 368.336 210.709 367.964 212.605 367.964C214.501 367.964 216.145 368.336 217.537 369.08C218.953 369.824 220.045 370.892 220.813 372.284C221.605 373.652 222.001 375.272 222.001 377.144C222.001 379.04 221.605 380.684 220.813 382.076C220.045 383.444 218.953 384.512 217.537 385.28C216.145 386.024 214.501 386.396 212.605 386.396ZM212.605 382.328C213.757 382.328 214.693 381.908 215.413 381.068C216.157 380.228 216.529 378.92 216.529 377.144C216.529 375.392 216.157 374.108 215.413 373.292C214.693 372.452 213.757 372.032 212.605 372.032C211.453 372.032 210.517 372.452 209.797 373.292C209.077 374.108 208.717 375.392 208.717 377.144C208.717 378.92 209.077 380.228 209.797 381.068C210.517 381.908 211.453 382.328 212.605 382.328ZM228.045 392.804C226.221 392.804 225.309 391.88 225.309 390.032V370.772C225.309 368.948 226.197 368.036 227.973 368.036C229.773 368.036 230.673 368.948 230.673 370.772V370.88C231.177 369.992 231.921 369.284 232.905 368.756C233.889 368.228 234.993 367.964 236.217 367.964C237.753 367.964 239.097 368.336 240.249 369.08C241.425 369.824 242.337 370.88 242.985 372.248C243.633 373.616 243.957 375.248 243.957 377.144C243.957 379.04 243.633 380.684 242.985 382.076C242.337 383.444 241.425 384.512 240.249 385.28C239.097 386.024 237.753 386.396 236.217 386.396C235.041 386.396 233.961 386.144 232.977 385.64C232.017 385.136 231.273 384.464 230.745 383.624V390.032C230.745 391.88 229.845 392.804 228.045 392.804ZM234.597 382.328C235.749 382.328 236.685 381.908 237.405 381.068C238.125 380.228 238.485 378.92 238.485 377.144C238.485 375.392 238.125 374.108 237.405 373.292C236.685 372.452 235.749 372.032 234.597 372.032C233.421 372.032 232.473 372.452 231.753 373.292C231.033 374.108 230.673 375.392 230.673 377.144C230.673 378.92 231.033 380.228 231.753 381.068C232.473 381.908 233.421 382.328 234.597 382.328ZM254.049 386.396C252.993 386.396 251.901 386.3 250.773 386.108C249.669 385.916 248.661 385.592 247.749 385.136C247.149 384.824 246.753 384.428 246.561 383.948C246.393 383.468 246.393 383 246.561 382.544C246.729 382.088 247.029 381.752 247.461 381.536C247.893 381.296 248.397 381.296 248.973 381.536C249.957 381.944 250.857 382.232 251.673 382.4C252.513 382.568 253.317 382.652 254.085 382.652C255.093 382.652 255.837 382.496 256.317 382.184C256.797 381.848 257.037 381.416 257.037 380.888C257.037 380.048 256.425 379.52 255.201 379.304L251.421 378.62C249.909 378.356 248.757 377.816 247.965 377C247.173 376.184 246.777 375.116 246.777 373.796C246.777 372.596 247.113 371.564 247.785 370.7C248.457 369.836 249.381 369.164 250.557 368.684C251.733 368.204 253.089 367.964 254.625 367.964C256.737 367.964 258.609 368.372 260.241 369.188C260.793 369.452 261.129 369.824 261.249 370.304C261.393 370.784 261.369 371.252 261.177 371.708C260.985 372.164 260.673 372.512 260.241 372.752C259.809 372.968 259.293 372.944 258.693 372.68C257.901 372.32 257.181 372.068 256.533 371.924C255.885 371.756 255.273 371.672 254.697 371.672C253.617 371.672 252.837 371.852 252.357 372.212C251.877 372.548 251.637 372.98 251.637 373.508C251.637 374.348 252.201 374.876 253.329 375.092L257.109 375.776C258.669 376.04 259.857 376.568 260.673 377.36C261.489 378.128 261.897 379.184 261.897 380.528C261.897 382.376 261.177 383.816 259.737 384.848C258.297 385.88 256.401 386.396 254.049 386.396ZM271.768 386.396C270.712 386.396 269.62 386.3 268.492 386.108C267.388 385.916 266.38 385.592 265.468 385.136C264.868 384.824 264.472 384.428 264.28 383.948C264.112 383.468 264.112 383 264.28 382.544C264.448 382.088 264.748 381.752 265.18 381.536C265.612 381.296 266.116 381.296 266.692 381.536C267.676 381.944 268.576 382.232 269.392 382.4C270.232 382.568 271.036 382.652 271.804 382.652C272.812 382.652 273.556 382.496 274.036 382.184C274.516 381.848 274.756 381.416 274.756 380.888C274.756 380.048 274.144 379.52 272.92 379.304L269.14 378.62C267.628 378.356 266.476 377.816 265.684 377C264.892 376.184 264.496 375.116 264.496 373.796C264.496 372.596 264.832 371.564 265.504 370.7C266.176 369.836 267.1 369.164 268.276 368.684C269.452 368.204 270.808 367.964 272.344 367.964C274.456 367.964 276.328 368.372 277.96 369.188C278.512 369.452 278.848 369.824 278.968 370.304C279.112 370.784 279.088 371.252 278.896 371.708C278.704 372.164 278.392 372.512 277.96 372.752C277.528 372.968 277.012 372.944 276.412 372.68C275.62 372.32 274.9 372.068 274.252 371.924C273.604 371.756 272.992 371.672 272.416 371.672C271.336 371.672 270.556 371.852 270.076 372.212C269.596 372.548 269.356 372.98 269.356 373.508C269.356 374.348 269.92 374.876 271.048 375.092L274.828 375.776C276.388 376.04 277.576 376.568 278.392 377.36C279.208 378.128 279.616 379.184 279.616 380.528C279.616 382.376 278.896 383.816 277.456 384.848C276.016 385.88 274.12 386.396 271.768 386.396Z" fill="black"/>
<path d="M51.8194 412.126C51.2434 412.126 50.9554 411.832 50.9554 411.244V400.066C50.9554 399.478 51.2434 399.184 51.8194 399.184C52.0714 399.184 52.2634 399.232 52.3954 399.328C52.5394 399.424 52.6714 399.58 52.7914 399.796L57.2194 408.076L61.6474 399.796C61.7674 399.58 61.8934 399.424 62.0254 399.328C62.1694 399.232 62.3614 399.184 62.6014 399.184C63.1534 399.184 63.4294 399.478 63.4294 400.066V411.244C63.4294 411.832 63.1534 412.126 62.6014 412.126C62.0374 412.126 61.7554 411.832 61.7554 411.244V402.712L57.9754 409.678C57.8794 409.858 57.7774 409.99 57.6694 410.074C57.5614 410.158 57.4114 410.2 57.2194 410.2C57.0154 410.2 56.8534 410.158 56.7334 410.074C56.6254 409.978 56.5234 409.846 56.4274 409.678L52.6474 402.73V411.244C52.6474 411.832 52.3714 412.126 51.8194 412.126ZM69.0333 412.162C68.4213 412.162 67.8753 412.042 67.3953 411.802C66.9153 411.562 66.5313 411.238 66.2433 410.83C65.9673 410.422 65.8293 409.96 65.8293 409.444C65.8293 408.796 65.9913 408.286 66.3153 407.914C66.6513 407.542 67.1973 407.272 67.9533 407.104C68.7213 406.936 69.7533 406.852 71.0493 406.852H71.6613V406.384C71.6613 405.7 71.5173 405.208 71.2293 404.908C70.9413 404.608 70.4673 404.458 69.8073 404.458C69.4233 404.458 69.0213 404.506 68.6013 404.602C68.1933 404.698 67.7673 404.86 67.3233 405.088C67.0713 405.208 66.8613 405.226 66.6933 405.142C66.5373 405.058 66.4293 404.926 66.3693 404.746C66.3093 404.566 66.3153 404.38 66.3873 404.188C66.4593 403.996 66.6093 403.852 66.8373 403.756C67.3653 403.516 67.8873 403.342 68.4033 403.234C68.9193 403.114 69.4053 403.054 69.8613 403.054C71.0613 403.054 71.9493 403.342 72.5253 403.918C73.1013 404.482 73.3893 405.37 73.3893 406.582V411.208C73.3893 411.82 73.1073 412.126 72.5433 412.126C71.9673 412.126 71.6793 411.82 71.6793 411.208V410.542C71.4633 411.046 71.1273 411.442 70.6713 411.73C70.2153 412.018 69.6693 412.162 69.0333 412.162ZM69.3933 410.866C70.0413 410.866 70.5813 410.638 71.0133 410.182C71.4453 409.726 71.6613 409.15 71.6613 408.454V407.968H71.0673C70.1913 407.968 69.5013 408.01 68.9973 408.094C68.5053 408.178 68.1513 408.322 67.9353 408.526C67.7313 408.718 67.6293 408.988 67.6293 409.336C67.6293 409.792 67.7853 410.164 68.0973 410.452C68.4093 410.728 68.8413 410.866 69.3933 410.866ZM78.7012 412.162C78.0892 412.162 77.5432 412.042 77.0632 411.802C76.5832 411.562 76.1992 411.238 75.9112 410.83C75.6352 410.422 75.4972 409.96 75.4972 409.444C75.4972 408.796 75.6592 408.286 75.9832 407.914C76.3192 407.542 76.8652 407.272 77.6212 407.104C78.3892 406.936 79.4212 406.852 80.7172 406.852H81.3292V406.384C81.3292 405.7 81.1852 405.208 80.8972 404.908C80.6092 404.608 80.1352 404.458 79.4752 404.458C79.0912 404.458 78.6892 404.506 78.2692 404.602C77.8612 404.698 77.4352 404.86 76.9912 405.088C76.7392 405.208 76.5292 405.226 76.3612 405.142C76.2052 405.058 76.0972 404.926 76.0372 404.746C75.9772 404.566 75.9832 404.38 76.0552 404.188C76.1272 403.996 76.2772 403.852 76.5052 403.756C77.0332 403.516 77.5552 403.342 78.0712 403.234C78.5872 403.114 79.0732 403.054 79.5292 403.054C80.7292 403.054 81.6172 403.342 82.1932 403.918C82.7692 404.482 83.0572 405.37 83.0572 406.582V411.208C83.0572 411.82 82.7752 412.126 82.2112 412.126C81.6352 412.126 81.3472 411.82 81.3472 411.208V410.542C81.1312 411.046 80.7952 411.442 80.3392 411.73C79.8832 412.018 79.3372 412.162 78.7012 412.162ZM79.0612 410.866C79.7092 410.866 80.2492 410.638 80.6812 410.182C81.1132 409.726 81.3292 409.15 81.3292 408.454V407.968H80.7352C79.8592 407.968 79.1692 408.01 78.6652 408.094C78.1732 408.178 77.8192 408.322 77.6032 408.526C77.3992 408.718 77.2972 408.988 77.2972 409.336C77.2972 409.792 77.4532 410.164 77.7652 410.452C78.0772 410.728 78.5092 410.866 79.0612 410.866ZM87.0012 412.126C86.3892 412.126 86.0832 411.82 86.0832 411.208V404.62H85.0752C84.5832 404.62 84.3372 404.386 84.3372 403.918C84.3372 403.45 84.5832 403.216 85.0752 403.216H86.0832V403.054C86.0832 401.866 86.3772 400.972 86.9652 400.372C87.5532 399.76 88.4112 399.4 89.5392 399.292L90.0972 399.256C90.3492 399.232 90.5352 399.286 90.6552 399.418C90.7872 399.538 90.8532 399.694 90.8532 399.886C90.8532 400.066 90.8052 400.228 90.7092 400.372C90.6132 400.516 90.4692 400.6 90.2772 400.624L89.9352 400.642C89.2272 400.69 88.7112 400.888 88.3872 401.236C88.0632 401.584 87.9012 402.106 87.9012 402.802V403.216H89.6472C90.1512 403.216 90.4032 403.45 90.4032 403.918C90.4032 404.386 90.1512 404.62 89.6472 404.62H87.9012V411.208C87.9012 411.82 87.6012 412.126 87.0012 412.126ZM92.442 413.818C92.262 414.034 92.07 414.13 91.866 414.106C91.674 414.082 91.542 413.98 91.47 413.8C91.398 413.632 91.458 413.422 91.65 413.17C91.794 412.99 91.902 412.804 91.974 412.612C92.058 412.432 92.118 412.252 92.154 412.072C91.83 412.048 91.566 411.934 91.362 411.73C91.17 411.514 91.074 411.244 91.074 410.92C91.074 410.584 91.176 410.314 91.38 410.11C91.584 409.894 91.86 409.786 92.208 409.786C92.568 409.786 92.85 409.912 93.054 410.164C93.27 410.404 93.378 410.752 93.378 411.208C93.378 411.604 93.312 412.024 93.18 412.468C93.06 412.912 92.814 413.362 92.442 413.818ZM104.844 412.126C104.34 412.126 103.992 411.856 103.8 411.316L99.9296 400.282C99.8216 399.97 99.8396 399.712 99.9836 399.508C100.14 399.292 100.392 399.184 100.74 399.184C101.004 399.184 101.208 399.244 101.352 399.364C101.508 399.484 101.628 399.676 101.712 399.94L104.898 409.3L108.156 399.976C108.36 399.448 108.678 399.184 109.11 399.184C109.35 399.184 109.536 399.25 109.668 399.382C109.812 399.514 109.938 399.718 110.046 399.994L113.268 409.408L116.526 399.94C116.61 399.688 116.724 399.502 116.868 399.382C117.024 399.25 117.228 399.184 117.48 399.184C117.792 399.184 118.02 399.292 118.164 399.508C118.32 399.712 118.338 399.97 118.218 400.282L114.33 411.334C114.222 411.598 114.09 411.796 113.934 411.928C113.778 412.06 113.568 412.126 113.304 412.126C113.028 412.126 112.812 412.06 112.656 411.928C112.5 411.796 112.374 411.592 112.278 411.316L109.074 402.136L105.834 411.334C105.738 411.598 105.612 411.796 105.456 411.928C105.312 412.06 105.108 412.126 104.844 412.126ZM123.345 412.162C121.905 412.162 120.771 411.76 119.943 410.956C119.115 410.14 118.701 409.03 118.701 407.626C118.701 406.726 118.881 405.934 119.241 405.25C119.613 404.554 120.123 404.014 120.771 403.63C121.419 403.246 122.163 403.054 123.003 403.054C124.215 403.054 125.169 403.444 125.865 404.224C126.561 404.992 126.909 406.054 126.909 407.41C126.909 407.818 126.669 408.022 126.189 408.022H120.465C120.597 409.846 121.563 410.758 123.363 410.758C123.723 410.758 124.101 410.716 124.497 410.632C124.893 410.536 125.277 410.368 125.649 410.128C125.901 409.984 126.117 409.936 126.297 409.984C126.489 410.02 126.627 410.122 126.711 410.29C126.795 410.446 126.807 410.626 126.747 410.83C126.699 411.022 126.561 411.19 126.333 411.334C125.925 411.61 125.445 411.82 124.893 411.964C124.353 412.096 123.837 412.162 123.345 412.162ZM123.075 404.332C122.319 404.332 121.719 404.566 121.275 405.034C120.831 405.502 120.561 406.126 120.465 406.906H125.379C125.343 406.09 125.127 405.46 124.731 405.016C124.335 404.56 123.783 404.332 123.075 404.332ZM133.607 412.162C132.947 412.162 132.359 412.018 131.843 411.73C131.327 411.43 130.937 411.028 130.673 410.524V411.208C130.673 411.82 130.379 412.126 129.791 412.126C129.191 412.126 128.891 411.82 128.891 411.208V400.102C128.891 399.49 129.191 399.184 129.791 399.184C130.403 399.184 130.709 399.49 130.709 400.102V404.638C130.973 404.158 131.357 403.774 131.861 403.486C132.377 403.198 132.959 403.054 133.607 403.054C134.387 403.054 135.065 403.24 135.641 403.612C136.229 403.984 136.679 404.512 136.991 405.196C137.315 405.868 137.477 406.672 137.477 407.608C137.477 408.544 137.315 409.354 136.991 410.038C136.679 410.722 136.229 411.25 135.641 411.622C135.065 411.982 134.387 412.162 133.607 412.162ZM133.157 410.758C133.913 410.758 134.513 410.488 134.957 409.948C135.413 409.408 135.641 408.628 135.641 407.608C135.641 406.588 135.413 405.814 134.957 405.286C134.513 404.746 133.913 404.476 133.157 404.476C132.401 404.476 131.795 404.746 131.339 405.286C130.895 405.814 130.673 406.588 130.673 407.608C130.673 408.628 130.895 409.408 131.339 409.948C131.795 410.488 132.401 410.758 133.157 410.758ZM142.604 412.162C142.076 412.162 141.53 412.102 140.966 411.982C140.402 411.862 139.892 411.658 139.436 411.37C139.232 411.25 139.106 411.1 139.058 410.92C139.01 410.74 139.022 410.572 139.094 410.416C139.166 410.26 139.28 410.152 139.436 410.092C139.604 410.02 139.79 410.038 139.994 410.146C140.462 410.398 140.912 410.578 141.344 410.686C141.776 410.794 142.202 410.848 142.622 410.848C143.258 410.848 143.738 410.734 144.062 410.506C144.386 410.278 144.548 409.972 144.548 409.588C144.548 409.276 144.44 409.036 144.224 408.868C144.008 408.688 143.684 408.55 143.252 408.454L141.542 408.112C140.03 407.8 139.274 407.02 139.274 405.772C139.274 404.944 139.604 404.284 140.264 403.792C140.924 403.3 141.788 403.054 142.856 403.054C143.936 403.054 144.866 403.318 145.646 403.846C145.838 403.966 145.952 404.116 145.988 404.296C146.024 404.464 146 404.626 145.916 404.782C145.832 404.926 145.706 405.028 145.538 405.088C145.382 405.148 145.196 405.124 144.98 405.016C144.62 404.8 144.26 404.644 143.9 404.548C143.54 404.44 143.192 404.386 142.856 404.386C142.232 404.386 141.758 404.506 141.434 404.746C141.11 404.974 140.948 405.286 140.948 405.682C140.948 406.282 141.344 406.666 142.136 406.834L143.846 407.176C144.626 407.332 145.214 407.596 145.61 407.968C146.018 408.34 146.222 408.844 146.222 409.48C146.222 410.32 145.892 410.98 145.232 411.46C144.572 411.928 143.696 412.162 142.604 412.162ZM149.145 401.254C148.785 401.254 148.503 401.164 148.299 400.984C148.107 400.804 148.011 400.552 148.011 400.228C148.011 399.544 148.389 399.202 149.145 399.202C149.901 399.202 150.279 399.544 150.279 400.228C150.279 400.912 149.901 401.254 149.145 401.254ZM149.145 412.108C148.545 412.108 148.245 411.778 148.245 411.118V404.098C148.245 403.45 148.545 403.126 149.145 403.126C149.757 403.126 150.063 403.45 150.063 404.098V411.118C150.063 411.778 149.757 412.108 149.145 412.108ZM156.366 412.162C155.262 412.162 154.44 411.88 153.9 411.316C153.36 410.752 153.09 409.936 153.09 408.868V404.62H152.01C151.506 404.62 151.254 404.386 151.254 403.918C151.254 403.45 151.506 403.216 152.01 403.216H153.09V401.362C153.09 400.75 153.396 400.444 154.008 400.444C154.608 400.444 154.908 400.75 154.908 401.362V403.216H157.014C157.518 403.216 157.77 403.45 157.77 403.918C157.77 404.386 157.518 404.62 157.014 404.62H154.908V408.724C154.908 409.36 155.04 409.84 155.304 410.164C155.58 410.488 156.024 410.65 156.636 410.65C156.852 410.65 157.038 410.632 157.194 410.596C157.35 410.548 157.488 410.518 157.608 410.506C157.74 410.506 157.848 410.554 157.932 410.65C158.016 410.734 158.058 410.902 158.058 411.154C158.058 411.346 158.022 411.52 157.95 411.676C157.89 411.82 157.776 411.916 157.608 411.964C157.464 412.024 157.266 412.072 157.014 412.108C156.774 412.144 156.558 412.162 156.366 412.162ZM163.23 412.162C161.79 412.162 160.656 411.76 159.828 410.956C159 410.14 158.586 409.03 158.586 407.626C158.586 406.726 158.766 405.934 159.126 405.25C159.498 404.554 160.008 404.014 160.656 403.63C161.304 403.246 162.048 403.054 162.888 403.054C164.1 403.054 165.054 403.444 165.75 404.224C166.446 404.992 166.794 406.054 166.794 407.41C166.794 407.818 166.554 408.022 166.074 408.022H160.35C160.482 409.846 161.448 410.758 163.248 410.758C163.608 410.758 163.986 410.716 164.382 410.632C164.778 410.536 165.162 410.368 165.534 410.128C165.786 409.984 166.002 409.936 166.182 409.984C166.374 410.02 166.512 410.122 166.596 410.29C166.68 410.446 166.692 410.626 166.632 410.83C166.584 411.022 166.446 411.19 166.218 411.334C165.81 411.61 165.33 411.82 164.778 411.964C164.238 412.096 163.722 412.162 163.23 412.162ZM162.96 404.332C162.204 404.332 161.604 404.566 161.16 405.034C160.716 405.502 160.446 406.126 160.35 406.906H165.264C165.228 406.09 165.012 405.46 164.616 405.016C164.22 404.56 163.668 404.332 162.96 404.332ZM176.6 412.162C176.072 412.162 175.526 412.102 174.962 411.982C174.398 411.862 173.888 411.658 173.432 411.37C173.228 411.25 173.102 411.1 173.054 410.92C173.006 410.74 173.018 410.572 173.09 410.416C173.162 410.26 173.276 410.152 173.432 410.092C173.6 410.02 173.786 410.038 173.99 410.146C174.458 410.398 174.908 410.578 175.34 410.686C175.772 410.794 176.198 410.848 176.618 410.848C177.254 410.848 177.734 410.734 178.058 410.506C178.382 410.278 178.544 409.972 178.544 409.588C178.544 409.276 178.436 409.036 178.22 408.868C178.004 408.688 177.68 408.55 177.248 408.454L175.538 408.112C174.026 407.8 173.27 407.02 173.27 405.772C173.27 404.944 173.6 404.284 174.26 403.792C174.92 403.3 175.784 403.054 176.852 403.054C177.932 403.054 178.862 403.318 179.642 403.846C179.834 403.966 179.948 404.116 179.984 404.296C180.02 404.464 179.996 404.626 179.912 404.782C179.828 404.926 179.702 405.028 179.534 405.088C179.378 405.148 179.192 405.124 178.976 405.016C178.616 404.8 178.256 404.644 177.896 404.548C177.536 404.44 177.188 404.386 176.852 404.386C176.228 404.386 175.754 404.506 175.43 404.746C175.106 404.974 174.944 405.286 174.944 405.682C174.944 406.282 175.34 406.666 176.132 406.834L177.842 407.176C178.622 407.332 179.21 407.596 179.606 407.968C180.014 408.34 180.218 408.844 180.218 409.48C180.218 410.32 179.888 410.98 179.228 411.46C178.568 411.928 177.692 412.162 176.6 412.162ZM186.363 412.162C184.923 412.162 183.789 411.76 182.961 410.956C182.133 410.14 181.719 409.03 181.719 407.626C181.719 406.726 181.899 405.934 182.259 405.25C182.631 404.554 183.141 404.014 183.789 403.63C184.437 403.246 185.181 403.054 186.021 403.054C187.233 403.054 188.187 403.444 188.883 404.224C189.579 404.992 189.927 406.054 189.927 407.41C189.927 407.818 189.687 408.022 189.207 408.022H183.483C183.615 409.846 184.581 410.758 186.381 410.758C186.741 410.758 187.119 410.716 187.515 410.632C187.911 410.536 188.295 410.368 188.667 410.128C188.919 409.984 189.135 409.936 189.315 409.984C189.507 410.02 189.645 410.122 189.729 410.29C189.813 410.446 189.825 410.626 189.765 410.83C189.717 411.022 189.579 411.19 189.351 411.334C188.943 411.61 188.463 411.82 187.911 411.964C187.371 412.096 186.855 412.162 186.363 412.162ZM186.093 404.332C185.337 404.332 184.737 404.566 184.293 405.034C183.849 405.502 183.579 406.126 183.483 406.906H188.397C188.361 406.09 188.145 405.46 187.749 405.016C187.353 404.56 186.801 404.332 186.093 404.332ZM192.845 412.126C192.245 412.126 191.945 411.82 191.945 411.208V404.008C191.945 403.396 192.239 403.09 192.827 403.09C193.415 403.09 193.709 403.396 193.709 404.008V404.638C193.973 404.134 194.339 403.744 194.807 403.468C195.275 403.192 195.821 403.054 196.445 403.054C197.789 403.054 198.659 403.642 199.055 404.818C199.331 404.266 199.727 403.834 200.243 403.522C200.759 403.21 201.347 403.054 202.007 403.054C203.975 403.054 204.959 404.23 204.959 406.582V411.208C204.959 411.82 204.653 412.126 204.041 412.126C203.441 412.126 203.141 411.82 203.141 411.208V406.672C203.141 405.928 203.009 405.382 202.745 405.034C202.493 404.686 202.073 404.512 201.485 404.512C200.825 404.512 200.303 404.746 199.919 405.214C199.535 405.67 199.343 406.294 199.343 407.086V411.208C199.343 411.82 199.043 412.126 198.443 412.126C197.831 412.126 197.525 411.82 197.525 411.208V406.672C197.525 405.928 197.399 405.382 197.147 405.034C196.895 404.686 196.475 404.512 195.887 404.512C195.227 404.512 194.705 404.746 194.321 405.214C193.949 405.67 193.763 406.294 193.763 407.086V411.208C193.763 411.82 193.457 412.126 192.845 412.126ZM211.623 412.162C210.183 412.162 209.049 411.76 208.221 410.956C207.393 410.14 206.979 409.03 206.979 407.626C206.979 406.726 207.159 405.934 207.519 405.25C207.891 404.554 208.401 404.014 209.049 403.63C209.697 403.246 210.441 403.054 211.281 403.054C212.493 403.054 213.447 403.444 214.143 404.224C214.839 404.992 215.187 406.054 215.187 407.41C215.187 407.818 214.947 408.022 214.467 408.022H208.743C208.875 409.846 209.841 410.758 211.641 410.758C212.001 410.758 212.379 410.716 212.775 410.632C213.171 410.536 213.555 410.368 213.927 410.128C214.179 409.984 214.395 409.936 214.575 409.984C214.767 410.02 214.905 410.122 214.989 410.29C215.073 410.446 215.085 410.626 215.025 410.83C214.977 411.022 214.839 411.19 214.611 411.334C214.203 411.61 213.723 411.82 213.171 411.964C212.631 412.096 212.115 412.162 211.623 412.162ZM211.353 404.332C210.597 404.332 209.997 404.566 209.553 405.034C209.109 405.502 208.839 406.126 208.743 406.906H213.657C213.621 406.09 213.405 405.46 213.009 405.016C212.613 404.56 212.061 404.332 211.353 404.332ZM218.069 412.126C217.469 412.126 217.169 411.82 217.169 411.208V404.008C217.169 403.396 217.463 403.09 218.051 403.09C218.639 403.09 218.933 403.396 218.933 404.008V404.674C219.233 404.146 219.641 403.744 220.157 403.468C220.685 403.192 221.273 403.054 221.921 403.054C223.997 403.054 225.035 404.23 225.035 406.582V411.208C225.035 411.82 224.735 412.126 224.135 412.126C223.523 412.126 223.217 411.82 223.217 411.208V406.69C223.217 405.934 223.067 405.382 222.767 405.034C222.479 404.686 222.023 404.512 221.399 404.512C220.667 404.512 220.079 404.746 219.635 405.214C219.203 405.67 218.987 406.276 218.987 407.032V411.208C218.987 411.82 218.681 412.126 218.069 412.126ZM231.284 412.162C230.18 412.162 229.358 411.88 228.818 411.316C228.278 410.752 228.008 409.936 228.008 408.868V404.62H226.928C226.424 404.62 226.172 404.386 226.172 403.918C226.172 403.45 226.424 403.216 226.928 403.216H228.008V401.362C228.008 400.75 228.314 400.444 228.926 400.444C229.526 400.444 229.826 400.75 229.826 401.362V403.216H231.932C232.436 403.216 232.688 403.45 232.688 403.918C232.688 404.386 232.436 404.62 231.932 404.62H229.826V408.724C229.826 409.36 229.958 409.84 230.222 410.164C230.498 410.488 230.942 410.65 231.554 410.65C231.77 410.65 231.956 410.632 232.112 410.596C232.268 410.548 232.406 410.518 232.526 410.506C232.658 410.506 232.766 410.554 232.85 410.65C232.934 410.734 232.976 410.902 232.976 411.154C232.976 411.346 232.94 411.52 232.868 411.676C232.808 411.82 232.694 411.916 232.526 411.964C232.382 412.024 232.184 412.072 231.932 412.108C231.692 412.144 231.476 412.162 231.284 412.162ZM236.922 412.162C236.31 412.162 235.764 412.042 235.284 411.802C234.804 411.562 234.42 411.238 234.132 410.83C233.856 410.422 233.718 409.96 233.718 409.444C233.718 408.796 233.88 408.286 234.204 407.914C234.54 407.542 235.086 407.272 235.842 407.104C236.61 406.936 237.642 406.852 238.938 406.852H239.55V406.384C239.55 405.7 239.406 405.208 239.118 404.908C238.83 404.608 238.356 404.458 237.696 404.458C237.312 404.458 236.91 404.506 236.49 404.602C236.082 404.698 235.656 404.86 235.212 405.088C234.96 405.208 234.75 405.226 234.582 405.142C234.426 405.058 234.318 404.926 234.258 404.746C234.198 404.566 234.204 404.38 234.276 404.188C234.348 403.996 234.498 403.852 234.726 403.756C235.254 403.516 235.776 403.342 236.292 403.234C236.808 403.114 237.294 403.054 237.75 403.054C238.95 403.054 239.838 403.342 240.414 403.918C240.99 404.482 241.278 405.37 241.278 406.582V411.208C241.278 411.82 240.996 412.126 240.432 412.126C239.856 412.126 239.568 411.82 239.568 411.208V410.542C239.352 411.046 239.016 411.442 238.56 411.73C238.104 412.018 237.558 412.162 236.922 412.162ZM237.282 410.866C237.93 410.866 238.47 410.638 238.902 410.182C239.334 409.726 239.55 409.15 239.55 408.454V407.968H238.956C238.08 407.968 237.39 408.01 236.886 408.094C236.394 408.178 236.04 408.322 235.824 408.526C235.62 408.718 235.518 408.988 235.518 409.336C235.518 409.792 235.674 410.164 235.986 410.452C236.298 410.728 236.73 410.866 237.282 410.866ZM244.7 412.126C244.088 412.126 243.782 411.82 243.782 411.208V404.008C243.782 403.396 244.076 403.09 244.664 403.09C245.252 403.09 245.546 403.396 245.546 404.008V404.782C245.786 404.242 246.146 403.828 246.626 403.54C247.118 403.252 247.712 403.084 248.408 403.036C248.852 403 249.092 403.24 249.128 403.756C249.176 404.284 248.918 404.572 248.354 404.62L248.012 404.656C246.416 404.812 245.618 405.634 245.618 407.122V411.208C245.618 411.82 245.312 412.126 244.7 412.126ZM253.217 412.162C252.605 412.162 252.059 412.042 251.579 411.802C251.099 411.562 250.715 411.238 250.427 410.83C250.151 410.422 250.013 409.96 250.013 409.444C250.013 408.796 250.175 408.286 250.499 407.914C250.835 407.542 251.381 407.272 252.137 407.104C252.905 406.936 253.937 406.852 255.233 406.852H255.845V406.384C255.845 405.7 255.701 405.208 255.413 404.908C255.125 404.608 254.651 404.458 253.991 404.458C253.607 404.458 253.205 404.506 252.785 404.602C252.377 404.698 251.951 404.86 251.507 405.088C251.255 405.208 251.045 405.226 250.877 405.142C250.721 405.058 250.613 404.926 250.553 404.746C250.493 404.566 250.499 404.38 250.571 404.188C250.643 403.996 250.793 403.852 251.021 403.756C251.549 403.516 252.071 403.342 252.587 403.234C253.103 403.114 253.589 403.054 254.045 403.054C255.245 403.054 256.133 403.342 256.709 403.918C257.285 404.482 257.573 405.37 257.573 406.582V411.208C257.573 411.82 257.291 412.126 256.727 412.126C256.151 412.126 255.863 411.82 255.863 411.208V410.542C255.647 411.046 255.311 411.442 254.855 411.73C254.399 412.018 253.853 412.162 253.217 412.162ZM253.577 410.866C254.225 410.866 254.765 410.638 255.197 410.182C255.629 409.726 255.845 409.15 255.845 408.454V407.968H255.251C254.375 407.968 253.685 408.01 253.181 408.094C252.689 408.178 252.335 408.322 252.119 408.526C251.915 408.718 251.813 408.988 251.813 409.336C251.813 409.792 251.969 410.164 252.281 410.452C252.593 410.728 253.025 410.866 253.577 410.866ZM268.171 412.162C267.403 412.162 266.725 411.982 266.137 411.622C265.561 411.25 265.111 410.722 264.787 410.038C264.463 409.354 264.301 408.544 264.301 407.608C264.301 406.672 264.463 405.868 264.787 405.196C265.111 404.512 265.561 403.984 266.137 403.612C266.713 403.24 267.391 403.054 268.171 403.054C268.831 403.054 269.419 403.198 269.935 403.486C270.451 403.774 270.835 404.164 271.087 404.656V400.102C271.087 399.49 271.387 399.184 271.987 399.184C272.599 399.184 272.905 399.49 272.905 400.102V411.208C272.905 411.82 272.605 412.126 272.005 412.126C271.405 412.126 271.105 411.82 271.105 411.208V410.524C270.841 411.028 270.451 411.43 269.935 411.73C269.419 412.018 268.831 412.162 268.171 412.162ZM268.639 410.758C269.383 410.758 269.983 410.488 270.439 409.948C270.895 409.408 271.123 408.628 271.123 407.608C271.123 406.588 270.895 405.814 270.439 405.286C269.983 404.746 269.383 404.476 268.639 404.476C267.883 404.476 267.277 404.746 266.821 405.286C266.365 405.814 266.137 406.588 266.137 407.608C266.137 408.628 266.365 409.408 266.821 409.948C267.277 410.488 267.883 410.758 268.639 410.758ZM278.266 412.162C277.654 412.162 277.108 412.042 276.628 411.802C276.148 411.562 275.764 411.238 275.476 410.83C275.2 410.422 275.062 409.96 275.062 409.444C275.062 408.796 275.224 408.286 275.548 407.914C275.884 407.542 276.43 407.272 277.186 407.104C277.954 406.936 278.986 406.852 280.282 406.852H280.894V406.384C280.894 405.7 280.75 405.208 280.462 404.908C280.174 404.608 279.7 404.458 279.04 404.458C278.656 404.458 278.254 404.506 277.834 404.602C277.426 404.698 277 404.86 276.556 405.088C276.304 405.208 276.094 405.226 275.926 405.142C275.77 405.058 275.662 404.926 275.602 404.746C275.542 404.566 275.548 404.38 275.62 404.188C275.692 403.996 275.842 403.852 276.07 403.756C276.598 403.516 277.12 403.342 277.636 403.234C278.152 403.114 278.638 403.054 279.094 403.054C280.294 403.054 281.182 403.342 281.758 403.918C282.334 404.482 282.622 405.37 282.622 406.582V411.208C282.622 411.82 282.34 412.126 281.776 412.126C281.2 412.126 280.912 411.82 280.912 411.208V410.542C280.696 411.046 280.36 411.442 279.904 411.73C279.448 412.018 278.902 412.162 278.266 412.162ZM278.626 410.866C279.274 410.866 279.814 410.638 280.246 410.182C280.678 409.726 280.894 409.15 280.894 408.454V407.968H280.3C279.424 407.968 278.734 408.01 278.23 408.094C277.738 408.178 277.384 408.322 277.168 408.526C276.964 408.718 276.862 408.988 276.862 409.336C276.862 409.792 277.018 410.164 277.33 410.452C277.642 410.728 278.074 410.866 278.626 410.866ZM287.952 412.162C287.016 412.162 286.308 411.892 285.828 411.352C285.36 410.812 285.126 410.02 285.126 408.976V400.102C285.126 399.49 285.426 399.184 286.026 399.184C286.638 399.184 286.944 399.49 286.944 400.102V408.868C286.944 410.056 287.424 410.65 288.384 410.65C288.492 410.65 288.588 410.644 288.672 410.632C288.756 410.62 288.84 410.614 288.924 410.614C289.068 410.602 289.17 410.644 289.23 410.74C289.29 410.824 289.32 411.004 289.32 411.28C289.32 411.772 289.092 412.054 288.636 412.126C288.516 412.138 288.396 412.144 288.276 412.144C288.168 412.156 288.06 412.162 287.952 412.162ZM293.436 412.162C292.824 412.162 292.278 412.042 291.798 411.802C291.318 411.562 290.934 411.238 290.646 410.83C290.37 410.422 290.232 409.96 290.232 409.444C290.232 408.796 290.394 408.286 290.718 407.914C291.054 407.542 291.6 407.272 292.356 407.104C293.124 406.936 294.156 406.852 295.452 406.852H296.064V406.384C296.064 405.7 295.92 405.208 295.632 404.908C295.344 404.608 294.87 404.458 294.21 404.458C293.826 404.458 293.424 404.506 293.004 404.602C292.596 404.698 292.17 404.86 291.726 405.088C291.474 405.208 291.264 405.226 291.096 405.142C290.94 405.058 290.832 404.926 290.772 404.746C290.712 404.566 290.718 404.38 290.79 404.188C290.862 403.996 291.012 403.852 291.24 403.756C291.768 403.516 292.29 403.342 292.806 403.234C293.322 403.114 293.808 403.054 294.264 403.054C295.464 403.054 296.352 403.342 296.928 403.918C297.504 404.482 297.792 405.37 297.792 406.582V411.208C297.792 411.82 297.51 412.126 296.946 412.126C296.37 412.126 296.082 411.82 296.082 411.208V410.542C295.866 411.046 295.53 411.442 295.074 411.73C294.618 412.018 294.072 412.162 293.436 412.162ZM293.796 410.866C294.444 410.866 294.984 410.638 295.416 410.182C295.848 409.726 296.064 409.15 296.064 408.454V407.968H295.47C294.594 407.968 293.904 408.01 293.4 408.094C292.908 408.178 292.554 408.322 292.338 408.526C292.134 408.718 292.032 408.988 292.032 409.336C292.032 409.792 292.188 410.164 292.5 410.452C292.812 410.728 293.244 410.866 293.796 410.866ZM301.232 412.126C300.632 412.126 300.332 411.82 300.332 411.208V404.008C300.332 403.396 300.626 403.09 301.214 403.09C301.802 403.09 302.096 403.396 302.096 404.008V404.638C302.36 404.134 302.726 403.744 303.194 403.468C303.662 403.192 304.208 403.054 304.832 403.054C306.176 403.054 307.046 403.642 307.442 404.818C307.718 404.266 308.114 403.834 308.63 403.522C309.146 403.21 309.734 403.054 310.394 403.054C312.362 403.054 313.346 404.23 313.346 406.582V411.208C313.346 411.82 313.04 412.126 312.428 412.126C311.828 412.126 311.528 411.82 311.528 411.208V406.672C311.528 405.928 311.396 405.382 311.132 405.034C310.88 404.686 310.46 404.512 309.872 404.512C309.212 404.512 308.69 404.746 308.306 405.214C307.922 405.67 307.73 406.294 307.73 407.086V411.208C307.73 411.82 307.43 412.126 306.83 412.126C306.218 412.126 305.912 411.82 305.912 411.208V406.672C305.912 405.928 305.786 405.382 305.534 405.034C305.282 404.686 304.862 404.512 304.274 404.512C303.614 404.512 303.092 404.746 302.708 405.214C302.336 405.67 302.15 406.294 302.15 407.086V411.208C302.15 411.82 301.844 412.126 301.232 412.126ZM321.533 415.366C320.933 415.366 320.633 415.06 320.633 414.448V404.008C320.633 403.396 320.927 403.09 321.515 403.09C322.115 403.09 322.415 403.396 322.415 404.008V404.692C322.679 404.188 323.069 403.792 323.585 403.504C324.101 403.204 324.689 403.054 325.349 403.054C326.129 403.054 326.807 403.24 327.383 403.612C327.971 403.984 328.421 404.512 328.733 405.196C329.057 405.868 329.219 406.672 329.219 407.608C329.219 408.544 329.057 409.354 328.733 410.038C328.421 410.722 327.971 411.25 327.383 411.622C326.807 411.982 326.129 412.162 325.349 412.162C324.701 412.162 324.119 412.024 323.603 411.748C323.099 411.46 322.715 411.07 322.451 410.578V414.448C322.451 415.06 322.145 415.366 321.533 415.366ZM324.899 410.758C325.655 410.758 326.255 410.488 326.699 409.948C327.155 409.408 327.383 408.628 327.383 407.608C327.383 406.588 327.155 405.814 326.699 405.286C326.255 404.746 325.655 404.476 324.899 404.476C324.143 404.476 323.537 404.746 323.081 405.286C322.637 405.814 322.415 406.588 322.415 407.608C322.415 408.628 322.637 409.408 323.081 409.948C323.537 410.488 324.143 410.758 324.899 410.758ZM335.39 412.162C333.95 412.162 332.816 411.76 331.988 410.956C331.16 410.14 330.746 409.03 330.746 407.626C330.746 406.726 330.926 405.934 331.286 405.25C331.658 404.554 332.168 404.014 332.816 403.63C333.464 403.246 334.208 403.054 335.048 403.054C336.26 403.054 337.214 403.444 337.91 404.224C338.606 404.992 338.954 406.054 338.954 407.41C338.954 407.818 338.714 408.022 338.234 408.022H332.51C332.642 409.846 333.608 410.758 335.408 410.758C335.768 410.758 336.146 410.716 336.542 410.632C336.938 410.536 337.322 410.368 337.694 410.128C337.946 409.984 338.162 409.936 338.342 409.984C338.534 410.02 338.672 410.122 338.756 410.29C338.84 410.446 338.852 410.626 338.792 410.83C338.744 411.022 338.606 411.19 338.378 411.334C337.97 411.61 337.49 411.82 336.938 411.964C336.398 412.096 335.882 412.162 335.39 412.162ZM335.12 404.332C334.364 404.332 333.764 404.566 333.32 405.034C332.876 405.502 332.606 406.126 332.51 406.906H337.424C337.388 406.09 337.172 405.46 336.776 405.016C336.38 404.56 335.828 404.332 335.12 404.332ZM341.854 412.126C341.242 412.126 340.936 411.82 340.936 411.208V404.008C340.936 403.396 341.23 403.09 341.818 403.09C342.406 403.09 342.7 403.396 342.7 404.008V404.782C342.94 404.242 343.3 403.828 343.78 403.54C344.272 403.252 344.866 403.084 345.562 403.036C346.006 403 346.246 403.24 346.282 403.756C346.33 404.284 346.072 404.572 345.508 404.62L345.166 404.656C343.57 404.812 342.772 405.634 342.772 407.122V411.208C342.772 411.82 342.466 412.126 341.854 412.126ZM352.367 412.162C351.707 412.162 351.119 412.018 350.603 411.73C350.087 411.43 349.697 411.028 349.433 410.524V411.208C349.433 411.82 349.139 412.126 348.551 412.126C347.951 412.126 347.651 411.82 347.651 411.208V400.102C347.651 399.49 347.951 399.184 348.551 399.184C349.163 399.184 349.469 399.49 349.469 400.102V404.638C349.733 404.158 350.117 403.774 350.621 403.486C351.137 403.198 351.719 403.054 352.367 403.054C353.147 403.054 353.825 403.24 354.401 403.612C354.989 403.984 355.439 404.512 355.751 405.196C356.075 405.868 356.237 406.672 356.237 407.608C356.237 408.544 356.075 409.354 355.751 410.038C355.439 410.722 354.989 411.25 354.401 411.622C353.825 411.982 353.147 412.162 352.367 412.162ZM351.917 410.758C352.673 410.758 353.273 410.488 353.717 409.948C354.173 409.408 354.401 408.628 354.401 407.608C354.401 406.588 354.173 405.814 353.717 405.286C353.273 404.746 352.673 404.476 351.917 404.476C351.161 404.476 350.555 404.746 350.099 405.286C349.655 405.814 349.433 406.588 349.433 407.608C349.433 408.628 349.655 409.408 350.099 409.948C350.555 410.488 351.161 410.758 351.917 410.758ZM361.094 412.162C360.482 412.162 359.936 412.042 359.456 411.802C358.976 411.562 358.592 411.238 358.304 410.83C358.028 410.422 357.89 409.96 357.89 409.444C357.89 408.796 358.052 408.286 358.376 407.914C358.712 407.542 359.258 407.272 360.014 407.104C360.782 406.936 361.814 406.852 363.11 406.852H363.722V406.384C363.722 405.7 363.578 405.208 363.29 404.908C363.002 404.608 362.528 404.458 361.868 404.458C361.484 404.458 361.082 404.506 360.662 404.602C360.254 404.698 359.828 404.86 359.384 405.088C359.132 405.208 358.922 405.226 358.754 405.142C358.598 405.058 358.49 404.926 358.43 404.746C358.37 404.566 358.376 404.38 358.448 404.188C358.52 403.996 358.67 403.852 358.898 403.756C359.426 403.516 359.948 403.342 360.464 403.234C360.98 403.114 361.466 403.054 361.922 403.054C363.122 403.054 364.01 403.342 364.586 403.918C365.162 404.482 365.45 405.37 365.45 406.582V411.208C365.45 411.82 365.168 412.126 364.604 412.126C364.028 412.126 363.74 411.82 363.74 411.208V410.542C363.524 411.046 363.188 411.442 362.732 411.73C362.276 412.018 361.73 412.162 361.094 412.162ZM361.454 410.866C362.102 410.866 362.642 410.638 363.074 410.182C363.506 409.726 363.722 409.15 363.722 408.454V407.968H363.128C362.252 407.968 361.562 408.01 361.058 408.094C360.566 408.178 360.212 408.322 359.996 408.526C359.792 408.718 359.69 408.988 359.69 409.336C359.69 409.792 359.846 410.164 360.158 410.452C360.47 410.728 360.902 410.866 361.454 410.866ZM368.854 401.254C368.494 401.254 368.212 401.164 368.008 400.984C367.816 400.804 367.72 400.552 367.72 400.228C367.72 399.544 368.098 399.202 368.854 399.202C369.61 399.202 369.988 399.544 369.988 400.228C369.988 400.912 369.61 401.254 368.854 401.254ZM368.854 412.108C368.254 412.108 367.954 411.778 367.954 411.118V404.098C367.954 403.45 368.254 403.126 368.854 403.126C369.466 403.126 369.772 403.45 369.772 404.098V411.118C369.772 411.778 369.466 412.108 368.854 412.108ZM373.231 412.126C372.631 412.126 372.331 411.82 372.331 411.208V400.102C372.331 399.49 372.631 399.184 373.231 399.184C373.843 399.184 374.149 399.49 374.149 400.102V407.05H374.185L377.551 403.702C377.743 403.51 377.917 403.36 378.073 403.252C378.229 403.144 378.433 403.09 378.685 403.09C379.057 403.09 379.297 403.228 379.405 403.504C379.525 403.78 379.453 404.056 379.189 404.332L376.039 407.446L379.513 410.884C379.705 411.076 379.795 411.268 379.783 411.46C379.771 411.652 379.693 411.814 379.549 411.946C379.405 412.066 379.225 412.126 379.009 412.126C378.733 412.126 378.511 412.072 378.343 411.964C378.187 411.856 378.001 411.694 377.785 411.478L374.185 407.986H374.149V411.208C374.149 411.82 373.843 412.126 373.231 412.126ZM384.332 412.162C383.72 412.162 383.174 412.042 382.694 411.802C382.214 411.562 381.83 411.238 381.542 410.83C381.266 410.422 381.128 409.96 381.128 409.444C381.128 408.796 381.29 408.286 381.614 407.914C381.95 407.542 382.496 407.272 383.252 407.104C384.02 406.936 385.052 406.852 386.348 406.852H386.96V406.384C386.96 405.7 386.816 405.208 386.528 404.908C386.24 404.608 385.766 404.458 385.106 404.458C384.722 404.458 384.32 404.506 383.9 404.602C383.492 404.698 383.066 404.86 382.622 405.088C382.37 405.208 382.16 405.226 381.992 405.142C381.836 405.058 381.728 404.926 381.668 404.746C381.608 404.566 381.614 404.38 381.686 404.188C381.758 403.996 381.908 403.852 382.136 403.756C382.664 403.516 383.186 403.342 383.702 403.234C384.218 403.114 384.704 403.054 385.16 403.054C386.36 403.054 387.248 403.342 387.824 403.918C388.4 404.482 388.688 405.37 388.688 406.582V411.208C388.688 411.82 388.406 412.126 387.842 412.126C387.266 412.126 386.978 411.82 386.978 411.208V410.542C386.762 411.046 386.426 411.442 385.97 411.73C385.514 412.018 384.968 412.162 384.332 412.162ZM384.692 410.866C385.34 410.866 385.88 410.638 386.312 410.182C386.744 409.726 386.96 409.15 386.96 408.454V407.968H386.366C385.49 407.968 384.8 408.01 384.296 408.094C383.804 408.178 383.45 408.322 383.234 408.526C383.03 408.718 382.928 408.988 382.928 409.336C382.928 409.792 383.084 410.164 383.396 410.452C383.708 410.728 384.14 410.866 384.692 410.866ZM392.092 412.126C391.492 412.126 391.192 411.82 391.192 411.208V404.008C391.192 403.396 391.486 403.09 392.074 403.09C392.662 403.09 392.956 403.396 392.956 404.008V404.674C393.256 404.146 393.664 403.744 394.18 403.468C394.708 403.192 395.296 403.054 395.944 403.054C398.02 403.054 399.058 404.23 399.058 406.582V411.208C399.058 411.82 398.758 412.126 398.158 412.126C397.546 412.126 397.24 411.82 397.24 411.208V406.69C397.24 405.934 397.09 405.382 396.79 405.034C396.502 404.686 396.046 404.512 395.422 404.512C394.69 404.512 394.102 404.746 393.658 405.214C393.226 405.67 393.01 406.276 393.01 407.032V411.208C393.01 411.82 392.704 412.126 392.092 412.126ZM402.445 408.58C402.049 408.58 401.839 408.352 401.815 407.896L401.383 400.372C401.359 400.012 401.437 399.724 401.617 399.508C401.809 399.292 402.085 399.184 402.445 399.184C402.793 399.184 403.057 399.292 403.237 399.508C403.417 399.724 403.489 400.012 403.453 400.372L403.021 407.896C402.997 408.352 402.805 408.58 402.445 408.58ZM402.445 412.072C402.085 412.072 401.797 411.964 401.581 411.748C401.377 411.532 401.275 411.256 401.275 410.92C401.275 410.584 401.377 410.314 401.581 410.11C401.797 409.894 402.085 409.786 402.445 409.786C402.793 409.786 403.069 409.894 403.273 410.11C403.477 410.314 403.579 410.584 403.579 410.92C403.579 411.256 403.477 411.532 403.273 411.748C403.069 411.964 402.793 412.072 402.445 412.072Z" fill="black"/>
<defs>
<clipPath id="clip0_709_7461">
<rect width="451" height="239" fill="white" transform="translate(1 78)"/>
</clipPath>
</defs>
</svg>
