<svg width="96" height="96" viewBox="0 0 96 96" fill="none" xmlns="http://www.w3.org/2000/svg">
<path d="M34.294 14.1511H27.3877V25.6616H34.294V14.1511Z" fill="#A4B0BE"/>
<path d="M67.6748 14.1511H60.7686V25.6616H67.6748V14.1511Z" fill="#A4B0BE"/>
<path d="M34.294 14.1511H27.3877V17.6043H34.294V14.1511Z" fill="#A4B0BE"/>
<path d="M67.6748 14.1511H60.7686V17.6043H67.6748V14.1511Z" fill="#A4B0BE"/>
<path d="M35.8253 21.0574H59.2376C62.5438 21.0574 65.7145 22.3707 68.0523 24.7085C70.3901 27.0463 71.7035 30.2171 71.7035 33.5232V80.9118H23.3594V33.5232C23.3594 30.2171 24.6727 27.0463 27.0105 24.7085C29.3484 22.3707 32.5191 21.0574 35.8253 21.0574V21.0574Z" fill="#EEC647"/>
<path d="M59.2376 21.0574H35.8253C32.5191 21.0574 29.3484 22.3707 27.0105 24.7085C24.6727 27.0463 23.3594 30.2171 23.3594 33.5232V36.9764C23.3594 33.6702 24.6727 30.4995 27.0105 28.1617C29.3484 25.8239 32.5191 24.5105 35.8253 24.5105H59.2376C62.5438 24.5105 65.7145 25.8239 68.0523 28.1617C70.3901 30.4995 71.7035 33.6702 71.7035 36.9764V33.5232C71.7035 30.2171 70.3901 27.0463 68.0523 24.7085C65.7145 22.3707 62.5438 21.0574 59.2376 21.0574V21.0574Z" fill="#EEC647"/>
<path d="M23.3594 77.4587H14.151L14.151 48.6825C14.151 47.1562 14.7573 45.6923 15.8367 44.613C16.916 43.5337 18.3798 42.9273 19.9062 42.9273H23.3594L23.3594 77.4587Z" fill="#EEC647"/>
<path d="M63.646 54.4377H31.4167C30.781 54.4377 30.2656 54.9531 30.2656 55.5888V74.0056C30.2656 74.6413 30.781 75.1566 31.4167 75.1566H63.646C64.2817 75.1566 64.7971 74.6413 64.7971 74.0056V55.5888C64.7971 54.9531 64.2817 54.4377 63.646 54.4377Z" fill="#FF4757"/>
<path d="M63.646 30.2656H31.4167C30.781 30.2656 30.2656 30.781 30.2656 31.4167V45.2292C30.2656 45.8649 30.781 46.3803 31.4167 46.3803H63.646C64.2817 46.3803 64.7971 45.8649 64.7971 45.2292V31.4167C64.7971 30.781 64.2817 30.2656 63.646 30.2656Z" fill="#FF4757"/>
<path d="M31.4167 30.2656H63.646C63.9513 30.2656 64.2441 30.3869 64.4599 30.6028C64.6758 30.8186 64.7971 31.1114 64.7971 31.4167V33.7188H30.2656V31.4167C30.2656 31.1114 30.3869 30.8186 30.6028 30.6028C30.8186 30.3869 31.1114 30.2656 31.4167 30.2656Z" fill="#FF4757"/>
<path d="M31.4167 54.4377H63.646C63.9513 54.4377 64.2441 54.559 64.4599 54.7749C64.6758 54.9907 64.7971 55.2835 64.7971 55.5888V57.8909H30.2656V55.5888C30.2656 55.2835 30.3869 54.9907 30.6028 54.7749C30.8186 54.559 31.1114 54.4377 31.4167 54.4377Z" fill="#FF4757"/>
<path d="M41.7757 14.1511H53.2862C53.8968 14.1511 54.4823 14.3937 54.914 14.8254C55.3458 15.2571 55.5883 15.8427 55.5883 16.4532V21.0574H39.4736V16.4532C39.4736 15.8427 39.7162 15.2571 40.1479 14.8254C40.5796 14.3937 41.1652 14.1511 41.7757 14.1511V14.1511Z" fill="#FF4757"/>
<path d="M47.5316 65.9482C48.803 65.9482 49.8337 64.9175 49.8337 63.6461C49.8337 62.3747 48.803 61.344 47.5316 61.344C46.2602 61.344 45.2295 62.3747 45.2295 63.6461C45.2295 64.9175 46.2602 65.9482 47.5316 65.9482Z" fill="#EEC647"/>
<path d="M19.9056 42.9272H23.3588V54.4377H14.1504V48.6825C14.1504 47.1561 14.7567 45.6922 15.8361 44.6129C16.9154 43.5336 18.3792 42.9272 19.9056 42.9272V42.9272Z" fill="#FF4757"/>
<path d="M19.9056 42.9272C18.3792 42.9272 16.9154 43.5336 15.8361 44.6129C14.7567 45.6922 14.1504 47.1561 14.1504 48.6825V52.1356C14.1504 50.6092 14.7567 49.1454 15.8361 48.0661C16.9154 46.9867 18.3792 46.3804 19.9056 46.3804H23.3588V42.9272H19.9056Z" fill="#FF4757"/>
<path d="M71.7031 42.9272H75.1563C76.6827 42.9272 78.1465 43.5336 79.2258 44.6129C80.3052 45.6922 80.9115 47.1561 80.9115 48.6825V77.4587H71.7031V42.9272Z" fill="#EEC647"/>
<path d="M80.9121 54.4377H71.7037V42.9273H75.1569C76.6833 42.9273 78.1471 43.5336 79.2264 44.6129C80.3058 45.6923 80.9121 47.1561 80.9121 48.6825V54.4377Z" fill="#FF4757"/>
<path d="M75.1563 42.9272H71.7031V46.3804H75.1563C76.6827 46.3804 78.1465 46.9867 79.2258 48.0661C80.3052 49.1454 80.9115 50.6092 80.9115 52.1356V48.6825C80.9115 47.1561 80.3052 45.6922 79.2258 44.6129C78.1465 43.5336 76.6827 42.9272 75.1563 42.9272V42.9272Z" fill="#FF4757"/>
<path d="M63.6467 53.2866H31.4173C30.8068 53.2866 30.2212 53.5292 29.7895 53.9609C29.3578 54.3926 29.1152 54.9782 29.1152 55.5887V74.0055C29.1152 74.616 29.3578 75.2016 29.7895 75.6333C30.2212 76.065 30.8068 76.3076 31.4173 76.3076H63.6467C64.2572 76.3076 64.8428 76.065 65.2745 75.6333C65.7062 75.2016 65.9488 74.616 65.9488 74.0055V55.5887C65.9488 54.9782 65.7062 54.3926 65.2745 53.9609C64.8428 53.5292 64.2572 53.2866 63.6467 53.2866ZM31.4173 74.0055V55.5887H63.6467V74.0055H31.4173Z" fill="#A4B0BE"/>
<path d="M63.6467 29.1147H31.4173C30.8068 29.1147 30.2212 29.3573 29.7895 29.789C29.3578 30.2207 29.1152 30.8063 29.1152 31.4168V45.2294C29.1152 45.84 29.3578 46.4255 29.7895 46.8572C30.2212 47.289 30.8068 47.5315 31.4173 47.5315H63.6467C64.2572 47.5315 64.8428 47.289 65.2745 46.8572C65.7062 46.4255 65.9488 45.84 65.9488 45.2294V31.4168C65.9488 30.8063 65.7062 30.2207 65.2745 29.789C64.8428 29.3573 64.2572 29.1147 63.6467 29.1147ZM31.4173 45.2294V31.4168H63.6467V45.2294H31.4173Z" fill="#A4B0BE"/>
<path d="M75.1566 41.7762H72.8545V33.5232C72.8549 31.727 72.499 29.9487 71.8075 28.291C71.1159 26.6333 70.1025 25.1293 68.8258 23.8659V14.151C68.8258 13.8458 68.7045 13.553 68.4887 13.3371C68.2728 13.1213 67.98 13 67.6748 13H60.7685C60.4632 13 60.1704 13.1213 59.9546 13.3371C59.7387 13.553 59.6174 13.8458 59.6174 14.151V19.9063H59.2376H56.7398V16.4531C56.7398 15.5373 56.376 14.659 55.7284 14.0114C55.0808 13.3638 54.2025 13 53.2867 13H41.7762C40.8604 13 39.982 13.3638 39.3344 14.0114C38.6869 14.659 38.323 15.5373 38.323 16.4531V19.9063H35.8253H35.4454V14.151C35.4454 13.8458 35.3242 13.553 35.1083 13.3371C34.8924 13.1213 34.5997 13 34.2944 13H27.3881C27.0828 13 26.79 13.1213 26.5742 13.3371C26.3583 13.553 26.237 13.8458 26.237 14.151V23.8659C24.9603 25.1293 23.9469 26.6333 23.2554 28.291C22.5639 29.9487 22.208 31.727 22.2084 33.5232V41.7762H19.9063C18.0746 41.7762 16.318 42.5038 15.0228 43.799C13.7276 45.0942 13 46.8508 13 48.6825V77.4587C13 77.7639 13.1213 78.0567 13.3371 78.2726C13.553 78.4884 13.8458 78.6097 14.151 78.6097H22.2084V80.9118C22.2084 81.2171 22.3297 81.5099 22.5455 81.7257C22.7614 81.9416 23.0542 82.0629 23.3594 82.0629H71.7034C72.0087 82.0629 72.3015 81.9416 72.5173 81.7257C72.7332 81.5099 72.8545 81.2171 72.8545 80.9118V78.6097H80.9118C81.2171 78.6097 81.5099 78.4884 81.7257 78.2726C81.9416 78.0567 82.0629 77.7639 82.0629 77.4587V48.6825C82.0629 46.8508 81.3352 45.0942 80.04 43.799C78.7449 42.5038 76.9882 41.7762 75.1566 41.7762V41.7762ZM75.1566 44.0783C76.3777 44.0783 77.5488 44.5634 78.4122 45.4268C79.2757 46.2903 79.7608 47.4614 79.7608 48.6825V53.2867H72.8545V44.0783H75.1566ZM61.9195 15.3021H66.5237V22.0357C65.1153 21.139 63.555 20.507 61.9195 20.171V15.3021ZM40.6251 16.4531C40.6251 16.1479 40.7464 15.8551 40.9623 15.6392C41.1781 15.4234 41.4709 15.3021 41.7762 15.3021H53.2867C53.5919 15.3021 53.8847 15.4234 54.1006 15.6392C54.3164 15.8551 54.4377 16.1479 54.4377 16.4531V19.9063H40.6251V16.4531ZM28.5391 15.3021H33.1433V20.171C31.5079 20.507 29.9475 21.139 28.5391 22.0357V15.3021ZM15.3021 48.6825C15.3021 47.4614 15.7872 46.2903 16.6506 45.4268C17.5141 44.5634 18.6852 44.0783 19.9063 44.0783H22.2084V53.2867H15.3021V48.6825ZM15.3021 76.3076V55.5888H22.2084V76.3076H15.3021ZM70.5524 79.7608H24.5105V33.5232C24.5135 30.5232 25.7066 27.647 27.8279 25.5258C29.9491 23.4045 32.8253 22.2114 35.8253 22.2084H59.2376C62.2375 22.2114 65.1137 23.4045 67.235 25.5258C69.3563 27.647 70.5493 30.5232 70.5524 33.5232V79.7608ZM79.7608 76.3076H72.8545V55.5888H79.7608V76.3076Z" fill="#A4B0BE"/>
</svg>
