<svg width="96" height="96" viewBox="0 0 96 96" fill="none" xmlns="http://www.w3.org/2000/svg">
<path d="M62.147 71.2429H67.6543V76.7503H62.147V71.2429Z" fill="#FF4757"/>
<path d="M27.5636 71.0549C27.0573 71.0549 26.6449 71.4673 26.6449 71.9737C26.6449 72.4801 27.0573 72.8924 27.5636 72.8924H55.1838C55.6901 72.8924 56.1025 72.4801 56.1025 71.9737C56.1025 71.4673 55.6901 71.0549 55.1838 71.0549H27.5636Z" fill="#A4B0BE"/>
<path d="M27.5636 75.1111C27.0573 75.1111 26.6449 75.5235 26.6449 76.0298C26.6449 76.5362 27.0573 76.9486 27.5636 76.9486H55.1838C55.6901 76.9486 56.1025 76.5362 56.1025 76.0298C56.1025 75.5235 55.6901 75.1111 55.1838 75.1111H27.5636Z" fill="#A4B0BE"/>
<path d="M60.3098 70.3243V77.6691C60.3098 78.1755 60.7222 78.5879 61.2286 78.5879H68.5734C69.0798 78.5879 69.4922 78.1755 69.4922 77.6691V70.3243C69.4922 69.8179 69.0798 69.4055 68.5734 69.4055H61.2286C60.7222 69.4107 60.3098 69.8179 60.3098 70.3243ZM62.1473 76.7556V71.2483H67.6547V76.7556H62.1473Z" fill="#A4B0BE"/>
<path d="M76.2992 8.91876V10.8085L77.787 9.63915C78.0167 9.45644 78.1367 9.19021 78.1367 8.91876C78.1367 8.9031 78.1367 8.88744 78.1367 8.87178C78.1367 8.83524 78.1315 8.79869 78.1263 8.76215C78.1263 8.75171 78.1211 8.74127 78.1211 8.73605C78.1106 8.68385 78.095 8.63687 78.0793 8.58988C78.0741 8.57944 78.0689 8.569 78.0636 8.55334C78.048 8.5168 78.0323 8.48548 78.0114 8.44894C78.0062 8.44372 78.0062 8.4385 78.001 8.42806C77.9958 8.41762 77.9906 8.4124 77.9853 8.40196C77.9801 8.39674 77.9749 8.3863 77.9697 8.38108C77.9645 8.37063 77.954 8.3602 77.9488 8.34976C77.9018 8.29233 77.8548 8.24013 77.7974 8.19837C77.787 8.18793 77.7765 8.18271 77.7661 8.17227C77.7504 8.16183 77.7348 8.14617 77.7139 8.13573C77.6826 8.11485 77.6565 8.09918 77.6251 8.08352C77.6095 8.0783 77.5938 8.06786 77.5782 8.06264C77.5573 8.0522 77.5416 8.04698 77.5207 8.04176C77.5103 8.03654 77.4946 8.03132 77.4842 8.03132C77.4685 8.0261 77.4529 8.02088 77.4372 8.02088C77.4372 8.02088 77.4372 8.02088 77.432 8.02088C77.4215 8.01566 77.4111 8.01566 77.3954 8.01566C77.338 8.00522 77.2858 8 77.2284 8C77.2127 8 77.1971 8 77.1814 8C77.1449 8 77.1083 8.00522 77.0718 8.01044C77.0614 8.01044 77.0509 8.01566 77.0457 8.01566C76.9935 8.0261 76.9465 8.04176 76.8995 8.05742C76.8891 8.06264 76.8786 8.06786 76.863 8.07308C76.8264 8.08874 76.7951 8.1044 76.7586 8.12528C76.7534 8.13051 76.7481 8.13051 76.7377 8.13573C76.7273 8.14095 76.722 8.14617 76.7116 8.15139C76.7064 8.15661 76.6959 8.16183 76.6907 8.16705C76.6803 8.17227 76.6698 8.18271 76.6594 8.18793L76.6437 8.19837C76.4297 8.37586 76.2992 8.63165 76.2992 8.91876Z" fill="#A4B0BE"/>
<path d="M76.6538 8.19356C76.6644 8.18826 76.675 8.17766 76.6855 8.17236C76.6697 8.17766 76.6644 8.18826 76.6538 8.19356Z" fill="#A4B0BE"/>
<path d="M76.7043 8.15773C76.7099 8.15211 76.7212 8.14649 76.7324 8.14087C76.7212 8.14649 76.7099 8.15211 76.7043 8.15773Z" fill="#A4B0BE"/>
<path d="M76.7247 8.14228C76.7306 8.13645 76.7364 8.13645 76.748 8.13062C76.7422 8.13645 76.7306 8.13645 76.7247 8.14228Z" fill="#A4B0BE"/>
<path d="M76.8514 8.0787C76.8621 8.07338 76.8727 8.06806 76.8887 8.06274C76.8727 8.06806 76.8621 8.07338 76.8514 8.0787Z" fill="#A4B0BE"/>
<path d="M77.0276 8.02125C77.0388 8.02125 77.05 8.01562 77.0557 8.01562C77.05 8.01563 77.0388 8.01563 77.0276 8.02125Z" fill="#A4B0BE"/>
<path d="M77.3846 8.01562C77.3953 8.01562 77.4059 8.02094 77.4219 8.02094C77.4059 8.02094 77.3953 8.01562 77.3846 8.01562Z" fill="#A4B0BE"/>
<path d="M77.4206 8.021C77.4367 8.02634 77.4527 8.02634 77.4688 8.03169C77.4527 8.03169 77.4367 8.02634 77.4206 8.021Z" fill="#A4B0BE"/>
<path d="M77.4677 8.03662C77.4783 8.04194 77.4942 8.04194 77.5049 8.04726C77.4942 8.04194 77.4836 8.03662 77.4677 8.03662Z" fill="#A4B0BE"/>
<path d="M77.5661 8.06787C77.5822 8.07322 77.5982 8.07857 77.6143 8.08926C77.5982 8.08391 77.5822 8.07322 77.5661 8.06787Z" fill="#A4B0BE"/>
<path d="M77.6138 8.08862C77.6453 8.10439 77.6768 8.12017 77.7031 8.14119C77.6716 8.12017 77.6453 8.10439 77.6138 8.08862Z" fill="#A4B0BE"/>
<path d="M77.7553 8.17236C77.7659 8.17766 77.7765 8.18826 77.7871 8.19885C77.7765 8.18826 77.7659 8.18296 77.7553 8.17236Z" fill="#A4B0BE"/>
<path d="M77.9437 8.34985C77.949 8.36045 77.9595 8.37104 77.9648 8.38164C77.9595 8.37104 77.949 8.36045 77.9437 8.34985Z" fill="#A4B0BE"/>
<path d="M77.9792 8.40723C77.9849 8.41285 77.9905 8.42409 77.9961 8.43534C77.9905 8.42409 77.9849 8.41285 77.9792 8.40723Z" fill="#A4B0BE"/>
<path d="M77.9942 8.42798C78 8.43381 78 8.43964 78.0059 8.45131C78 8.44547 78 8.43381 77.9942 8.42798Z" fill="#A4B0BE"/>
<path d="M78.0583 8.55322C78.0636 8.56386 78.0689 8.57449 78.0742 8.59045C78.0689 8.57449 78.0636 8.56386 78.0583 8.55322Z" fill="#A4B0BE"/>
<path d="M78.1155 8.73071C78.1155 8.74196 78.1211 8.7532 78.1211 8.75882C78.1211 8.7532 78.1211 8.74196 78.1155 8.73071Z" fill="#A4B0BE"/>
<path d="M19.8369 35.8969V86.3451H76.2988V10.8085L71.9556 14.2278C71.6215 14.4888 71.1517 14.4888 70.8176 14.2278L65.5608 10.0881L60.2989 14.233C59.9648 14.494 59.4949 14.494 59.1608 14.233L53.9041 10.0881L48.6421 14.233C48.308 14.494 47.8382 14.494 47.5041 14.233L42.2421 10.0881L36.9801 14.233C36.646 14.494 36.1762 14.494 35.8421 14.233L30.5801 10.0881L25.3182 14.233C25.1511 14.3635 24.9528 14.4314 24.7492 14.4314C24.5456 14.4314 24.3472 14.3635 24.1802 14.233L19.8213 10.8033C19.8369 18.9364 19.8369 33.6209 19.8369 35.8969ZM26.6441 57.0544C26.6441 56.5481 27.0565 56.1357 27.5629 56.1357H55.183C55.6894 56.1357 56.1018 56.5481 56.1018 57.0544C56.1018 57.5608 55.6894 57.9732 55.183 57.9732H27.5629C27.0565 57.968 26.6441 57.5608 26.6441 57.0544ZM26.6441 61.1053C26.6441 60.5989 27.0565 60.1865 27.5629 60.1865H55.183C55.6894 60.1865 56.1018 60.5989 56.1018 61.1053C56.1018 61.6117 55.6894 62.0241 55.183 62.0241H27.5629C27.0565 62.0241 26.6441 61.6117 26.6441 61.1053ZM26.6441 71.9738C26.6441 71.4674 27.0565 71.055 27.5629 71.055H55.183C55.6894 71.055 56.1018 71.4674 56.1018 71.9738C56.1018 72.4802 55.6894 72.8926 55.183 72.8926H27.5629C27.0565 72.8873 26.6441 72.4802 26.6441 71.9738ZM26.6441 76.0247C26.6441 75.5183 27.0565 75.1059 27.5629 75.1059H55.183C55.6894 75.1059 56.1018 75.5183 56.1018 76.0247C56.1018 76.531 55.6894 76.9434 55.183 76.9434H27.5629C27.0565 76.9434 26.6441 76.531 26.6441 76.0247ZM34.2186 33.9132C34.2186 26.276 40.4307 20.0692 48.0679 20.0692C55.7051 20.0692 61.9171 26.2812 61.9171 33.9132C61.9171 41.5504 55.7051 47.7624 48.0679 47.7624C40.4307 47.7624 34.2186 41.5504 34.2186 33.9132ZM60.3093 77.6691V70.3242C60.3093 69.8178 60.7217 69.4055 61.2281 69.4055H68.5729C69.0793 69.4055 69.4917 69.8178 69.4917 70.3242V77.6691C69.4917 78.1754 69.0793 78.5878 68.5729 78.5878H61.2281C60.7217 78.5878 60.3093 78.1806 60.3093 77.6691ZM60.3093 62.7497V55.4048C60.3093 54.8985 60.7217 54.4861 61.2281 54.4861H68.5729C69.0793 54.4861 69.4917 54.8985 69.4917 55.4048V62.7497C69.4917 63.256 69.0793 63.6684 68.5729 63.6684H61.2281C60.7217 63.6684 60.3093 63.2613 60.3093 62.7497Z" fill="#DFE4EA"/>
<path d="M48.0684 21.9067C41.4439 21.9067 36.0566 27.294 36.0566 33.9185C36.0566 40.5429 41.4439 45.9302 48.0684 45.9302C54.6928 45.9302 60.0801 40.5377 60.0801 33.9132C60.0801 27.294 54.6928 21.9067 48.0684 21.9067ZM43.887 36.2049C43.887 35.5419 44.0279 34.9834 44.2994 34.5397C44.576 34.0959 44.9623 33.7357 45.453 33.48C45.9542 33.2137 46.7476 32.9527 47.8073 32.7021C48.9193 32.4411 49.6083 32.1906 49.9059 31.9348C50.1617 31.7207 50.287 31.4545 50.287 31.1517C50.287 30.8176 50.146 30.5462 49.8746 30.3478C49.483 30.0659 48.9454 29.9198 48.2719 29.9198C47.6142 29.9198 47.1131 30.0555 46.7737 30.3217C46.5858 30.4731 46.4292 30.6767 46.3144 30.9273C46.163 31.2561 45.8289 31.4702 45.4583 31.4702C45.4426 31.4702 45.4321 31.4702 45.4165 31.4702H45.3643C45.0354 31.4545 44.7431 31.277 44.5813 30.9899C44.4194 30.708 44.4194 30.3687 44.5708 30.0816C44.7379 29.7788 44.9571 29.5022 45.2338 29.262C45.6984 28.8548 46.3352 28.5938 47.1392 28.4738V26.5997C47.1392 26.0934 47.5516 25.681 48.0579 25.681C48.5643 25.681 48.9767 26.0934 48.9767 26.5997V28.432C49.4883 28.4842 49.9476 28.5938 50.3444 28.7661C50.9082 29.0062 51.3467 29.3612 51.6442 29.8206C51.9418 30.28 52.0931 30.7811 52.0931 31.3031C52.0931 32.1331 51.7799 32.817 51.1326 33.3964C50.6732 33.8088 49.8537 34.1586 48.7 34.4457C47.7656 34.6806 47.1809 34.8372 46.9095 34.9312C46.5023 35.0773 46.2204 35.2496 46.0481 35.4532C45.8706 35.662 45.7819 35.9178 45.7819 36.2154C45.7819 36.6643 45.9855 37.061 46.377 37.3899C46.7633 37.7136 47.3428 37.8806 48.0892 37.8806C48.7992 37.8806 49.3734 37.6979 49.7962 37.3325C50.0573 37.108 50.2661 36.8105 50.4175 36.4346C50.5584 36.0848 50.9029 35.8552 51.284 35.8552C51.3153 35.8552 51.3467 35.8552 51.378 35.8604C51.6755 35.8917 51.9418 36.0535 52.0984 36.3093C52.2498 36.5599 52.2811 36.8627 52.1714 37.1341C51.9522 37.6875 51.6285 38.1521 51.2109 38.5122C50.6576 38.9873 49.9111 39.2796 48.9715 39.3892V41.232C48.9715 41.7383 48.5591 42.1507 48.0527 42.1507C47.5463 42.1507 47.1339 41.7383 47.1339 41.232V39.3788C46.6224 39.3162 46.1682 39.2065 45.7819 39.0447C45.1764 38.7889 44.7013 38.3974 44.3724 37.8806C44.054 37.3638 43.887 36.8 43.887 36.2049Z" fill="#EEC647"/>
<path d="M62.147 56.3235H67.6543V61.8308H62.147V56.3235Z" fill="#FF4757"/>
<path d="M17.9998 35.8968V87.2638C17.9998 87.7701 18.4122 88.1825 18.9186 88.1825H77.218C77.7243 88.1825 78.1367 87.7701 78.1367 87.2638V8.91876C78.1367 9.19021 78.0167 9.45644 77.787 9.63915L76.2992 10.8085V86.345H19.8373V35.8968C19.8373 33.6208 19.8373 18.9364 19.8426 10.798L18.3705 9.63915C17.9737 9.32593 17.9059 8.74649 18.2191 8.34976C18.3913 8.13573 18.6367 8.01566 18.8925 8C18.4018 8.01566 18.0103 8.42284 18.0103 8.91876C17.9998 16.415 17.9998 33.4329 17.9998 35.8968Z" fill="#A4B0BE"/>
<path d="M18.2134 8.34976C17.9002 8.74649 17.9681 9.32593 18.3648 9.63915L19.8369 10.798C19.8369 10.1246 19.8369 9.49298 19.8369 8.91876C19.8369 8.4124 19.4297 8.00522 18.9286 8C18.9129 8 18.8973 8 18.8868 8C18.631 8.01566 18.3857 8.13573 18.2134 8.34976Z" fill="#A4B0BE"/>
<path d="M19.5028 8.19837C19.3305 8.06264 19.1269 8 18.9286 8C19.4297 8.00522 19.8369 8.4124 19.8369 8.91876C19.8369 9.49298 19.8369 10.1246 19.8369 10.798L24.1957 14.2277C24.3628 14.3582 24.5612 14.4261 24.7648 14.4261C24.9631 14.4261 25.1667 14.3582 25.3338 14.2277L30.5905 10.0881L35.8525 14.2329C36.1866 14.4939 36.6564 14.4939 36.9905 14.2329L42.2525 10.0881L47.5145 14.2329C47.8485 14.4939 48.3184 14.4939 48.6525 14.2329L53.904 10.0881L59.166 14.2329C59.5001 14.4939 59.9699 14.4939 60.304 14.2329L65.5607 10.0881L70.8175 14.2329C71.1516 14.4939 71.6214 14.4939 71.9555 14.2329L76.2987 10.8137V8.92398C76.2987 8.63687 76.4292 8.3863 76.6328 8.21403L71.3917 12.3432L66.1297 8.19837C65.7956 7.93736 65.3258 7.93736 64.9917 8.19837L59.7298 12.3432L54.473 8.19837C54.1389 7.93736 53.6691 7.93736 53.335 8.19837L48.073 12.3432L42.811 8.19837C42.4769 7.93736 42.0071 7.93736 41.673 8.19837L36.4111 12.3432L31.1491 8.19837C30.815 7.93736 30.3452 7.93736 30.0111 8.19837L24.7491 12.3432L19.5028 8.19837Z" fill="#A4B0BE"/>
<path d="M27.5636 56.1357C27.0573 56.1357 26.6449 56.5481 26.6449 57.0545C26.6449 57.5609 27.0573 57.9733 27.5636 57.9733H55.1838C55.6901 57.9733 56.1025 57.5609 56.1025 57.0545C56.1025 56.5481 55.6901 56.1357 55.1838 56.1357H27.5636Z" fill="#A4B0BE"/>
<path d="M27.5636 60.1865C27.0573 60.1865 26.6449 60.5989 26.6449 61.1053C26.6449 61.6116 27.0573 62.024 27.5636 62.024H55.1838C55.6901 62.024 56.1025 61.6116 56.1025 61.1053C56.1025 60.5989 55.6901 60.1865 55.1838 60.1865H27.5636Z" fill="#A4B0BE"/>
<path d="M48.0687 20.0691C40.4316 20.0691 34.2195 26.2812 34.2195 33.9131C34.2195 41.5503 40.4316 47.7623 48.0687 47.7623C55.7059 47.7623 61.918 41.5503 61.918 33.9131C61.918 26.2812 55.7059 20.0691 48.0687 20.0691ZM36.057 33.9131C36.057 27.2887 41.4443 21.9014 48.0687 21.9014C54.6932 21.9014 60.0805 27.2939 60.0805 33.9131C60.0805 40.5376 54.6932 45.9248 48.0687 45.9248C41.4443 45.9248 36.057 40.5376 36.057 33.9131Z" fill="#A4B0BE"/>
<path d="M44.3043 34.5345C44.0276 34.9782 43.8919 35.542 43.8919 36.1997C43.8919 36.7948 44.0589 37.3638 44.393 37.8858C44.7219 38.4079 45.1969 38.7994 45.8025 39.05C46.1888 39.2118 46.6429 39.3214 47.1545 39.384V39.0552C47.1545 38.5488 47.5669 38.1364 48.0733 38.1364C48.5796 38.1364 48.992 38.5488 48.992 39.0552V39.3945C49.9265 39.2849 50.6782 38.9925 51.2315 38.5175C51.6491 38.1573 51.9728 37.6927 52.192 37.1394C52.3017 36.8679 52.2756 36.5651 52.119 36.3146C51.9623 36.0588 51.7013 35.8917 51.3986 35.8656C51.3672 35.8656 51.3359 35.8604 51.3046 35.8604C50.9183 35.8604 50.579 36.0849 50.438 36.4398C50.2867 36.8105 50.0778 37.1133 49.8168 37.3377C49.394 37.6979 48.8198 37.8858 48.1098 37.8858C47.3633 37.8858 46.7891 37.7188 46.3976 37.3951C46.0009 37.0663 45.8025 36.6695 45.8025 36.2206C45.8025 35.923 45.8912 35.6673 46.0687 35.4584C46.241 35.2549 46.5229 35.0826 46.93 34.9364C47.1963 34.8425 47.7809 34.6859 48.7206 34.4509C49.8795 34.1638 50.6991 33.8089 51.1532 33.4017C51.8005 32.8222 52.1137 32.1384 52.1137 31.3084C52.1137 30.7811 51.9623 30.2852 51.6648 29.8258C51.3672 29.3665 50.9287 29.0115 50.365 28.7714C49.9682 28.6043 49.5088 28.4895 48.9973 28.4373V28.7557C48.9973 29.262 48.5849 29.6744 48.0785 29.6744C47.5721 29.6744 47.1597 29.262 47.1597 28.7557V28.479C46.361 28.5991 45.719 28.8653 45.2544 29.2673C44.9777 29.5074 44.7532 29.7788 44.5914 30.0868C44.4348 30.374 44.44 30.708 44.6018 30.9952C44.7637 31.2823 45.056 31.465 45.3849 31.4754H45.4371C45.4527 31.4754 45.4632 31.4754 45.4788 31.4754C45.8442 31.4754 46.1836 31.2614 46.3349 30.9325C46.4498 30.6819 46.6064 30.4784 46.7943 30.327C47.1336 30.0607 47.6348 29.925 48.2925 29.925C48.9659 29.925 49.5036 30.066 49.8951 30.3531C50.1718 30.5514 50.3075 30.8229 50.3075 31.157C50.3075 31.4598 50.177 31.726 49.9265 31.94C49.6237 32.1906 48.9398 32.4412 47.8279 32.7074C46.7682 32.958 45.9748 33.219 45.4736 33.4852C44.9673 33.7306 44.5757 34.0907 44.3043 34.5345Z" fill="#A4B0BE"/>
<path d="M47.1498 39.384V41.2372C47.1498 41.7436 47.5622 42.156 48.0685 42.156C48.5749 42.156 48.9873 41.7436 48.9873 41.2372V39.3945C48.7159 39.4258 48.4287 39.4415 48.1312 39.4415C47.7814 39.4415 47.4526 39.4206 47.1498 39.384Z" fill="#A4B0BE"/>
<path d="M47.1491 39.0551V39.384C47.4519 39.4205 47.7808 39.4362 48.1253 39.4362C48.4281 39.4362 48.7152 39.4205 48.9814 39.3892V39.0499C48.9814 38.5435 48.569 38.1311 48.0627 38.1311C47.5615 38.1363 47.1491 38.5487 47.1491 39.0551Z" fill="#A4B0BE"/>
<path d="M47.1498 28.4684V28.7451C47.1498 29.2515 47.5622 29.6639 48.0685 29.6639C48.5749 29.6639 48.9873 29.2515 48.9873 28.7451V28.4267C48.7524 28.4006 48.5123 28.3901 48.2565 28.3901C47.8597 28.3901 47.4891 28.4162 47.1498 28.4684Z" fill="#A4B0BE"/>
<path d="M47.1498 26.5943V28.4684C47.4891 28.4162 47.8597 28.39 48.2565 28.39C48.5123 28.39 48.7576 28.4005 48.9873 28.4266V26.5943C48.9873 26.0879 48.5749 25.6755 48.0685 25.6755C47.5622 25.6755 47.1498 26.0879 47.1498 26.5943Z" fill="#A4B0BE"/>
<path d="M60.3098 55.4048V62.7497C60.3098 63.2561 60.7222 63.6684 61.2286 63.6684H68.5734C69.0798 63.6684 69.4922 63.2561 69.4922 62.7497V55.4048C69.4922 54.8985 69.0798 54.4861 68.5734 54.4861H61.2286C60.7222 54.4913 60.3098 54.8985 60.3098 55.4048ZM62.1473 61.8362V56.3288H67.6547V61.8362H62.1473Z" fill="#A4B0BE"/>
</svg>
