<svg width="96" height="96" viewBox="0 0 96 96" fill="none" xmlns="http://www.w3.org/2000/svg">
<path d="M85.9656 22.0903H10.4801C8.00582 22.0903 6 24.082 6 26.5389V79.5016C6 81.9585 8.00582 83.9502 10.4801 83.9502H85.9656C88.4399 83.9502 90.4457 81.9585 90.4457 79.5016V26.5389C90.4457 24.082 88.4399 22.0903 85.9656 22.0903Z" fill="#A4B0BE"/>
<path d="M86.7712 25.512H9.33301V80.5664H86.7712V25.512Z" fill="#DFE4EA"/>
<path d="M86.7712 25.512H9.33301V77.5512H86.7712V25.512Z" fill="#EEC647"/>
<path d="M48.0521 25.512H9.33301V77.5512H48.0521V25.512Z" fill="#D1AD3C"/>
<path d="M48.0539 25.512L18.4512 12V68.708L48.0539 77.549V25.512Z" fill="#EEC647"/>
<path d="M50.8016 17.7988H51.6184C52.3469 17.7988 53.0456 18.0862 53.5608 18.5977C54.0759 19.1092 54.3653 19.803 54.3653 20.5264V59.5367H48.0547V20.5264C48.0547 19.803 48.3441 19.1092 48.8592 18.5977C49.3744 18.0862 50.0731 17.7988 50.8016 17.7988V17.7988Z" fill="#A4B0BE"/>
<path d="M48.0547 59.5481V62.707L51.2111 60.5322L54.3676 62.707V59.5481H48.0547Z" fill="#A4B0BE"/>
<path d="M84.3248 52.6687H56.9961V54.4077H84.3248V52.6687Z" fill="#DFE4EA"/>
<path d="M84.3248 48.5925H56.9961V50.3315H84.3248V48.5925Z" fill="#DFE4EA"/>
<path d="M84.3248 57.1035H56.9961V58.8425H84.3248V57.1035Z" fill="#DFE4EA"/>
<path d="M84.3248 61.4399H56.9961V63.1789H84.3248V61.4399Z" fill="#DFE4EA"/>
<path d="M84.3248 65.4683H56.9961V67.2073H84.3248V65.4683Z" fill="#DFE4EA"/>
<path d="M60.626 42.9614C60.0973 42.9614 59.833 42.697 59.833 42.1684V36.8523C59.833 36.3237 60.0973 36.0594 60.626 36.0594H62.5351C63.7099 36.0594 64.6204 36.3596 65.2665 36.96C65.9127 37.554 66.2357 38.4024 66.2357 39.5055C66.2357 40.6085 65.9127 41.4602 65.2665 42.0607C64.6204 42.6611 63.7099 42.9614 62.5351 42.9614H60.626ZM61.3505 41.718H62.447C63.9155 41.718 64.6497 40.9805 64.6497 39.5055C64.6497 38.037 63.9155 37.3027 62.447 37.3027H61.3505V41.718Z" fill="#FF4757"/>
<path d="M68.1195 43.0495C67.6496 43.0495 67.4146 42.8047 67.4146 42.3152V36.7349C67.4146 36.4869 67.4733 36.2976 67.5908 36.167C67.7148 36.0365 67.878 35.9712 68.0803 35.9712C68.25 35.9712 68.3838 36.0071 68.4817 36.0789C68.5796 36.1442 68.6906 36.2552 68.8146 36.4118L71.9866 40.4551V36.6957C71.9866 36.2127 72.2215 35.9712 72.6915 35.9712C73.1614 35.9712 73.3964 36.2127 73.3964 36.6957V42.3446C73.3964 42.56 73.3409 42.7329 73.2299 42.8635C73.119 42.9875 72.9689 43.0495 72.7796 43.0495C72.5968 43.0495 72.45 43.0136 72.339 42.9418C72.2346 42.87 72.1204 42.7558 71.9964 42.5991L68.8244 38.5558V42.3152C68.8244 42.8047 68.5894 43.0495 68.1195 43.0495Z" fill="#FF4757"/>
<path d="M77.253 43.0691C76.8353 43.0691 76.4176 43.0234 75.9998 42.932C75.5821 42.8406 75.2199 42.7068 74.9131 42.5306C74.7304 42.4327 74.6162 42.3022 74.5705 42.139C74.5248 41.9693 74.5346 41.8061 74.5999 41.6495C74.6651 41.4929 74.7695 41.3819 74.9131 41.3166C75.0567 41.2514 75.2297 41.2677 75.432 41.3656C75.6931 41.5157 75.9835 41.6267 76.3033 41.6985C76.6231 41.7702 76.9397 41.8061 77.253 41.8061C77.7229 41.8061 78.059 41.7343 78.2614 41.5908C78.4702 41.4406 78.5746 41.2546 78.5746 41.0327C78.5746 40.8434 78.5028 40.6933 78.3593 40.5824C78.2157 40.4714 77.9644 40.3768 77.6054 40.2985L76.4991 40.0635C75.2656 39.8024 74.6488 39.1628 74.6488 38.1446C74.6488 37.7074 74.7663 37.3255 75.0012 36.9992C75.2362 36.6663 75.5625 36.4085 75.9803 36.2258C76.4045 36.043 76.894 35.9517 77.4488 35.9517C77.8143 35.9517 78.1732 35.9973 78.5257 36.0887C78.8781 36.1736 79.1882 36.3008 79.4557 36.4705C79.6189 36.5684 79.7201 36.6957 79.7592 36.8523C79.7984 37.009 79.7853 37.1591 79.7201 37.3027C79.6613 37.4463 79.5569 37.5474 79.4068 37.6062C79.2632 37.6649 79.0837 37.6421 78.8683 37.5377C78.653 37.4267 78.4245 37.3451 78.183 37.2929C77.9415 37.2407 77.6935 37.2146 77.439 37.2146C77.0278 37.2146 76.708 37.2962 76.4796 37.4593C76.2576 37.616 76.1467 37.8216 76.1467 38.0761C76.1467 38.2654 76.2152 38.4188 76.3523 38.5362C76.4893 38.6537 76.7276 38.7484 77.067 38.8202L78.1732 39.0551C79.4394 39.3292 80.0725 39.9493 80.0725 40.9152C80.0725 41.346 79.955 41.7246 79.7201 42.0509C79.4916 42.3707 79.1653 42.622 78.7411 42.8047C78.3234 42.981 77.8273 43.0691 77.253 43.0691Z" fill="#FF4757"/>
</svg>
