<svg width="96" height="96" viewBox="0 0 96 96" fill="none" xmlns="http://www.w3.org/2000/svg">
<path d="M12.1865 40.0119C12.1865 34.7882 16.4212 30.5535 21.645 30.5535H80.2783C85.502 30.5535 89.7365 34.7882 89.7365 40.0119V75.5114C89.7365 80.7349 85.502 84.9702 80.2783 84.9702H21.645C16.4212 84.9702 12.1865 80.7349 12.1865 75.5114V40.0119Z" fill="#A4B0BE"/>
<path d="M8.57617 33.2488C8.57617 29.7662 11.3993 26.9431 14.8818 26.9431H79.8207C83.303 26.9431 86.1265 29.7662 86.1265 33.2488V75.0539C86.1265 78.5367 83.303 81.3594 79.8207 81.3594H14.8818C11.3993 81.3594 8.57617 78.5367 8.57617 75.0539V33.2488Z" fill="#DFE4EA"/>
<path fill-rule="evenodd" clip-rule="evenodd" d="M14.8821 25.3665H79.8209C84.1743 25.3665 87.7033 28.8954 87.7033 33.2486V75.0537C87.7033 79.4068 84.1743 82.9358 79.8209 82.9358H14.8821C10.5289 82.9358 7 79.4068 7 75.0537V33.2486C7 28.8954 10.5289 25.3665 14.8821 25.3665ZM14.8821 26.9429C11.3995 26.9429 8.57639 29.766 8.57639 33.2486V75.0537C8.57639 78.5365 11.3995 81.3592 14.8821 81.3592H79.8209C83.3032 81.3592 86.1267 78.5365 86.1267 75.0537V33.2486C86.1267 29.766 83.3032 26.9429 79.8209 26.9429H14.8821Z" fill="#A4B0BE"/>
<path d="M38.6445 31.4562C38.6445 30.0437 39.7895 28.8987 41.2019 28.8987H53.5001C54.9126 28.8987 56.0576 30.0437 56.0576 31.4562C56.0576 32.8686 54.9126 34.0136 53.5001 34.0136H41.2019C39.7895 34.0136 38.6445 32.8686 38.6445 31.4562Z" fill="#A4B0BE"/>
<path fill-rule="evenodd" clip-rule="evenodd" d="M20.3035 41.012H38.4438C41.0557 41.012 43.1731 43.1293 43.1731 45.7411V69.8784C43.1731 72.4903 41.0557 74.6076 38.4438 74.6076H20.3035C17.6915 74.6076 15.5742 72.4903 15.5742 69.8784V45.7411C15.5742 43.1293 17.6915 41.012 20.3035 41.012ZM20.3035 42.5884C18.5622 42.5884 17.1506 43.9999 17.1506 45.7411V69.8784C17.1506 71.6196 18.5622 73.0312 20.3035 73.0312H38.4438C40.1851 73.0312 41.5966 71.6196 41.5966 69.8784V45.7411C41.5966 43.9999 40.1851 42.5884 38.4438 42.5884H20.3035Z" fill="#EEC647"/>
<path fill-rule="evenodd" clip-rule="evenodd" d="M23.6365 62.6658C24.066 63.667 24.9787 64.4037 26.1885 64.9079C27.496 65.4527 29.0529 65.6801 30.4062 65.6801C31.7595 65.6801 33.3164 65.4527 34.6239 64.9079C35.8338 64.4037 36.7465 63.667 37.176 62.6658C36.7355 61.703 35.6604 60.9507 34.2872 60.4226C32.8328 59.8632 31.2633 59.6423 30.4062 59.6423C29.5491 59.6423 27.9796 59.8632 26.5252 60.4226C25.1521 60.9507 24.0769 61.703 23.6365 62.6658ZM25.9593 58.9513C27.5982 58.321 29.3598 58.0659 30.4062 58.0659C31.4527 58.0659 33.2143 58.321 34.8531 58.9513C36.459 59.5689 38.1765 60.6374 38.768 62.4119C38.822 62.5737 38.822 62.7487 38.768 62.9104C38.1935 64.6341 36.7757 65.7191 35.2303 66.3631C33.6825 67.0079 31.9083 67.2565 30.4062 67.2565C28.9042 67.2565 27.1299 67.0079 25.5822 66.3631C24.0368 65.7191 22.619 64.6341 22.0443 62.9104C21.9904 62.7487 21.9904 62.5737 22.0443 62.4119C22.6359 60.6374 24.3534 59.5689 25.9593 58.9513Z" fill="#EEC647"/>
<path fill-rule="evenodd" clip-rule="evenodd" d="M27.4569 48.1896C27.1375 47.7031 26.574 47.4307 25.991 47.4858C25.3866 47.543 24.8689 47.942 24.6596 48.512C24.1496 49.9013 24.2735 51.215 25.1041 52.2105C25.2985 52.4435 25.5155 52.6387 25.7432 52.8022C25.6449 53.1783 25.5925 53.5728 25.5925 53.9791C25.5925 56.5452 27.6727 58.6253 30.2388 58.6253C32.774 58.6253 34.8351 56.5947 34.8841 54.0711C34.9082 53.8288 34.9421 53.3402 34.8875 52.9241C34.6814 51.0954 33.7992 49.8228 32.4641 49.1249C31.2533 48.4919 29.8599 48.4355 28.7599 48.4967C28.2056 48.5274 27.8551 48.4165 27.6618 48.3219C27.5318 48.2583 27.4712 48.2025 27.4569 48.1896ZM33.3228 53.117C33.0219 50.3715 30.8782 49.9578 28.8474 50.0707C28.3292 50.0995 27.8891 50.0448 27.5227 49.9449C26.74 49.7315 26.2932 49.3114 26.1395 49.0552C25.7861 50.0178 25.9184 50.6921 26.2775 51.1546C26.3236 51.214 26.3735 51.2699 26.4266 51.3225C26.8145 51.7069 27.373 51.9131 27.888 52.0046C27.5429 52.4151 27.3033 52.9173 27.211 53.4695C27.1834 53.6352 27.1689 53.8055 27.1689 53.9791C27.1689 55.6745 28.5434 57.0489 30.2388 57.0489C31.9342 57.0489 33.3086 55.6745 33.3086 53.9791C33.3292 53.8029 33.3608 53.3838 33.3228 53.117Z" fill="#EEC647"/>
<path fill-rule="evenodd" clip-rule="evenodd" d="M31.1055 62.2184C31.1055 61.7831 31.4584 61.4302 31.8937 61.4302H34.1502C34.5856 61.4302 34.9385 61.7831 34.9385 62.2184C34.9385 62.6537 34.5856 63.0066 34.1502 63.0066H31.8937C31.4584 63.0066 31.1055 62.6537 31.1055 62.2184Z" fill="#FF4757"/>
<path fill-rule="evenodd" clip-rule="evenodd" d="M47.7666 65.3715C47.7666 64.9361 48.1195 64.5833 48.5548 64.5833H64.6502C65.0855 64.5833 65.4384 64.9361 65.4384 65.3715C65.4384 65.8067 65.0855 66.1596 64.6502 66.1596H48.5548C48.1195 66.1596 47.7666 65.8067 47.7666 65.3715Z" fill="#A4B0BE"/>
<path fill-rule="evenodd" clip-rule="evenodd" d="M47.7666 60.5658C47.7666 60.1305 48.1195 59.7776 48.5548 59.7776H78.0404C78.476 59.7776 78.8287 60.1305 78.8287 60.5658C78.8287 61.0012 78.476 61.3541 78.0404 61.3541H48.5548C48.1195 61.3541 47.7666 61.0012 47.7666 60.5658Z" fill="#A4B0BE"/>
<path fill-rule="evenodd" clip-rule="evenodd" d="M47.7666 55.7519C47.7666 55.3165 48.1195 54.9636 48.5548 54.9636H78.0404C78.476 54.9636 78.8287 55.3165 78.8287 55.7519C78.8287 56.1871 78.476 56.54 78.0404 56.54H48.5548C48.1195 56.54 47.7666 56.1871 47.7666 55.7519Z" fill="#A4B0BE"/>
<path fill-rule="evenodd" clip-rule="evenodd" d="M47.7666 50.9377C47.7666 50.5023 48.1195 50.1494 48.5548 50.1494H78.0407C78.4755 50.1494 78.8291 50.5023 78.8291 50.9377C78.8291 51.373 78.4755 51.7259 78.0407 51.7259H48.5548C48.1195 51.7259 47.7666 51.373 47.7666 50.9377Z" fill="#A4B0BE"/>
<path d="M47.915 43.6792C47.915 42.7445 48.6728 41.9868 49.6074 41.9868H77.2878C78.2224 41.9868 78.9804 42.7445 78.9804 43.6792C78.9804 44.6139 78.2224 45.3717 77.2878 45.3717H49.6074C48.6728 45.3717 47.915 44.6139 47.915 43.6792Z" fill="#FF4757"/>
<path d="M43.1016 14.1529C43.1016 13.2822 43.8074 12.5764 44.678 12.5764H50.0248C50.8955 12.5764 51.6012 13.2822 51.6012 14.1529V31.2306H43.1016V14.1529Z" fill="white"/>
<path fill-rule="evenodd" clip-rule="evenodd" d="M53.177 32.8069H41.5244V14.1528C41.5244 12.4115 42.936 11 44.6772 11H50.0241C51.7654 11 53.177 12.4115 53.177 14.1528V32.8069ZM44.6772 12.5764C43.8066 12.5764 43.1008 13.2822 43.1008 14.1528V31.2305H51.6005V14.1528C51.6005 13.2822 50.8948 12.5764 50.0241 12.5764H44.6772Z" fill="#A4B0BE"/>
<path d="M49.5326 16.7887C49.5326 17.9934 48.556 18.9701 47.3513 18.9701C46.1466 18.9701 45.1699 17.9934 45.1699 16.7887C45.1699 15.584 46.1466 14.6074 47.3513 14.6074C48.556 14.6074 49.5326 15.584 49.5326 16.7887Z" fill="#A4B0BE"/>
</svg>
