<svg width="22" height="22" viewBox="0 0 22 22" fill="none" xmlns="http://www.w3.org/2000/svg">
<path d="M15.6168 0H6.39419C2.38819 0 0 2.387 0 6.391V15.598C0 19.613 2.38819 22 6.39419 22H15.6058C19.6118 22 22 19.613 22 15.609V6.391C22.011 2.387 19.6228 0 15.6168 0ZM7.12055 9.878C7.43971 9.559 7.96797 9.559 8.28713 9.878L10.1801 11.77V4.961C10.1801 4.51 10.5543 4.136 11.0055 4.136C11.4567 4.136 11.8309 4.51 11.8309 4.961V11.77L13.7238 9.878C14.043 9.559 14.5713 9.559 14.8904 9.878C15.2096 10.197 15.2096 10.725 14.8904 11.044L11.5888 14.344C11.5117 14.421 11.4237 14.476 11.3246 14.52C11.2256 14.564 11.1155 14.586 11.0055 14.586C10.8954 14.586 10.7964 14.564 10.6863 14.52C10.5873 14.476 10.4992 14.421 10.4222 14.344L7.12055 11.044C6.80139 10.725 6.80139 10.208 7.12055 9.878ZM17.8729 16.742C15.6608 17.479 13.3386 17.853 11.0055 17.853C8.67232 17.853 6.35016 17.479 4.13806 16.742C3.70885 16.599 3.47773 16.126 3.6208 15.697C3.76388 15.268 4.22611 15.026 4.66633 15.18C8.76036 16.544 13.2616 16.544 17.3556 15.18C17.7849 15.037 18.2581 15.268 18.4012 15.697C18.5332 16.137 18.3021 16.599 17.8729 16.742Z" fill="#1E90FF"/>
</svg>
