<svg width="96" height="96" viewBox="0 0 96 96" fill="none" xmlns="http://www.w3.org/2000/svg">
<path d="M14 28.3303H82.7152V70.143C82.7152 73.0329 81.5672 75.8043 79.5238 77.8477C77.4804 79.8912 74.7089 81.0391 71.8191 81.0391H24.8961C22.0063 81.0391 19.2348 79.8912 17.1914 77.8477C15.148 75.8043 14 73.0329 14 70.143V28.3303Z" fill="#DFE4EA"/>
<path d="M18.3584 18.9902H78.3568C79.5127 18.9902 80.6213 19.4494 81.4386 20.2668C82.256 21.0842 82.7152 22.1927 82.7152 23.3487V30.5096H14V23.3487C14 22.1927 14.4592 21.0842 15.2766 20.2668C16.0939 19.4494 17.2025 18.9902 18.3584 18.9902V18.9902Z" fill="#EEC647"/>
<path d="M21.5688 26.9747C23.4788 26.9747 25.0272 25.4263 25.0272 23.5163C25.0272 21.6063 23.4788 20.0579 21.5688 20.0579C19.6587 20.0579 18.1104 21.6063 18.1104 23.5163C18.1104 25.4263 19.6587 26.9747 21.5688 26.9747Z" fill="#A4B0BE"/>
<path d="M32.4125 26.9747C34.3226 26.9747 35.8709 25.4263 35.8709 23.5163C35.8709 21.6063 34.3226 20.0579 32.4125 20.0579C30.5025 20.0579 28.9541 21.6063 28.9541 23.5163C28.9541 25.4263 30.5025 26.9747 32.4125 26.9747Z" fill="#A4B0BE"/>
<path d="M43.2817 26.9747C45.1917 26.9747 46.7401 25.4263 46.7401 23.5163C46.7401 21.6063 45.1917 20.0579 43.2817 20.0579C41.3716 20.0579 39.8232 21.6063 39.8232 23.5163C39.8232 25.4263 41.3716 26.9747 43.2817 26.9747Z" fill="#A4B0BE"/>
<path d="M54.1264 26.9747C56.0364 26.9747 57.5848 25.4263 57.5848 23.5163C57.5848 21.6063 56.0364 20.0579 54.1264 20.0579C52.2164 20.0579 50.668 21.6063 50.668 23.5163C50.668 25.4263 52.2164 26.9747 54.1264 26.9747Z" fill="#A4B0BE"/>
<path d="M64.9496 26.9747C66.8597 26.9747 68.4081 25.4263 68.4081 23.5163C68.4081 21.6063 66.8597 20.0579 64.9496 20.0579C63.0396 20.0579 61.4912 21.6063 61.4912 23.5163C61.4912 25.4263 63.0396 26.9747 64.9496 26.9747Z" fill="#A4B0BE"/>
<path d="M75.7934 26.9747C77.7034 26.9747 79.2518 25.4263 79.2518 23.5163C79.2518 21.6063 77.7034 20.0579 75.7934 20.0579C73.8834 20.0579 72.335 21.6063 72.335 23.5163C72.335 25.4263 73.8834 26.9747 75.7934 26.9747Z" fill="#A4B0BE"/>
<path d="M82.7152 27.8921H14V30.5093H82.7152V27.8921Z" fill="#A4B0BE"/>
<path d="M21.8296 15H21.3262C20.1046 15 19.1143 15.9903 19.1143 17.2119V23.815C19.1143 25.0366 20.1046 26.0269 21.3262 26.0269H21.8296C23.0512 26.0269 24.0415 25.0366 24.0415 23.815V17.2119C24.0415 15.9903 23.0512 15 21.8296 15Z" fill="#DFE4EA"/>
<path d="M32.4256 15H32.4235C31.0634 15 29.9609 16.1025 29.9609 17.4625V23.5643C29.9609 24.9244 31.0634 26.0269 32.4235 26.0269H32.4256C33.7856 26.0269 34.8882 24.9244 34.8882 23.5643V17.4625C34.8882 16.1025 33.7856 15 32.4256 15Z" fill="#DFE4EA"/>
<path d="M43.2665 15H43.2643C41.9043 15 40.8018 16.1025 40.8018 17.4625V23.5643C40.8018 24.9244 41.9043 26.0269 43.2643 26.0269H43.2665C44.6265 26.0269 45.729 24.9244 45.729 23.5643V17.4625C45.729 16.1025 44.6265 15 43.2665 15Z" fill="#DFE4EA"/>
<path d="M54.1258 15H54.1237C52.7636 15 51.6611 16.1025 51.6611 17.4625V23.5643C51.6611 24.9244 52.7636 26.0269 54.1237 26.0269H54.1258C55.4858 26.0269 56.5883 24.9244 56.5883 23.5643V17.4625C56.5883 16.1025 55.4858 15 54.1258 15Z" fill="#DFE4EA"/>
<path d="M64.9481 15H64.9459C63.5859 15 62.4834 16.1025 62.4834 17.4625V23.5643C62.4834 24.9244 63.5859 26.0269 64.9459 26.0269H64.9481C66.3081 26.0269 67.4106 24.9244 67.4106 23.5643V17.4625C67.4106 16.1025 66.3081 15 64.9481 15Z" fill="#DFE4EA"/>
<path d="M76.0444 15H75.541C74.3194 15 73.3291 15.9903 73.3291 17.2119V23.815C73.3291 25.0366 74.3194 26.0269 75.541 26.0269H76.0444C77.266 26.0269 78.2563 25.0366 78.2563 23.815V17.2119C78.2563 15.9903 77.266 15 76.0444 15Z" fill="#DFE4EA"/>
<path d="M23.9268 39.6238C23.9268 38.0128 25.2328 36.7068 26.8438 36.7068H34.1363C35.7474 36.7068 37.0534 38.0128 37.0534 39.6238V46.9164C37.0534 48.5274 35.7474 49.8334 34.1363 49.8334H26.8438C25.2328 49.8334 23.9268 48.5274 23.9268 46.9164V39.6238Z" fill="#EEC647"/>
<path d="M23.9268 55.6675C23.9268 54.0565 25.2328 52.7505 26.8438 52.7505H34.1363C35.7474 52.7505 37.0534 54.0565 37.0534 55.6675V62.9601C37.0534 64.5711 35.7474 65.8771 34.1363 65.8771H26.8438C25.2328 65.8771 23.9268 64.5711 23.9268 62.9601V55.6675Z" fill="#EEC647"/>
<path d="M41.4297 39.6238C41.4297 38.0128 42.7357 36.7068 44.3467 36.7068H51.6393C53.2503 36.7068 54.5563 38.0128 54.5563 39.6238V46.9164C54.5563 48.5274 53.2503 49.8334 51.6393 49.8334H44.3467C42.7357 49.8334 41.4297 48.5274 41.4297 46.9164V39.6238Z" fill="#EEC647"/>
<path d="M41.4297 55.6675C41.4297 54.0565 42.7357 52.7505 44.3467 52.7505H51.6393C53.2503 52.7505 54.5563 54.0565 54.5563 55.6675V62.9601C54.5563 64.5711 53.2503 65.8771 51.6393 65.8771H44.3467C42.7357 65.8771 41.4297 64.5711 41.4297 62.9601V55.6675Z" fill="#EEC647"/>
<path d="M58.9316 39.6238C58.9316 38.0128 60.2376 36.7068 61.8487 36.7068H69.1412C70.7523 36.7068 72.0582 38.0128 72.0582 39.6238V46.9164C72.0582 48.5274 70.7523 49.8334 69.1412 49.8334H61.8487C60.2376 49.8334 58.9316 48.5274 58.9316 46.9164V39.6238Z" fill="#EEC647"/>
<path d="M58.9316 55.6675C58.9316 54.0565 60.2376 52.7505 61.8487 52.7505H69.1412C70.7523 52.7505 72.0582 54.0565 72.0582 55.6675V62.9601C72.0582 64.5711 70.7523 65.8771 69.1412 65.8771H61.8487C60.2376 65.8771 58.9316 64.5711 58.9316 62.9601V55.6675Z" fill="#FF4757"/>
<path d="M14 28.3303H82.7152V70.143C82.7152 73.0329 81.5672 75.8043 79.5238 77.8477C77.4804 79.8912 74.7089 81.0391 71.8191 81.0391H24.8961C22.0063 81.0391 19.2348 79.8912 17.1914 77.8477C15.148 75.8043 14 73.0329 14 70.143V28.3303Z" fill="#DFE4EA"/>
<path d="M18.3584 18.9902H78.3568C79.5127 18.9902 80.6213 19.4494 81.4386 20.2668C82.256 21.0842 82.7152 22.1927 82.7152 23.3487V30.5096H14V23.3487C14 22.1927 14.4592 21.0842 15.2766 20.2668C16.0939 19.4494 17.2025 18.9902 18.3584 18.9902V18.9902Z" fill="#EEC647"/>
<path d="M21.5688 26.9747C23.4788 26.9747 25.0272 25.4263 25.0272 23.5163C25.0272 21.6063 23.4788 20.0579 21.5688 20.0579C19.6587 20.0579 18.1104 21.6063 18.1104 23.5163C18.1104 25.4263 19.6587 26.9747 21.5688 26.9747Z" fill="#A4B0BE"/>
<path d="M32.4125 26.9747C34.3226 26.9747 35.8709 25.4263 35.8709 23.5163C35.8709 21.6063 34.3226 20.0579 32.4125 20.0579C30.5025 20.0579 28.9541 21.6063 28.9541 23.5163C28.9541 25.4263 30.5025 26.9747 32.4125 26.9747Z" fill="#A4B0BE"/>
<path d="M43.2817 26.9747C45.1917 26.9747 46.7401 25.4263 46.7401 23.5163C46.7401 21.6063 45.1917 20.0579 43.2817 20.0579C41.3716 20.0579 39.8232 21.6063 39.8232 23.5163C39.8232 25.4263 41.3716 26.9747 43.2817 26.9747Z" fill="#A4B0BE"/>
<path d="M54.1264 26.9747C56.0364 26.9747 57.5848 25.4263 57.5848 23.5163C57.5848 21.6063 56.0364 20.0579 54.1264 20.0579C52.2164 20.0579 50.668 21.6063 50.668 23.5163C50.668 25.4263 52.2164 26.9747 54.1264 26.9747Z" fill="#A4B0BE"/>
<path d="M64.9496 26.9747C66.8597 26.9747 68.4081 25.4263 68.4081 23.5163C68.4081 21.6063 66.8597 20.0579 64.9496 20.0579C63.0396 20.0579 61.4912 21.6063 61.4912 23.5163C61.4912 25.4263 63.0396 26.9747 64.9496 26.9747Z" fill="#A4B0BE"/>
<path d="M75.7934 26.9747C77.7034 26.9747 79.2518 25.4263 79.2518 23.5163C79.2518 21.6063 77.7034 20.0579 75.7934 20.0579C73.8834 20.0579 72.335 21.6063 72.335 23.5163C72.335 25.4263 73.8834 26.9747 75.7934 26.9747Z" fill="#A4B0BE"/>
<path d="M82.7152 27.8921H14V30.5093H82.7152V27.8921Z" fill="#A4B0BE"/>
<path d="M21.8296 15H21.3262C20.1046 15 19.1143 15.9903 19.1143 17.2119V23.815C19.1143 25.0366 20.1046 26.0269 21.3262 26.0269H21.8296C23.0512 26.0269 24.0415 25.0366 24.0415 23.815V17.2119C24.0415 15.9903 23.0512 15 21.8296 15Z" fill="#DFE4EA"/>
<path d="M32.4256 15H32.4235C31.0634 15 29.9609 16.1025 29.9609 17.4625V23.5643C29.9609 24.9244 31.0634 26.0269 32.4235 26.0269H32.4256C33.7856 26.0269 34.8882 24.9244 34.8882 23.5643V17.4625C34.8882 16.1025 33.7856 15 32.4256 15Z" fill="#DFE4EA"/>
<path d="M43.2665 15H43.2643C41.9043 15 40.8018 16.1025 40.8018 17.4625V23.5643C40.8018 24.9244 41.9043 26.0269 43.2643 26.0269H43.2665C44.6265 26.0269 45.729 24.9244 45.729 23.5643V17.4625C45.729 16.1025 44.6265 15 43.2665 15Z" fill="#DFE4EA"/>
<path d="M54.1258 15H54.1237C52.7636 15 51.6611 16.1025 51.6611 17.4625V23.5643C51.6611 24.9244 52.7636 26.0269 54.1237 26.0269H54.1258C55.4858 26.0269 56.5883 24.9244 56.5883 23.5643V17.4625C56.5883 16.1025 55.4858 15 54.1258 15Z" fill="#DFE4EA"/>
<path d="M64.9481 15H64.9459C63.5859 15 62.4834 16.1025 62.4834 17.4625V23.5643C62.4834 24.9244 63.5859 26.0269 64.9459 26.0269H64.9481C66.3081 26.0269 67.4106 24.9244 67.4106 23.5643V17.4625C67.4106 16.1025 66.3081 15 64.9481 15Z" fill="#DFE4EA"/>
<path d="M76.0444 15H75.541C74.3194 15 73.3291 15.9903 73.3291 17.2119V23.815C73.3291 25.0366 74.3194 26.0269 75.541 26.0269H76.0444C77.266 26.0269 78.2563 25.0366 78.2563 23.815V17.2119C78.2563 15.9903 77.266 15 76.0444 15Z" fill="#DFE4EA"/>
<path d="M23.9268 61.0047C23.9268 59.3936 25.2328 58.0876 26.8438 58.0876H34.1363C35.7474 58.0876 37.0534 59.3936 37.0534 61.0047V68.2972C37.0534 69.9082 35.7474 71.2142 34.1363 71.2142H26.8438C25.2328 71.2142 23.9268 69.9082 23.9268 68.2972V61.0047Z" fill="#EEC647"/>
<path d="M41.4297 61.0047C41.4297 59.3936 42.7357 58.0876 44.3467 58.0876H51.6393C53.2503 58.0876 54.5563 59.3936 54.5563 61.0047V68.2972C54.5563 69.9082 53.2503 71.2142 51.6393 71.2142H44.3467C42.7357 71.2142 41.4297 69.9082 41.4297 68.2972V61.0047Z" fill="#EEC647"/>
<path d="M58.9316 61.0047C58.9316 59.3936 60.2376 58.0876 61.8487 58.0876H69.1412C70.7523 58.0876 72.0582 59.3936 72.0582 61.0047V68.2972C72.0582 69.9082 70.7523 71.2142 69.1412 71.2142H61.8487C60.2376 71.2142 58.9316 69.9082 58.9316 68.2972V61.0047Z" fill="#FF4757"/>
<path d="M28.2973 42.1324C27.955 42.1324 27.6127 42.095 27.2705 42.0201C26.9282 41.9452 26.6314 41.8356 26.3801 41.6912C26.2303 41.611 26.1367 41.504 26.0993 41.3703C26.0619 41.2313 26.0699 41.0976 26.1234 40.9692C26.1768 40.8409 26.2624 40.75 26.3801 40.6965C26.4977 40.643 26.6394 40.6564 26.8052 40.7366C27.0191 40.8596 27.2571 40.9505 27.5192 41.0093C27.7812 41.0682 28.0406 41.0976 28.2973 41.0976C28.6823 41.0976 28.9577 41.0388 29.1235 40.9211C29.2946 40.7981 29.3802 40.6457 29.3802 40.4639C29.3802 40.3088 29.3214 40.1858 29.2037 40.0949C29.0861 40.0039 28.8802 39.9264 28.5861 39.8622L27.6796 39.6697C26.6688 39.4558 26.1635 38.9317 26.1635 38.0974C26.1635 37.7391 26.2597 37.4263 26.4523 37.1589C26.6448 36.8861 26.9122 36.6749 27.2544 36.5251C27.602 36.3754 28.0031 36.3005 28.4577 36.3005C28.7572 36.3005 29.0513 36.338 29.3401 36.4128C29.6289 36.4824 29.8829 36.5866 30.1022 36.7257C30.2359 36.8059 30.3188 36.9102 30.3509 37.0385C30.3829 37.1669 30.3722 37.2899 30.3188 37.4075C30.2706 37.5252 30.1851 37.6081 30.0621 37.6562C29.9444 37.7044 29.7973 37.6856 29.6209 37.6001C29.4444 37.5092 29.2572 37.4423 29.0593 37.3995C28.8615 37.3567 28.6583 37.3354 28.4497 37.3354C28.1128 37.3354 27.8507 37.4022 27.6635 37.5359C27.4817 37.6642 27.3908 37.8327 27.3908 38.0413C27.3908 38.1964 27.447 38.322 27.5593 38.4183C27.6716 38.5146 27.8668 38.5921 28.1449 38.6509L29.0513 38.8435C30.0888 39.0681 30.6076 39.5761 30.6076 40.3676C30.6076 40.7206 30.5113 41.0307 30.3188 41.2981C30.1316 41.5602 29.8642 41.7661 29.5166 41.9158C29.1743 42.0602 28.7679 42.1324 28.2973 42.1324Z" fill="#FF4757"/>
<path d="M32.0645 42.0442C31.6313 42.0442 31.4147 41.8276 31.4147 41.3944V37.0385C31.4147 36.6054 31.6313 36.3888 32.0645 36.3888H34.8641C35.1903 36.3888 35.3535 36.5492 35.3535 36.8701C35.3535 37.1963 35.1903 37.3594 34.8641 37.3594H32.602V38.683H34.6796C35.0112 38.683 35.177 38.8461 35.177 39.1723C35.177 39.4986 35.0112 39.6617 34.6796 39.6617H32.602V41.0735H34.8641C35.1903 41.0735 35.3535 41.234 35.3535 41.5548C35.3535 41.881 35.1903 42.0442 34.8641 42.0442H32.0645Z" fill="#FF4757"/>
<path d="M36.8493 42.1164C36.6674 42.1164 36.5284 42.0655 36.4321 41.9639C36.3359 41.8623 36.2877 41.7206 36.2877 41.5388V36.8942C36.2877 36.707 36.3386 36.5653 36.4402 36.469C36.5418 36.3674 36.6862 36.3166 36.8733 36.3166C37.0338 36.3166 37.1595 36.3487 37.2504 36.4128C37.3466 36.477 37.4349 36.5813 37.5151 36.7257L39.2318 39.8622L40.9484 36.7257C41.0286 36.5813 41.1142 36.477 41.2051 36.4128C41.3014 36.3487 41.4271 36.3166 41.5821 36.3166C41.764 36.3166 41.903 36.3674 41.9993 36.469C42.1009 36.5653 42.1517 36.707 42.1517 36.8942V41.5388C42.1517 41.9238 41.9645 42.1164 41.5902 42.1164C41.2105 42.1164 41.0206 41.9238 41.0206 41.5388V38.5948L39.705 40.9612C39.6409 41.0628 39.5713 41.1404 39.4965 41.1938C39.427 41.242 39.3334 41.266 39.2157 41.266C39.0981 41.266 39.0018 41.242 38.9269 41.1938C38.8521 41.1404 38.7852 41.0628 38.7264 40.9612L37.4108 38.6188V41.5388C37.4108 41.9238 37.2236 42.1164 36.8493 42.1164Z" fill="#FF4757"/>
<path d="M43.9484 42.0442C43.5152 42.0442 43.2986 41.8276 43.2986 41.3944V37.0385C43.2986 36.6054 43.5152 36.3888 43.9484 36.3888H46.748C47.0742 36.3888 47.2373 36.5492 47.2373 36.8701C47.2373 37.1963 47.0742 37.3594 46.748 37.3594H44.4859V38.683H46.5635C46.8951 38.683 47.0609 38.8461 47.0609 39.1723C47.0609 39.4986 46.8951 39.6617 46.5635 39.6617H44.4859V41.0735H46.748C47.0742 41.0735 47.2373 41.234 47.2373 41.5548C47.2373 41.881 47.0742 42.0442 46.748 42.0442H43.9484Z" fill="#FF4757"/>
<path d="M50.0987 42.1324C49.7565 42.1324 49.4142 42.095 49.072 42.0201C48.7297 41.9452 48.4329 41.8356 48.1815 41.6912C48.0318 41.611 47.9382 41.504 47.9008 41.3703C47.8633 41.2313 47.8714 41.0976 47.9248 40.9692C47.9783 40.8409 48.0639 40.75 48.1815 40.6965C48.2992 40.643 48.4409 40.6564 48.6067 40.7366C48.8206 40.8596 49.0586 40.9505 49.3206 41.0093C49.5827 41.0682 49.842 41.0976 50.0987 41.0976C50.4838 41.0976 50.7592 41.0388 50.925 40.9211C51.0961 40.7981 51.1817 40.6457 51.1817 40.4639C51.1817 40.3088 51.1229 40.1858 51.0052 40.0949C50.8876 40.0039 50.6817 39.9264 50.3875 39.8622L49.4811 39.6697C48.4703 39.4558 47.9649 38.9317 47.9649 38.0974C47.9649 37.7391 48.0612 37.4263 48.2537 37.1589C48.4463 36.8861 48.7136 36.6749 49.0559 36.5251C49.4035 36.3754 49.8046 36.3005 50.2592 36.3005C50.5587 36.3005 50.8528 36.338 51.1416 36.4128C51.4304 36.4824 51.6844 36.5866 51.9037 36.7257C52.0373 36.8059 52.1202 36.9102 52.1523 37.0385C52.1844 37.1669 52.1737 37.2899 52.1202 37.4075C52.0721 37.5252 51.9865 37.6081 51.8635 37.6562C51.7459 37.7044 51.5988 37.6856 51.4223 37.6001C51.2459 37.5092 51.0587 37.4423 50.8608 37.3995C50.6629 37.3567 50.4597 37.3354 50.2512 37.3354C49.9142 37.3354 49.6522 37.4022 49.465 37.5359C49.2832 37.6642 49.1923 37.8327 49.1923 38.0413C49.1923 38.1964 49.2484 38.322 49.3607 38.4183C49.473 38.5146 49.6682 38.5921 49.9463 38.6509L50.8528 38.8435C51.8903 39.0681 52.409 39.5761 52.409 40.3676C52.409 40.7206 52.3128 41.0307 52.1202 41.2981C51.9331 41.5602 51.6657 41.7661 51.3181 41.9158C50.9758 42.0602 50.5694 42.1324 50.0987 42.1324Z" fill="#FF4757"/>
<path d="M55.0721 42.1164C54.8689 42.1164 54.7138 42.0602 54.6068 41.9479C54.4999 41.8356 54.4464 41.6778 54.4464 41.4746V37.4156H53.0265C52.6789 37.4156 52.5051 37.2444 52.5051 36.9022C52.5051 36.5599 52.6789 36.3888 53.0265 36.3888H57.1096C57.4572 36.3888 57.631 36.5599 57.631 36.9022C57.631 37.2444 57.4572 37.4156 57.1096 37.4156H55.6898V41.4746C55.6898 41.6778 55.6363 41.8356 55.5293 41.9479C55.4277 42.0602 55.2753 42.1164 55.0721 42.1164Z" fill="#FF4757"/>
<path d="M58.817 42.0442C58.3838 42.0442 58.1672 41.8276 58.1672 41.3944V37.0385C58.1672 36.6054 58.3838 36.3888 58.817 36.3888H61.6166C61.9428 36.3888 62.1059 36.5492 62.1059 36.8701C62.1059 37.1963 61.9428 37.3594 61.6166 37.3594H59.3544V38.683H61.4321C61.7636 38.683 61.9294 38.8461 61.9294 39.1723C61.9294 39.4986 61.7636 39.6617 61.4321 39.6617H59.3544V41.0735H61.6166C61.9428 41.0735 62.1059 41.234 62.1059 41.5548C62.1059 41.881 61.9428 42.0442 61.6166 42.0442H58.817Z" fill="#FF4757"/>
<path d="M63.6498 42.1164C63.4466 42.1164 63.2915 42.0602 63.1846 41.9479C63.0776 41.8356 63.0241 41.6778 63.0241 41.4746V37.0225C63.0241 36.6 63.2354 36.3888 63.6579 36.3888H65.6072C66.2382 36.3888 66.7249 36.5412 67.0671 36.846C67.4094 37.1508 67.5805 37.576 67.5805 38.1215C67.5805 38.544 67.4709 38.8969 67.2516 39.1804C67.0377 39.4585 66.7302 39.6483 66.3291 39.7499C66.6126 39.8355 66.8452 40.0414 67.027 40.3676L67.5244 41.2901C67.6367 41.4933 67.6581 41.6832 67.5886 41.8597C67.519 42.0308 67.3506 42.1164 67.0832 42.1164C66.9067 42.1164 66.7623 42.0789 66.65 42.004C66.5377 41.9292 66.4414 41.8142 66.3612 41.6591L65.5911 40.2392C65.5109 40.0895 65.412 39.9879 65.2943 39.9344C65.1767 39.8809 65.0376 39.8542 64.8772 39.8542H64.2675V41.4746C64.2675 41.6778 64.214 41.8356 64.1071 41.9479C64.0055 42.0602 63.8531 42.1164 63.6498 42.1164ZM64.2675 38.9558H65.3826C66.051 38.9558 66.3853 38.6884 66.3853 38.1536C66.3853 37.6241 66.051 37.3594 65.3826 37.3594H64.2675V38.9558Z" fill="#FF4757"/>
<path d="M32.7807 52.3259C32.5775 52.3259 32.4224 52.2698 32.3155 52.1575C32.2085 52.0452 32.155 51.8874 32.155 51.6842V47.2321C32.155 46.8096 32.3663 46.5984 32.7888 46.5984H34.7381C35.3691 46.5984 35.8558 46.7588 36.198 47.0797C36.5403 47.3952 36.7114 47.8364 36.7114 48.4033C36.7114 48.9701 36.5403 49.414 36.198 49.7349C35.8558 50.0558 35.3691 50.2162 34.7381 50.2162H33.3984V51.6842C33.3984 51.8874 33.3449 52.0452 33.238 52.1575C33.1364 52.2698 32.984 52.3259 32.7807 52.3259ZM33.3984 49.2536H34.5295C35.1873 49.2536 35.5162 48.9701 35.5162 48.4033C35.5162 47.8471 35.1873 47.569 34.5295 47.569H33.3984V49.2536Z" fill="#FF4757"/>
<path d="M38.1318 52.2537C37.6986 52.2537 37.482 52.0371 37.482 51.604V47.2481C37.482 46.8149 37.6986 46.5984 38.1318 46.5984H40.9314C41.2576 46.5984 41.4207 46.7588 41.4207 47.0797C41.4207 47.4059 41.2576 47.569 40.9314 47.569H38.6693V48.8926H40.7469C41.0785 48.8926 41.2443 49.0557 41.2443 49.3819C41.2443 49.7081 41.0785 49.8713 40.7469 49.8713H38.6693V51.2831H40.9314C41.2576 51.2831 41.4207 51.4435 41.4207 51.7644C41.4207 52.0906 41.2576 52.2537 40.9314 52.2537H38.1318Z" fill="#FF4757"/>
<path d="M42.9166 52.3259C42.5315 52.3259 42.339 52.1254 42.339 51.7243V47.1519C42.339 46.9486 42.3871 46.7936 42.4834 46.6866C42.585 46.5796 42.7187 46.5262 42.8845 46.5262C43.0235 46.5262 43.1331 46.5556 43.2134 46.6144C43.2936 46.6679 43.3845 46.7588 43.4861 46.8871L46.0852 50.2001V47.1198C46.0852 46.724 46.2777 46.5262 46.6627 46.5262C47.0478 46.5262 47.2403 46.724 47.2403 47.1198V51.7484C47.2403 51.9248 47.1949 52.0666 47.1039 52.1735C47.013 52.2751 46.89 52.3259 46.7349 52.3259C46.5852 52.3259 46.4649 52.2965 46.374 52.2377C46.2884 52.1789 46.1948 52.0853 46.0932 51.9569L43.4941 48.6439V51.7243C43.4941 52.1254 43.3016 52.3259 42.9166 52.3259Z" fill="#FF4757"/>
<path d="M49.0286 52.2537C48.5954 52.2537 48.3788 52.0371 48.3788 51.604V47.2481C48.3788 46.8149 48.5954 46.5984 49.0286 46.5984H50.5929C51.5555 46.5984 52.3015 46.8444 52.831 47.3364C53.3604 47.823 53.6251 48.5182 53.6251 49.422C53.6251 50.3258 53.3604 51.0237 52.831 51.5157C52.3015 52.0077 51.5555 52.2537 50.5929 52.2537H49.0286ZM49.6222 51.235H50.5207C51.7239 51.235 52.3256 50.6307 52.3256 49.422C52.3256 48.2188 51.7239 47.6171 50.5207 47.6171H49.6222V51.235Z" fill="#FF4757"/>
<path d="M55.2408 52.2537C54.8076 52.2537 54.5911 52.0371 54.5911 51.604V47.2481C54.5911 46.8149 54.8076 46.5984 55.2408 46.5984H58.0404C58.3667 46.5984 58.5298 46.7588 58.5298 47.0797C58.5298 47.4059 58.3667 47.569 58.0404 47.569H55.7783V48.8926H57.8559C58.1875 48.8926 58.3533 49.0557 58.3533 49.3819C58.3533 49.7081 58.1875 49.8713 57.8559 49.8713H55.7783V51.2831H58.0404C58.3667 51.2831 58.5298 51.4435 58.5298 51.7644C58.5298 52.0906 58.3667 52.2537 58.0404 52.2537H55.2408Z" fill="#FF4757"/>
<path d="M60.0737 52.3259C59.8705 52.3259 59.7154 52.2698 59.6084 52.1575C59.5015 52.0452 59.448 51.8874 59.448 51.6842V47.1599C59.448 46.9567 59.5015 46.8016 59.6084 46.6946C59.7154 46.5823 59.8705 46.5262 60.0737 46.5262C60.4855 46.5262 60.6914 46.7374 60.6914 47.1599V49.0611H60.7074L62.8412 46.831C62.9322 46.7347 63.0257 46.6625 63.122 46.6144C63.2236 46.5609 63.3386 46.5342 63.4669 46.5342C63.6488 46.5342 63.7825 46.5823 63.868 46.6786C63.9536 46.7748 63.991 46.8898 63.9803 47.0235C63.9696 47.1519 63.9108 47.2695 63.8039 47.3765L61.9187 49.3017L63.9162 51.4275C64.0392 51.5612 64.1007 51.6976 64.1007 51.8366C64.106 51.9756 64.0606 52.0933 63.9643 52.1896C63.8734 52.2805 63.737 52.3259 63.5552 52.3259C63.4001 52.3259 63.2744 52.2938 63.1782 52.2297C63.0872 52.1655 62.9856 52.0719 62.8733 51.9489L60.7074 49.6707H60.6914V51.6842C60.6914 51.8874 60.6379 52.0452 60.531 52.1575C60.4293 52.2698 60.2769 52.3259 60.0737 52.3259Z" fill="#FF4757"/>
</svg>
