<svg width="96" height="96" viewBox="0 0 96 96" fill="none" xmlns="http://www.w3.org/2000/svg">
<path d="M14 28.3352H82.7401V70.1631C82.7401 73.0539 81.5917 75.8264 79.5475 77.8706C77.5034 79.9147 74.7309 81.0631 71.84 81.0631H24.9001C22.0092 81.0631 19.2367 79.9147 17.1926 77.8706C15.1484 75.8264 14 73.0539 14 70.1631V28.3352Z" fill="#DFE4EA"/>
<path d="M18.36 18.9915H78.3801C79.5364 18.9915 80.6454 19.4508 81.4631 20.2685C82.2807 21.0861 82.7401 22.1951 82.7401 23.3515V30.515H14V23.3515C14 22.1951 14.4594 21.0861 15.277 20.2685C16.0947 19.4508 17.2037 18.9915 18.36 18.9915V18.9915Z" fill="#EEC647"/>
<path d="M21.571 26.9792C23.4817 26.9792 25.0307 25.4302 25.0307 23.5195C25.0307 21.6088 23.4817 20.0598 21.571 20.0598C19.6603 20.0598 18.1113 21.6088 18.1113 23.5195C18.1113 25.4302 19.6603 26.9792 21.571 26.9792Z" fill="#A4B0BE"/>
<path d="M32.4187 26.9792C34.3294 26.9792 35.8783 25.4302 35.8783 23.5195C35.8783 21.6088 34.3294 20.0598 32.4187 20.0598C30.5079 20.0598 28.959 21.6088 28.959 23.5195C28.959 25.4302 30.5079 26.9792 32.4187 26.9792Z" fill="#A4B0BE"/>
<path d="M43.2927 26.9792C45.2034 26.9792 46.7524 25.4302 46.7524 23.5195C46.7524 21.6088 45.2034 20.0598 43.2927 20.0598C41.382 20.0598 39.833 21.6088 39.833 23.5195C39.833 25.4302 41.382 26.9792 43.2927 26.9792Z" fill="#A4B0BE"/>
<path d="M54.1403 26.9792C56.0511 26.9792 57.6 25.4302 57.6 23.5195C57.6 21.6088 56.0511 20.0598 54.1403 20.0598C52.2296 20.0598 50.6807 21.6088 50.6807 23.5195C50.6807 25.4302 52.2296 26.9792 54.1403 26.9792Z" fill="#A4B0BE"/>
<path d="M64.9685 26.9792C66.8792 26.9792 68.4281 25.4302 68.4281 23.5195C68.4281 21.6088 66.8792 20.0598 64.9685 20.0598C63.0577 20.0598 61.5088 21.6088 61.5088 23.5195C61.5088 25.4302 63.0577 26.9792 64.9685 26.9792Z" fill="#A4B0BE"/>
<path d="M75.8161 26.9792C77.7269 26.9792 79.2758 25.4302 79.2758 23.5195C79.2758 21.6088 77.7269 20.0598 75.8161 20.0598C73.9054 20.0598 72.3564 21.6088 72.3564 23.5195C72.3564 25.4302 73.9054 26.9792 75.8161 26.9792Z" fill="#A4B0BE"/>
<path d="M82.7401 27.897H14V30.5152H82.7401V27.897Z" fill="#A4B0BE"/>
<path d="M21.8325 15H21.3289C20.1069 15 19.1162 15.9907 19.1162 17.2127V23.8181C19.1162 25.0402 20.1069 26.0309 21.3289 26.0309H21.8325C23.0546 26.0309 24.0452 25.0402 24.0452 23.8181V17.2127C24.0452 15.9907 23.0546 15 21.8325 15Z" fill="#DFE4EA"/>
<path d="M32.4324 15H32.4302C31.0697 15 29.9668 16.1029 29.9668 17.4634V23.5674C29.9668 24.928 31.0697 26.0309 32.4302 26.0309H32.4324C33.7929 26.0309 34.8958 24.928 34.8958 23.5674V17.4634C34.8958 16.1029 33.7929 15 32.4324 15Z" fill="#DFE4EA"/>
<path d="M43.2781 15H43.2759C41.9154 15 40.8125 16.1029 40.8125 17.4634V23.5674C40.8125 24.928 41.9154 26.0309 43.2759 26.0309H43.2781C44.6386 26.0309 45.7415 24.928 45.7415 23.5674V17.4634C45.7415 16.1029 44.6386 15 43.2781 15Z" fill="#DFE4EA"/>
<path d="M54.1404 15H54.1382C52.7777 15 51.6748 16.1029 51.6748 17.4634V23.5674C51.6748 24.928 52.7777 26.0309 54.1382 26.0309H54.1404C55.5009 26.0309 56.6038 24.928 56.6038 23.5674V17.4634C56.6038 16.1029 55.5009 15 54.1404 15Z" fill="#DFE4EA"/>
<path d="M64.9666 15H64.9644C63.6039 15 62.501 16.1029 62.501 17.4634V23.5674C62.501 24.928 63.6039 26.0309 64.9644 26.0309H64.9666C66.3271 26.0309 67.43 24.928 67.43 23.5674V17.4634C67.43 16.1029 66.3271 15 64.9666 15Z" fill="#DFE4EA"/>
<path d="M76.0669 15H75.5633C74.3412 15 73.3506 15.9907 73.3506 17.2127V23.8181C73.3506 25.0402 74.3412 26.0309 75.5633 26.0309H76.0669C77.2889 26.0309 78.2796 25.0402 78.2796 23.8181V17.2127C78.2796 15.9907 77.2889 15 76.0669 15Z" fill="#DFE4EA"/>
<path d="M23.9316 39.6519C23.9316 38.0297 25.2467 36.7146 26.8689 36.7146H34.1257C35.7479 36.7146 37.063 38.0297 37.063 39.6519V46.9087C37.063 48.5309 35.7479 49.846 34.1257 49.846H26.8689C25.2467 49.846 23.9316 48.5309 23.9316 46.9087V39.6519Z" fill="#EEC647"/>
<path d="M23.9316 55.7014C23.9316 54.0792 25.2467 52.7642 26.8689 52.7642H34.1257C35.7479 52.7642 37.063 54.0792 37.063 55.7014V62.9582C37.063 64.5805 35.7479 65.8955 34.1257 65.8955H26.8689C25.2467 65.8955 23.9316 64.5805 23.9316 62.9582V55.7014Z" fill="#EEC647"/>
<path d="M41.4395 39.6519C41.4395 38.0297 42.7545 36.7146 44.3767 36.7146H51.6335C53.2557 36.7146 54.5708 38.0297 54.5708 39.6519V46.9087C54.5708 48.5309 53.2557 49.846 51.6335 49.846H44.3767C42.7545 49.846 41.4395 48.5309 41.4395 46.9087V39.6519Z" fill="#EEC647"/>
<path d="M41.4395 55.7014C41.4395 54.0792 42.7545 52.7642 44.3767 52.7642H51.6335C53.2557 52.7642 54.5708 54.0792 54.5708 55.7014V62.9582C54.5708 64.5805 53.2557 65.8955 51.6335 65.8955H44.3767C42.7545 65.8955 41.4395 64.5805 41.4395 62.9582V55.7014Z" fill="#EEC647"/>
<path d="M58.9482 39.6519C58.9482 38.0297 60.2633 36.7146 61.8855 36.7146H69.1423C70.7645 36.7146 72.0796 38.0297 72.0796 39.6519V46.9087C72.0796 48.5309 70.7645 49.846 69.1423 49.846H61.8855C60.2633 49.846 58.9482 48.5309 58.9482 46.9087V39.6519Z" fill="#EEC647"/>
<path d="M58.9482 55.7014C58.9482 54.0792 60.2633 52.7642 61.8855 52.7642H69.1423C70.7645 52.7642 72.0796 54.0792 72.0796 55.7014V62.9582C72.0796 64.5805 70.7645 65.8955 69.1423 65.8955H61.8855C60.2633 65.8955 58.9482 64.5805 58.9482 62.9582V55.7014Z" fill="#FF4757"/>
</svg>
