<svg width="96" height="96" viewBox="0 0 96 96" fill="none" xmlns="http://www.w3.org/2000/svg">
<path d="M75.1555 9.56494H21.0574C19.5636 9.56494 18.3525 10.776 18.3525 12.2698V85.3022C18.3525 86.7961 19.5636 88.0071 21.0574 88.0071H75.1555C76.6494 88.0071 77.8604 86.7961 77.8604 85.3022V12.2698C77.8604 10.776 76.6494 9.56494 75.1555 9.56494Z" fill="#DFE4EA"/>
<path d="M21.0574 9.56494H75.1555C75.8729 9.56494 76.5609 9.84992 77.0682 10.3572C77.5754 10.8645 77.8604 11.5525 77.8604 12.2698V13.6223H18.3525V12.2698C18.3525 11.5525 18.6375 10.8645 19.1448 10.3572C19.6521 9.84992 20.3401 9.56494 21.0574 9.56494Z" fill="#A4B0BE"/>
<path d="M72.917 81.3384V13.7158L24.2287 13.7158L24.2287 81.3384H72.917Z" fill="#DFE4EA"/>
<path d="M75.1554 8.21265H21.0574C19.9813 8.21265 18.9493 8.64012 18.1884 9.40102C17.4275 10.1619 17 11.1939 17 12.27V85.3024C17 86.3785 17.4275 87.4105 18.1884 88.1714C18.9493 88.9323 19.9813 89.3597 21.0574 89.3597H75.1554C76.2315 89.3597 77.2635 88.9323 78.0244 88.1714C78.7853 87.4105 79.2128 86.3785 79.2128 85.3024V12.27C79.2128 11.1939 78.7853 10.1619 78.0244 9.40102C77.2635 8.64012 76.2315 8.21265 75.1554 8.21265ZM57.5735 10.9175V13.6225H38.6392V10.9175H57.5735ZM38.6392 21.7372H57.5735C58.2909 21.7372 58.9789 21.4522 59.4862 20.9449C59.9935 20.4376 60.2784 19.7496 60.2784 19.0323V16.3274H71.0981V81.245H25.1147V16.3274H35.9343V19.0323C35.9343 19.7496 36.2193 20.4376 36.7266 20.9449C37.2338 21.4522 37.9218 21.7372 38.6392 21.7372ZM57.5735 19.0323H38.6392V16.3274H57.5735V19.0323ZM76.5079 85.3024C76.5079 85.6611 76.3654 86.0051 76.1117 86.2587C75.8581 86.5123 75.5141 86.6548 75.1554 86.6548H21.0574C20.6987 86.6548 20.3547 86.5123 20.101 86.2587C19.8474 86.0051 19.7049 85.6611 19.7049 85.3024V12.27C19.7049 11.9113 19.8474 11.5673 20.101 11.3137C20.3547 11.06 20.6987 10.9175 21.0574 10.9175H35.9343V13.6225H23.7623C23.4036 13.6225 23.0596 13.7649 22.8059 14.0186C22.5523 14.2722 22.4098 14.6162 22.4098 14.9749V82.5975C22.4098 82.9562 22.5523 83.3002 22.8059 83.5538C23.0596 83.8074 23.4036 83.9499 23.7623 83.9499H72.4505C72.8092 83.9499 73.1532 83.8074 73.4068 83.5538C73.6605 83.3002 73.803 82.9562 73.803 82.5975V14.9749C73.803 14.6162 73.6605 14.2722 73.4068 14.0186C73.1532 13.7649 72.8092 13.6225 72.4505 13.6225H60.2784V10.9175H75.1554C75.5141 10.9175 75.8581 11.06 76.1117 11.3137C76.3654 11.5673 76.5079 11.9113 76.5079 12.27V85.3024Z" fill="#EEC647"/>
<path d="M17.5127 11.5959C17.5127 9.05767 19.5704 7 22.1086 7H74.1035C76.6418 7 78.6995 9.05767 78.6995 11.5959V15.9542H17.5127V11.5959Z" fill="#EEC647"/>
<path d="M64.4105 39.832H36.0557V42.0706H64.4105V39.832Z" fill="#A4B0BE"/>
<path d="M64.4105 45.8015H36.0557V48.0401H64.4105V45.8015Z" fill="#A4B0BE"/>
<path d="M64.4105 51.771H36.0557V54.0095H64.4105V51.771Z" fill="#A4B0BE"/>
<path d="M58.5527 61.4712H37.6596C35.5991 61.4712 33.9287 63.1416 33.9287 65.2021C33.9287 67.2626 35.5991 68.933 37.6596 68.933H58.5527C60.6132 68.933 62.2836 67.2626 62.2836 65.2021C62.2836 63.1416 60.6132 61.4712 58.5527 61.4712Z" fill="#2ED573"/>
<path d="M39.9434 33.6433C39.7062 33.6433 39.5251 33.5759 39.4002 33.4411C39.2753 33.3063 39.2129 33.117 39.2129 32.8731V27.4425C39.2129 27.1986 39.2753 27.0124 39.4002 26.8841C39.5251 26.7493 39.7062 26.6819 39.9434 26.6819C40.4242 26.6819 40.6646 26.9354 40.6646 27.4425V29.7245H40.6834L43.1747 27.0477C43.2809 26.9322 43.3901 26.8455 43.5025 26.7878C43.6212 26.7236 43.7554 26.6915 43.9053 26.6915C44.1176 26.6915 44.2737 26.7493 44.3736 26.8648C44.4735 26.9803 44.5172 27.1184 44.5047 27.2788C44.4922 27.4329 44.4235 27.5741 44.2987 27.7025L42.0976 30.0134L44.4298 32.5649C44.5734 32.7254 44.6452 32.8891 44.6452 33.056C44.6514 33.2229 44.5984 33.3641 44.486 33.4797C44.3798 33.5888 44.2206 33.6433 44.0083 33.6433C43.8272 33.6433 43.6805 33.6048 43.5681 33.5278C43.462 33.4508 43.3433 33.3384 43.2122 33.1908L40.6834 30.4563H40.6646V32.8731C40.6646 33.117 40.6022 33.3063 40.4773 33.4411C40.3587 33.5759 40.1807 33.6433 39.9434 33.6433Z" fill="#FF4757"/>
<path d="M46.3917 33.6433C46.1545 33.6433 45.9734 33.5759 45.8485 33.4411C45.7236 33.3063 45.6612 33.117 45.6612 32.8731V27.5292C45.6612 27.0221 45.9078 26.7685 46.4011 26.7685H48.6771C49.4139 26.7685 49.9821 26.9515 50.3817 27.3173C50.7813 27.6832 50.9811 28.1935 50.9811 28.8483C50.9811 29.3554 50.8531 29.7791 50.5971 30.1193C50.3473 30.4531 49.9883 30.6809 49.52 30.8029C49.8509 30.9056 50.1226 31.1527 50.3348 31.5443L50.9155 32.6516C51.0467 32.8955 51.0716 33.1234 50.9905 33.3352C50.9093 33.5406 50.7126 33.6433 50.4004 33.6433C50.1944 33.6433 50.0258 33.5984 49.8946 33.5085C49.7635 33.4187 49.6511 33.2807 49.5575 33.0945L48.6583 31.3902C48.5647 31.2105 48.4492 31.0885 48.3118 31.0244C48.1744 30.9602 48.0121 30.9281 47.8247 30.9281H47.1129V32.8731C47.1129 33.117 47.0505 33.3063 46.9256 33.4411C46.807 33.5759 46.629 33.6433 46.3917 33.6433ZM47.1129 29.8497H48.4148C49.1953 29.8497 49.5856 29.5287 49.5856 28.8868C49.5856 28.2513 49.1953 27.9336 48.4148 27.9336H47.1129V29.8497Z" fill="#FF4757"/>
<path d="M54.5155 33.6626C54.1159 33.6626 53.7162 33.6177 53.3166 33.5278C52.917 33.4379 52.5705 33.3063 52.277 33.133C52.1022 33.0367 51.9929 32.9084 51.9492 32.7479C51.9055 32.581 51.9148 32.4205 51.9773 32.2664C52.0397 32.1124 52.1396 32.0033 52.277 31.9391C52.4144 31.8749 52.5798 31.8909 52.7734 31.9872C53.0231 32.1349 53.301 32.244 53.607 32.3146C53.9129 32.3852 54.2158 32.4205 54.5155 32.4205C54.965 32.4205 55.2866 32.3499 55.4802 32.2087C55.68 32.061 55.7799 31.8781 55.7799 31.6598C55.7799 31.4737 55.7112 31.3261 55.5738 31.2169C55.4365 31.1078 55.1961 31.0147 54.8526 30.9377L53.7943 30.7066C52.6142 30.4499 52.0241 29.8208 52.0241 28.8194C52.0241 28.3893 52.1365 28.0138 52.3613 27.6929C52.5861 27.3655 52.8983 27.1119 53.2979 26.9322C53.7037 26.7525 54.172 26.6626 54.7028 26.6626C55.0525 26.6626 55.3959 26.7075 55.7331 26.7974C56.0702 26.8808 56.3668 27.006 56.6228 27.1729C56.7789 27.2692 56.8757 27.3944 56.9132 27.5484C56.9506 27.7025 56.9382 27.8501 56.8757 27.9913C56.8195 28.1326 56.7196 28.2321 56.576 28.2898C56.4386 28.3476 56.2669 28.3251 56.0609 28.2224C55.8548 28.1133 55.6363 28.0331 55.4052 27.9817C55.1742 27.9304 54.9369 27.9047 54.6934 27.9047C54.3001 27.9047 53.9941 27.9849 53.7756 28.1454C53.5633 28.2995 53.4571 28.5017 53.4571 28.752C53.4571 28.9382 53.5227 29.089 53.6538 29.2046C53.7849 29.3201 54.0128 29.4132 54.3375 29.4838L55.3959 29.7149C56.6072 29.9845 57.2129 30.5943 57.2129 31.5443C57.2129 31.968 57.1005 32.3403 56.8757 32.6612C56.6572 32.9758 56.345 33.2229 55.9391 33.4026C55.5395 33.5759 55.0649 33.6626 54.5155 33.6626Z" fill="#FF4757"/>
<path fill-rule="evenodd" clip-rule="evenodd" d="M32.5861 39.552C32.7407 39.6963 32.7491 39.9387 32.6047 40.0933L30.2354 42.6318L29.06 41.3725C28.9157 41.2178 28.9241 40.9755 29.0787 40.8311C29.2333 40.6868 29.4757 40.6952 29.62 40.8498L30.2354 41.5092L32.0448 39.5706C32.1891 39.416 32.4314 39.4077 32.5861 39.552Z" fill="#2ED573"/>
<path fill-rule="evenodd" clip-rule="evenodd" d="M32.5861 51.4907C32.7407 51.635 32.7491 51.8774 32.6047 52.032L30.2354 54.5706L29.06 53.3112C28.9157 53.1566 28.9241 52.9142 29.0787 52.7699C29.2333 52.6255 29.4757 52.6339 29.62 52.7885L30.2354 53.4479L32.0448 51.5094C32.1891 51.3547 32.4314 51.3464 32.5861 51.4907Z" fill="#2ED573"/>
<path fill-rule="evenodd" clip-rule="evenodd" d="M29.7871 45.5622C29.9192 45.397 30.1602 45.3703 30.3254 45.5024L32.5639 47.2932C32.7291 47.4254 32.7559 47.6664 32.6237 47.8316C32.4916 47.9967 32.2506 48.0235 32.0854 47.8914L29.8469 46.1005C29.6817 45.9684 29.6549 45.7274 29.7871 45.5622Z" fill="#FF4757"/>
<path fill-rule="evenodd" clip-rule="evenodd" d="M32.6241 45.5622C32.4919 45.397 32.2509 45.3703 32.0857 45.5024L29.8472 47.2932C29.682 47.4254 29.6553 47.6664 29.7874 47.8316C29.9195 47.9967 30.1605 48.0235 30.3257 47.8914L32.5643 46.1005C32.7294 45.9684 32.7562 45.7274 32.6241 45.5622Z" fill="#FF4757"/>
</svg>
