<svg width="96" height="96" viewBox="0 0 96 96" fill="none" xmlns="http://www.w3.org/2000/svg">
<path d="M25.4502 88.1821L25.4502 8.00002H82.4604C83.5457 8.00002 84.5866 8.43403 85.3541 9.20658C86.1216 9.97913 86.5527 11.0269 86.5527 12.1195V84.0627C86.5527 85.1552 86.1216 86.203 85.3541 86.9756C84.5866 87.7481 83.5457 88.1821 82.4604 88.1821H25.4502V88.1821Z" fill="#DFE4EA"/>
<path d="M14.625 84.0016L14.625 12.1805C14.6247 11.6316 14.7318 11.0881 14.9402 10.5809C15.1486 10.0737 15.4543 9.61284 15.8397 9.22461C16.2252 8.83638 16.6828 8.5284 17.1866 8.31828C17.6903 8.10816 18.2302 8.00001 18.7755 8.00001H27.9757L27.9757 88.1821H18.7755C18.2302 88.1821 17.6903 88.074 17.1866 87.8639C16.6828 87.6537 16.2252 87.3458 15.8397 86.9575C15.4543 86.5693 15.1486 86.1084 14.9402 85.6012C14.7318 85.0941 14.6247 84.5505 14.625 84.0016Z" fill="#EEC647"/>
<path d="M19.8723 83.3863C22.0864 83.3863 23.8813 81.5795 23.8813 79.3507C23.8813 77.122 22.0864 75.3152 19.8723 75.3152C17.6582 75.3152 15.8633 77.122 15.8633 79.3507C15.8633 81.5795 17.6582 83.3863 19.8723 83.3863Z" fill="#A4B0BE"/>
<path d="M19.8723 70.7327C22.0864 70.7327 23.8813 68.926 23.8813 66.6972C23.8813 64.4684 22.0864 62.6616 19.8723 62.6616C17.6582 62.6616 15.8633 64.4684 15.8633 66.6972C15.8633 68.926 17.6582 70.7327 19.8723 70.7327Z" fill="#A4B0BE"/>
<path d="M19.8723 58.0491C22.0864 58.0491 23.8813 56.2424 23.8813 54.0136C23.8813 51.7848 22.0864 49.978 19.8723 49.978C17.6582 49.978 15.8633 51.7848 15.8633 54.0136C15.8633 56.2424 17.6582 58.0491 19.8723 58.0491Z" fill="#A4B0BE"/>
<path d="M19.8723 45.3956C22.0864 45.3956 23.8813 43.5888 23.8813 41.36C23.8813 39.1312 22.0864 37.3245 19.8723 37.3245C17.6582 37.3245 15.8633 39.1312 15.8633 41.36C15.8633 43.5888 17.6582 45.3956 19.8723 45.3956Z" fill="#A4B0BE"/>
<path d="M19.8723 32.7652C22.0864 32.7652 23.8813 30.9584 23.8813 28.7296C23.8813 26.5009 22.0864 24.6941 19.8723 24.6941C17.6582 24.6941 15.8633 26.5009 15.8633 28.7296C15.8633 30.9584 17.6582 32.7652 19.8723 32.7652Z" fill="#A4B0BE"/>
<path d="M19.8723 20.1116C22.0864 20.1116 23.8813 18.3049 23.8813 16.0761C23.8813 13.8473 22.0864 12.0405 19.8723 12.0405C17.6582 12.0405 15.8633 13.8473 15.8633 16.0761C15.8633 18.3049 17.6582 20.1116 19.8723 20.1116Z" fill="#A4B0BE"/>
<path d="M24.9424 8.00003L24.9424 88.1821H27.9763L27.9763 8.00003H24.9424Z" fill="#A4B0BE"/>
<path d="M10 79.0454V79.6328C10 81.0583 11.148 82.2139 12.564 82.2139H20.2183C21.6344 82.2139 22.7823 81.0583 22.7823 79.6328V79.0454C22.7823 77.62 21.6344 76.4644 20.2183 76.4644H12.564C11.148 76.4644 10 77.62 10 79.0454Z" fill="#DFE4EA"/>
<path d="M19.9278 63.8086H12.8545C11.278 63.8086 10 65.0951 10 66.682V66.6846C10 68.2716 11.278 69.5581 12.8545 69.5581H19.9278C21.5043 69.5581 22.7823 68.2716 22.7823 66.6846V66.682C22.7823 65.0951 21.5043 63.8086 19.9278 63.8086Z" fill="#DFE4EA"/>
<path d="M19.9278 51.1577H12.8545C11.278 51.1577 10 52.4442 10 54.0312V54.0337C10 55.6207 11.278 56.9072 12.8545 56.9072H19.9278C21.5043 56.9072 22.7823 55.6207 22.7823 54.0337V54.0312C22.7823 52.4442 21.5043 51.1577 19.9278 51.1577Z" fill="#DFE4EA"/>
<path d="M19.9278 38.4866H12.8545C11.278 38.4866 10 39.7731 10 41.36V41.3626C10 42.9495 11.278 44.236 12.8545 44.236H19.9278C21.5043 44.236 22.7823 42.9495 22.7823 41.3626V41.36C22.7823 39.7731 21.5043 38.4866 19.9278 38.4866Z" fill="#DFE4EA"/>
<path d="M19.9278 25.8589H12.8545C11.278 25.8589 10 27.1454 10 28.7323V28.7349C10 30.3218 11.278 31.6083 12.8545 31.6083H19.9278C21.5043 31.6083 22.7823 30.3218 22.7823 28.7349V28.7323C22.7823 27.1454 21.5043 25.8589 19.9278 25.8589Z" fill="#DFE4EA"/>
<path d="M10 15.7837V16.3711C10 17.7966 11.148 18.9521 12.564 18.9521H20.2183C21.6344 18.9521 22.7823 17.7966 22.7823 16.3711V15.7837C22.7823 14.3583 21.6344 13.2027 20.2183 13.2027H12.564C11.148 13.2027 10 14.3583 10 15.7837Z" fill="#DFE4EA"/>
<path d="M77.3274 59.2185H33.625V61.8529H77.3274V59.2185Z" fill="#A4B0BE"/>
<path d="M77.3274 65.2324H33.625V67.8668H77.3274V65.2324Z" fill="#A4B0BE"/>
<path d="M77.3274 71.2466H33.625V73.881H77.3274V71.2466Z" fill="#A4B0BE"/>
<path d="M77.3274 77.2605H33.625V79.8949H77.3274V77.2605Z" fill="#A4B0BE"/>
<path d="M33.4324 33.607C33.2154 33.607 33.0498 33.547 32.9356 33.4271C32.8214 33.3072 32.7643 33.1387 32.7643 32.9217V28.5876H31.2482C30.877 28.5876 30.6914 28.4048 30.6914 28.0394C30.6914 27.6739 30.877 27.4912 31.2482 27.4912H35.608C35.9792 27.4912 36.1648 27.6739 36.1648 28.0394C36.1648 28.4048 35.9792 28.5876 35.608 28.5876H34.0919V32.9217C34.0919 33.1387 34.0348 33.3072 33.9206 33.4271C33.8121 33.547 33.6494 33.607 33.4324 33.607Z" fill="#FF4757"/>
<path d="M37.4053 33.607C37.1884 33.607 37.0228 33.547 36.9085 33.4271C36.7943 33.3072 36.7372 33.1387 36.7372 32.9217V28.1679C36.7372 27.7168 36.9628 27.4912 37.4139 27.4912H39.4953C40.1691 27.4912 40.6888 27.6539 41.0542 27.9794C41.4197 28.3049 41.6024 28.7589 41.6024 29.3413C41.6024 29.7925 41.4854 30.1693 41.2513 30.472C41.0228 30.7689 40.6945 30.9716 40.2662 31.0801C40.5689 31.1715 40.8173 31.3913 41.0114 31.7397L41.5425 32.7247C41.6624 32.9417 41.6852 33.1444 41.611 33.3329C41.5368 33.5156 41.3569 33.607 41.0714 33.607C40.8829 33.607 40.7288 33.567 40.6088 33.487C40.4889 33.4071 40.3861 33.2843 40.3005 33.1187L39.4782 31.6026C39.3925 31.4427 39.2869 31.3342 39.1613 31.2771C39.0356 31.22 38.8872 31.1915 38.7159 31.1915H38.0649V32.9217C38.0649 33.1387 38.0078 33.3072 37.8936 33.4271C37.7851 33.547 37.6223 33.607 37.4053 33.607ZM38.0649 30.2322H39.2555C39.9693 30.2322 40.3262 29.9466 40.3262 29.3756C40.3262 28.8103 39.9693 28.5276 39.2555 28.5276H38.0649V30.2322Z" fill="#FF4757"/>
<path d="M42.7555 33.607C42.5157 33.607 42.3444 33.527 42.2416 33.3671C42.1388 33.2072 42.1416 33.0102 42.2501 32.7761L44.4429 27.9709C44.5343 27.7767 44.6428 27.6368 44.7684 27.5512C44.894 27.4598 45.0396 27.4141 45.2052 27.4141C45.3708 27.4141 45.5164 27.4598 45.6421 27.5512C45.7677 27.6368 45.8733 27.7767 45.959 27.9709L48.1689 32.7761C48.2774 33.0159 48.2802 33.2158 48.1775 33.3757C48.0804 33.5299 47.9205 33.607 47.6978 33.607C47.5036 33.607 47.3523 33.5613 47.2438 33.4699C47.141 33.3785 47.0497 33.2358 46.9697 33.0416L46.61 32.2193H43.7919L43.4407 33.0416C43.3551 33.2415 43.2637 33.3871 43.1666 33.4785C43.0696 33.5641 42.9325 33.607 42.7555 33.607ZM45.1881 28.9045L44.2373 31.1829H46.1731L45.2052 28.9045H45.1881Z" fill="#FF4757"/>
<path d="M49.6501 33.607C49.239 33.607 49.0334 33.3928 49.0334 32.9645V28.0822C49.0334 27.8652 49.0848 27.6996 49.1876 27.5854C49.2961 27.4712 49.4388 27.4141 49.6159 27.4141C49.7643 27.4141 49.8814 27.4455 49.967 27.5083C50.0527 27.5654 50.1498 27.6625 50.2583 27.7996L53.0335 31.3371V28.048C53.0335 27.6254 53.2391 27.4141 53.6502 27.4141C54.0614 27.4141 54.2669 27.6254 54.2669 28.048V32.9902C54.2669 33.1787 54.2184 33.33 54.1213 33.4442C54.0242 33.5527 53.8929 33.607 53.7273 33.607C53.5674 33.607 53.4389 33.5756 53.3418 33.5127C53.2505 33.4499 53.1506 33.35 53.0421 33.2129L50.2668 29.6754V32.9645C50.2668 33.3928 50.0613 33.607 49.6501 33.607Z" fill="#FF4757"/>
<path d="M57.6411 33.6241C57.2757 33.6241 56.9102 33.5841 56.5447 33.5042C56.1793 33.4242 55.8624 33.3072 55.594 33.153C55.4341 33.0673 55.3342 32.9531 55.2942 32.8104C55.2542 32.6619 55.2628 32.5191 55.3199 32.3821C55.377 32.245 55.4683 32.148 55.594 32.0909C55.7196 32.0338 55.8709 32.048 56.0479 32.1337C56.2764 32.265 56.5305 32.3621 56.8103 32.4249C57.0901 32.4877 57.367 32.5191 57.6411 32.5191C58.0523 32.5191 58.3464 32.4563 58.5234 32.3307C58.7061 32.1994 58.7975 32.0366 58.7975 31.8425C58.7975 31.6769 58.7347 31.5455 58.609 31.4485C58.4834 31.3514 58.2636 31.2686 57.9495 31.2001L56.9816 30.9945C55.9023 30.7661 55.3627 30.2065 55.3627 29.3156C55.3627 28.9331 55.4655 28.599 55.6711 28.3135C55.8766 28.0223 56.1622 27.7967 56.5276 27.6368C56.8988 27.4769 57.3271 27.397 57.8124 27.397C58.1322 27.397 58.4463 27.4369 58.7546 27.5169C59.063 27.5911 59.3342 27.7025 59.5684 27.8509C59.7111 27.9366 59.7996 28.048 59.8339 28.185C59.8682 28.322 59.8567 28.4534 59.7996 28.579C59.7482 28.7046 59.6569 28.7931 59.5255 28.8445C59.3999 28.8959 59.2429 28.8759 59.0544 28.7846C58.866 28.6875 58.6661 28.6161 58.4548 28.5704C58.2436 28.5248 58.0266 28.5019 57.8039 28.5019C57.4441 28.5019 57.1643 28.5733 56.9645 28.7161C56.7703 28.8531 56.6732 29.033 56.6732 29.2557C56.6732 29.4213 56.7332 29.5555 56.8531 29.6583C56.973 29.761 57.1814 29.8438 57.4784 29.9067L58.4463 30.1122C59.5541 30.3521 60.108 30.8946 60.108 31.7397C60.108 32.1166 60.0052 32.4478 59.7996 32.7333C59.5998 33.0131 59.3142 33.2329 58.9431 33.3928C58.5776 33.547 58.1436 33.6241 57.6411 33.6241Z" fill="#FF4757"/>
<path d="M61.638 33.607C61.421 33.607 61.2554 33.547 61.1412 33.4271C61.027 33.3072 60.9699 33.1387 60.9699 32.9217V28.0908C60.9699 27.8738 61.027 27.7082 61.1412 27.594C61.2554 27.4741 61.421 27.4141 61.638 27.4141C62.0777 27.4141 62.2975 27.6397 62.2975 28.0908V30.1208H62.3147L64.5931 27.7396C64.6902 27.6368 64.7901 27.5597 64.8929 27.5083C65.0014 27.4512 65.1242 27.4227 65.2612 27.4227C65.4554 27.4227 65.5981 27.4741 65.6895 27.5768C65.7808 27.6796 65.8208 27.8024 65.8094 27.9452C65.798 28.0822 65.7352 28.2078 65.621 28.322L63.6081 30.3778L65.7409 32.6476C65.8722 32.7904 65.9379 32.936 65.9379 33.0845C65.9436 33.2329 65.895 33.3586 65.7923 33.4613C65.6952 33.5584 65.5496 33.607 65.3554 33.607C65.1898 33.607 65.0556 33.5727 64.9528 33.5042C64.8558 33.4356 64.7473 33.3357 64.6274 33.2044L62.3147 30.7718H62.2975V32.9217C62.2975 33.1387 62.2404 33.3072 62.1262 33.4271C62.0177 33.547 61.855 33.607 61.638 33.607Z" fill="#FF4757"/>
<path d="M67.5351 33.607C67.3181 33.607 67.1525 33.547 67.0383 33.4271C66.9241 33.3072 66.867 33.1387 66.867 32.9217V28.1679C66.867 27.7168 67.0926 27.4912 67.5437 27.4912H69.6251C70.2989 27.4912 70.8186 27.6539 71.184 27.9794C71.5495 28.3049 71.7322 28.7589 71.7322 29.3413C71.7322 29.7925 71.6152 30.1693 71.381 30.472C71.1526 30.7689 70.8243 30.9716 70.396 31.0801C70.6987 31.1715 70.9471 31.3913 71.1412 31.7397L71.6723 32.7247C71.7922 32.9417 71.815 33.1444 71.7408 33.3329C71.6666 33.5156 71.4867 33.607 71.2012 33.607C71.0127 33.607 70.8585 33.567 70.7386 33.487C70.6187 33.4071 70.5159 33.2843 70.4303 33.1187L69.608 31.6026C69.5223 31.4427 69.4167 31.3342 69.2911 31.2771C69.1654 31.22 69.017 31.1915 68.8457 31.1915H68.1947V32.9217C68.1947 33.1387 68.1376 33.3072 68.0234 33.4271C67.9149 33.547 67.7521 33.607 67.5351 33.607ZM68.1947 30.2322H69.3853C70.0991 30.2322 70.456 29.9466 70.456 29.3756C70.456 28.8103 70.0991 28.5276 69.3853 28.5276H68.1947V30.2322Z" fill="#FF4757"/>
<path d="M73.4992 33.607C73.2822 33.607 73.1166 33.547 73.0024 33.4271C72.8882 33.3072 72.8311 33.1387 72.8311 32.9217V28.0993C72.8311 27.6425 73.0538 27.4141 73.4992 27.4141C73.9389 27.4141 74.1587 27.6425 74.1587 28.0993V32.9217C74.1587 33.3785 73.9389 33.607 73.4992 33.607Z" fill="#FF4757"/>
<path d="M76.0421 33.607C75.8251 33.607 75.6595 33.547 75.5453 33.4271C75.4311 33.3072 75.374 33.1387 75.374 32.9217V28.1679C75.374 27.7168 75.5995 27.4912 76.0506 27.4912H78.1321C78.8059 27.4912 79.3255 27.6625 79.691 28.0051C80.0564 28.342 80.2392 28.8131 80.2392 29.4184C80.2392 30.0237 80.0564 30.4977 79.691 30.8403C79.3255 31.1829 78.8059 31.3542 78.1321 31.3542H76.7016V32.9217C76.7016 33.1387 76.6445 33.3072 76.5303 33.4271C76.4218 33.547 76.2591 33.607 76.0421 33.607ZM76.7016 30.3264H77.9094C78.6117 30.3264 78.9629 30.0237 78.9629 29.4184C78.9629 28.8246 78.6117 28.5276 77.9094 28.5276H76.7016V30.3264Z" fill="#FF4757"/>
</svg>
